<svg xmlns="http://www.w3.org/2000/svg" width="177" height="177" viewBox="0 0 177 177">
  <g id="Grupo_145184" data-name="Grupo 145184" transform="translate(-402 -2484.969)">
    <circle id="Elipse_4966" data-name="Elipse 4966" cx="83.5" cy="83.5" r="83.5" transform="translate(407 2490)" fill="#fff"/>
    <g id="Elipse_4965" data-name="Elipse 4965" transform="translate(414 2496.969)" fill="none" stroke="#ff9500" stroke-linejoin="round" stroke-width="12">
      <circle cx="76.5" cy="76.5" r="76.5" stroke="none"/>
      <circle cx="76.5" cy="76.5" r="82.5" fill="none"/>
    </g>
    <g id="velocimetro" transform="translate(441 2523)">
      <g id="Grupo_145121" data-name="Grupo 145121" transform="translate(0 0)">
        <path id="Trazado_208362" data-name="Trazado 208362" d="M104.57,82.826a48.531,48.531,0,0,1-26.157,43.079c-6.7,3.486-14.307,2.339-22.378,2.339s-15.682,1.146-22.378-2.339A48.531,48.531,0,0,1,7.5,82.826c0-1.98,3.086-3.335,3.324-5.187,2.993-23.223,21.2-36.846,46.029-36.846,25.633,0,44.075,13.935,45.8,38.593C102.728,80.514,104.57,81.654,104.57,82.826Z" transform="translate(-6.035 -32.826)" fill="#0ca4ca"/>
        <path id="Trazado_208363" data-name="Trazado 208363" d="M243.93,15.123c-.984,0-1.96,1.8-2.93,1.854,25.441,1.515,45.605,19.371,45.605,45.193a48.479,48.479,0,0,1-21.266,40.153c-7.016,4.773-13.381,3.654-22.372,4.19.97.058,1.5,1.9,2.484,1.9,8.071,0,14.16.318,20.856-3.168a48.53,48.53,0,0,0,26.157-43.079c0-2.021-1.047-3.03-1.286-4.971C288.236,33.4,268.714,15.123,243.93,15.123Z" transform="translate(-193.93 -12.169)" fill="#0a82a1"/>
        <path id="Trazado_208364" data-name="Trazado 208364" d="M353.95,40.712l.013.016-5.584,4.438-.8,6.613L365.471,82.76h12.76A48.515,48.515,0,0,0,353.95,40.712Z" transform="translate(-279.696 -32.76)" fill="#ff9500"/>
        <path id="Trazado_208365" data-name="Trazado 208365" d="M373.656,40.712l.013.016-1.6,2.767A48.463,48.463,0,0,1,392.077,82.76h5.859a48.515,48.515,0,0,0-24.281-42.048Z" transform="translate(-299.402 -32.76)" fill="#d67d00"/>
        <path id="Trazado_208366" data-name="Trazado 208366" d="M35.036,64.052a43.868,43.868,0,0,0,3.112-12.225c-1.059-1.834-.028-5.257-1.087-7.091s-4.226-2.11-5.293-3.96l-.007,0A48.515,48.515,0,0,0,7.5,82.81H20.26A45.356,45.356,0,0,0,35.036,64.052Z" transform="translate(-6.035 -32.81)" fill="#ffe6c2"/>
        <path id="Trazado_208367" data-name="Trazado 208367" d="M131.763,13.987,131.75,14l6.38,11.051a24.986,24.986,0,0,0,17.2,7.83,25.176,25.176,0,0,0,18.578-7.83L180.285,14l-.013-.016a48.586,48.586,0,0,0-48.508,0Z" transform="translate(-106.018 -6.035)" fill="#ffba59"/>
        <path id="Trazado_208368" data-name="Trazado 208368" d="M268.2,14l-.013-.016h0A48.31,48.31,0,0,0,243.93,7.5c-.984,0-1.96.033-2.93.09a48.289,48.289,0,0,1,25.6,9.179Z" transform="translate(-193.93 -6.035)" fill="#ff9500"/>
        <path id="Trazado_208369" data-name="Trazado 208369" fill="none" stroke="#000" stroke-linecap="round" stroke-linejoin="round" stroke-miterlimit="10" stroke-width="15"/>
        <circle id="Elipse_5383" data-name="Elipse 5383" cx="35.775" cy="35.775" r="35.775" transform="translate(14.225 14.225)" fill="#fff"/>
        <path id="Trazado_208370" data-name="Trazado 208370" d="M252.122,229.62l-2.97-10.8,24.232-2.454a1.562,1.562,0,0,1,.817,2.971Z" transform="translate(-200.489 -174.099)" fill="#0ca4ca"/>
        <circle id="Elipse_5384" data-name="Elipse 5384" cx="7.859" cy="7.859" r="7.859" transform="translate(42.216 42.066)" fill="#d2e1f1"/>
        <path id="Trazado_208371" data-name="Trazado 208371" d="M243.93,215a7.981,7.981,0,0,0-2.93.555,8.007,8.007,0,0,1,0,14.9A8.008,8.008,0,1,0,243.93,215Z" transform="translate(-193.93 -173.008)" fill="#b0c0d2"/>
        <path id="Trazado_208372" data-name="Trazado 208372" d="M141.43,391.913a48.6,48.6,0,0,0,44.754,0l-5.469-16.526a5.86,5.86,0,0,0-5.563-4.018h-22.69a5.86,5.86,0,0,0-5.563,4.018Z" transform="translate(-113.807 -298.836)" fill="#b0c0d2"/>
        <g id="Grupo_145120" data-name="Grupo 145120" transform="translate(47.07 72.533)">
          <path id="Trazado_208373" data-name="Trazado 208373" d="M266.307,464.5l-.969-2.927A48.272,48.272,0,0,1,241,469.865c.97.058,1.946.09,2.93.09A48.325,48.325,0,0,0,266.307,464.5Z" transform="translate(-241 -443.953)" fill="#727997"/>
          <path id="Trazado_208374" data-name="Trazado 208374" d="M260.838,375.387a5.859,5.859,0,0,0-5.563-4.018h-5.859a5.859,5.859,0,0,1,5.563,4.018l4.664,14.092a2.937,2.937,0,0,1-1.587,3.6A48.267,48.267,0,0,1,241,397.284q1.454.087,2.93.087a48.325,48.325,0,0,0,22.377-5.458Z" transform="translate(-241.001 -371.369)" fill="#727997"/>
        </g>
      </g>
      <path id="Trazado_208375" data-name="Trazado 208375" d="M58.657,81.152H41.343a1.465,1.465,0,1,0,0,2.93H58.657a1.465,1.465,0,1,0,0-2.93Zm-2.93,5.859H44.273a1.465,1.465,0,1,0,0,2.93H55.727a1.465,1.465,0,1,0,0-2.93ZM96.288,31.06a1.465,1.465,0,1,0-2.711,1.11,46.733,46.733,0,0,1,3.469,16.365H87.209a37.255,37.255,0,0,0-17.34-30.019l4.925-8.531A47.362,47.362,0,0,1,90.625,26.211a1.465,1.465,0,0,0,2.527-1.483,49.759,49.759,0,1,0,3.136,6.332ZM50,2.93A47.069,47.069,0,0,1,72.259,8.516l-4.926,8.532a37.173,37.173,0,0,0-34.667,0L27.734,8.5A46.831,46.831,0,0,1,50,2.93ZM16.716,16.716A47.423,47.423,0,0,1,25.2,9.976l4.931,8.541a37.255,37.255,0,0,0-17.34,30.019H2.954A46.739,46.739,0,0,1,16.716,16.716Zm0,66.568A46.739,46.739,0,0,1,2.954,51.465h9.837a37.152,37.152,0,0,0,4.984,17.187,37.56,37.56,0,0,0,12.179,12.72l-3.176,9.595A47.318,47.318,0,0,1,16.716,83.284ZM50,97.07A46.887,46.887,0,0,1,29.407,92.35l5.076-15.338A4.388,4.388,0,0,1,38.655,74h7.276a1.465,1.465,0,1,0,0-2.93H38.655A7.312,7.312,0,0,0,31.7,76.091l-.794,2.4a34.622,34.622,0,0,1-10.6-11.309,34.232,34.232,0,0,1-4.619-17.174s0,0,0-.006,0,0,0-.006a34.311,34.311,0,0,1,68.621,0s0,0,0,.006,0,0,0,.006A34.233,34.233,0,0,1,79.691,67.18a34.622,34.622,0,0,1-10.6,11.309l-.794-2.4a7.312,7.312,0,0,0-6.953-5.023H52.767a1.465,1.465,0,1,0,0,2.93h8.578a4.387,4.387,0,0,1,4.172,3.014L70.593,92.35A46.884,46.884,0,0,1,50,97.07ZM83.284,83.284a47.316,47.316,0,0,1-10.062,7.683l-3.176-9.595a37.561,37.561,0,0,0,12.179-12.72,37.156,37.156,0,0,0,4.984-17.187h9.837A46.739,46.739,0,0,1,83.284,83.284ZM58.641,53.873,74.33,46.566a3.028,3.028,0,0,0-1.583-5.758L55.807,42.524a9.47,9.47,0,1,0,2.834,11.349ZM73.107,43.724a.184.184,0,0,1,.043.15c-.025.058-13.645,6.338-13.684,6.383a9.418,9.418,0,0,0-1.288-5.028c.05-.015,14.88-1.508,14.929-1.505ZM43.457,50A6.543,6.543,0,1,1,50,56.543,6.55,6.55,0,0,1,43.457,50Z"/>
    </g>
  </g>
</svg>
