<svg xmlns="http://www.w3.org/2000/svg" width="177" height="177" viewBox="0 0 177 177">
  <g id="Grupo_145185" data-name="Grupo 145185" transform="translate(-1022 -2484.969)">
    <circle id="Elipse_4963" data-name="Elipse 4963" cx="83.5" cy="83.5" r="83.5" transform="translate(1027 2490)" fill="#fff"/>
    <g id="Elipse_4964" data-name="Elipse 4964" transform="translate(1034 2496.969)" fill="none" stroke="#ff9500" stroke-linejoin="round" stroke-width="12">
      <circle cx="76.5" cy="76.5" r="76.5" stroke="none"/>
      <circle cx="76.5" cy="76.5" r="82.5" fill="none"/>
    </g>
    <g id="salario" transform="translate(1054.203 2523.001)">
      <g id="Grupo_145118" data-name="Grupo 145118" transform="translate(10.043 1.476)">
        <g id="Grupo_145102" data-name="Grupo 145102" transform="translate(18.59)">
          <g id="Grupo_145101" data-name="Grupo 145101">
            <g id="Grupo_145100" data-name="Grupo 145100">
              <g id="Grupo_145097" data-name="Grupo 145097">
                <g id="Grupo_145096" data-name="Grupo 145096">
                  <path id="Trazado_208352" data-name="Trazado 208352" d="M153.4,24.621s9.582-12.436,6.827-16c-.939-1.216-1.74.435-3.682.435-2.282,0-2.282-1.493-4.564-1.493s-2.282,1.493-4.563,1.493-2.281-1.493-4.563-1.493-2.281,1.493-4.563,1.493c-1.944,0-2.742-1.673-3.687-.456-2.757,3.548,6.685,16.025,6.685,16.025-41.7,27.414-28.255,64.7-3.634,64.7h19.526C181.881,89.316,195.244,52.125,153.4,24.621Z" transform="translate(-114.473 -7.559)" fill="#ffbd61"/>
                </g>
              </g>
              <g id="Grupo_145098" data-name="Grupo 145098" transform="translate(25.184)">
                <path id="Trazado_208353" data-name="Trazado 208353" d="M257.162,24.621s9.582-12.436,6.827-16c-.939-1.216-1.74.435-3.682.435-2.282,0-2.282-1.493-4.564-1.493s-2.282,1.493-4.563,1.493c-.112,0-.215-.006-.317-.013-.917,3.93-5.048,10.052-7.412,13.33.931,1.366,1.6,2.252,1.6,2.252q-.834.548-1.637,1.1c39.842,27.385,26.511,63.593,2.144,63.593h15.385c24.695,0,38.057-37.19-3.782-64.7Z" transform="translate(-243.415 -7.559)" fill="#ff9500"/>
              </g>
              <g id="Grupo_145099" data-name="Grupo 145099" transform="translate(21.526 14.488)">
                <path id="Trazado_208354" data-name="Trazado 208354" d="M243.871,88.735a33.336,33.336,0,0,1-16.637,0,3.552,3.552,0,0,1-2.339-4.65l.023-.066a3.278,3.278,0,0,1,3.869-2.185,27.086,27.086,0,0,0,13.532,0,3.278,3.278,0,0,1,3.869,2.185l.023.066A3.552,3.552,0,0,1,243.871,88.735Z" transform="translate(-224.683 -81.738)" fill="#0ca4ca"/>
              </g>
            </g>
          </g>
        </g>
        <g id="Grupo_145117" data-name="Grupo 145117" transform="translate(0 55.481)">
          <g id="Grupo_145116" data-name="Grupo 145116">
            <g id="Grupo_145115" data-name="Grupo 145115">
              <g id="Grupo_145114" data-name="Grupo 145114">
                <g id="Grupo_145113" data-name="Grupo 145113">
                  <g id="Grupo_145112" data-name="Grupo 145112">
                    <g id="Grupo_145111" data-name="Grupo 145111">
                      <g id="Grupo_145110" data-name="Grupo 145110">
                        <g id="Grupo_145109" data-name="Grupo 145109">
                          <g id="Grupo_145108" data-name="Grupo 145108" transform="translate(0)">
                            <g id="Grupo_145107" data-name="Grupo 145107" transform="translate(7.732 5.132)">
                              <g id="Grupo_145106" data-name="Grupo 145106">
                                <g id="Grupo_145103" data-name="Grupo 145103">
                                  <path id="Trazado_208355" data-name="Trazado 208355" d="M54.883,345.436l21.2,7.893a16.136,16.136,0,0,0,5.629,1.013h21.853a16.137,16.137,0,0,0,8.637-2.506L139.567,334.5a4.8,4.8,0,0,0,.782-6.293c-1.486-2.184-3.944-2.563-6.649-1.284l-26.639,11.73.031-4.322a7.736,7.736,0,0,0-6.614-6.894l-16.223-1.868c-3.742-.529-5.612-1.784-8.875-3.692A29.076,29.076,0,0,0,60.7,317.9H54.883v27.54Z" transform="translate(-54.883 -317.896)" fill="#ffddce"/>
                                </g>
                                <g id="Grupo_145104" data-name="Grupo 145104">
                                  <path id="Trazado_208356" data-name="Trazado 208356" d="M54.883,345.436l21.2,7.893a16.136,16.136,0,0,0,5.629,1.013h21.853a16.137,16.137,0,0,0,8.637-2.506L139.567,334.5a4.8,4.8,0,0,0,.782-6.293c-1.486-2.184-3.944-2.563-6.649-1.284l-26.639,11.73.031-4.322a7.736,7.736,0,0,0-6.614-6.894l-16.223-1.868c-3.742-.529-5.612-1.784-8.875-3.692A29.076,29.076,0,0,0,60.7,317.9H54.883v27.54Z" transform="translate(-54.883 -317.896)" fill="#ffddce"/>
                                </g>
                                <path id="Trazado_208357" data-name="Trazado 208357" d="M140.35,362.376c-1.486-2.184-3.944-2.564-6.649-1.284l-7.327,3.226.637,1.01a4.8,4.8,0,0,1-.782,6.293l-15.943,10.1a16.134,16.134,0,0,1-6.716,1.466H81.717a16.134,16.134,0,0,1-5.629-1.013l-21.2-7.893v5.324l21.2,7.893a16.135,16.135,0,0,0,5.629,1.013H103.57a16.137,16.137,0,0,0,8.637-2.506l27.362-17.338a4.8,4.8,0,0,0,.782-6.293Z" transform="translate(-54.884 -352.066)" fill="#ffcbbe"/>
                                <g id="Grupo_145105" data-name="Grupo 145105" transform="translate(50.219 11.981)">
                                  <path id="Trazado_208358" data-name="Trazado 208358" d="M312,379.236v.1l.069-.03C312.051,379.285,312.027,379.261,312,379.236Z" transform="translate(-312.004 -379.236)" fill="#f5dbcc"/>
                                </g>
                              </g>
                            </g>
                            <path id="Trazado_208359" data-name="Trazado 208359" d="M27.59,328.516A2.786,2.786,0,0,1,24.8,331.3H18.081a2.786,2.786,0,0,1-2.786-2.786v-34.11a2.786,2.786,0,0,1,2.786-2.786H24.8a2.786,2.786,0,0,1,2.786,2.786Z" transform="translate(-15.295 -291.62)" fill="#0ca4ca"/>
                          </g>
                        </g>
                      </g>
                    </g>
                  </g>
                </g>
              </g>
            </g>
          </g>
        </g>
      </g>
      <g id="Grupo_145119" data-name="Grupo 145119" transform="translate(7.797 -0.001)">
        <path id="Trazado_208360" data-name="Trazado 208360" d="M103.671,71.575c-1.865-2.741-5.03-3.411-8.467-1.793l-1.822.8a30.125,30.125,0,0,0,1.8-19.4c-1.642-7.4-5.609-14.578-11.791-21.321a1.465,1.465,0,1,0-2.159,1.98c5.829,6.359,9.561,13.08,11.09,19.976,1.611,7.264.674,14.756-3.438,20.742L70.652,80.591l.015-2.059a1.428,1.428,0,0,0-.007-.156,9.179,9.179,0,0,0-7.866-8.2l-.038,0-16.2-1.866c-6.231-.887-7.835-4.621-16.274-6.75a31.53,31.53,0,0,1,2.324-15.5c3.208-7.953,9.484-15.679,18.184-22.4,3.243,2.3,17.71,2.585,20.948-.381,1.659,1.26,3.242,2.558,4.716,3.872A1.465,1.465,0,1,0,78.4,24.961c-1.616-1.44-3.355-2.861-5.179-4.234a5.213,5.213,0,0,0-1.749-5.2c4.586-6.956,5.92-11.508,4.077-13.893A2.56,2.56,0,0,0,72.038,1.1,2.349,2.349,0,0,1,69.228,1a5.265,5.265,0,0,0-6.167,0A2.361,2.361,0,0,1,60.1,1a5.265,5.265,0,0,0-6.167,0,2.332,2.332,0,0,1-2.806.094,2.555,2.555,0,0,0-3.517.523c-1.8,2.318-.6,6.727,3.68,13.446a4.769,4.769,0,0,0-.745.5,9.889,9.889,0,0,0-8.517-3.219,10.733,10.733,0,0,1-7.286-1.723,1.465,1.465,0,0,0-1.631,2.433,13.639,13.639,0,0,0,9.243,2.2A7.157,7.157,0,0,1,48.9,18.11q-.027.094-.05.188A25.135,25.135,0,0,0,44.2,18.8c-4.44.924-7.736,3.034-9.531,6.1A1.465,1.465,0,1,0,37.2,26.386c2.671-4.564,9.19-5.122,11.779-5.157.011.032.024.064.036.1C39.774,28.452,33.342,36.4,29.887,44.965a34.762,34.762,0,0,0-2.613,15.991,30.477,30.477,0,0,0-4.253-.329v-.886a4.255,4.255,0,0,0-4.25-4.25H12.047a4.255,4.255,0,0,0-4.25,4.25v34.11a4.255,4.255,0,0,0,4.25,4.25h6.723a4.255,4.255,0,0,0,4.25-4.25v-.417l14.666,5.459A17.547,17.547,0,0,0,43.827,100H65.679A17.575,17.575,0,0,0,75.1,97.265c29.152-18.481,27.382-17.331,27.55-17.48a6.281,6.281,0,0,0,1.02-8.211ZM68.987,21.541a31.744,31.744,0,0,1-15.92,0c-2.3-.581-1.633-4.681.838-4.061a28.561,28.561,0,0,0,14.245,0C70.577,16.87,71.322,20.95,68.987,21.541ZM49.792,3.7l.034.017a5.2,5.2,0,0,0,5.713-.266c2.5-1.633,2.766.986,6.043.986a5.087,5.087,0,0,0,3.083-.986,2.362,2.362,0,0,1,2.96,0,5.224,5.224,0,0,0,5.738.262c.3,1.086-.381,4.325-4.724,10.791-2.157-.037-5.286,2.081-14.146.11-4.334-6.55-5-9.82-4.7-10.914Zm50.993,73.827L73.532,94.792a14.65,14.65,0,0,1-7.853,2.279H43.827a14.624,14.624,0,0,1-5.118-.922L23.021,90.31V74.537a1.464,1.464,0,1,0-2.929,0V93.853a1.323,1.323,0,0,1-1.321,1.321H12.047a1.323,1.323,0,0,1-1.321-1.321V59.742a1.322,1.322,0,0,1,1.321-1.321h6.723a1.322,1.322,0,0,1,1.321,1.321V67.69a1.464,1.464,0,1,0,2.929,0V63.557c12.115.093,14.84,6.479,23.14,7.653l.038,0L62.4,73.08a6.256,6.256,0,0,1,5.337,5.513l-.02,2.786H52.606a1.465,1.465,0,1,0,0,2.929H69.171a1.516,1.516,0,0,0,.585-.122L96.4,72.455c1.916-.852,3.663-.973,4.848.768A3.346,3.346,0,0,1,100.785,77.523Z" transform="translate(-7.797 0.001)"/>
        <path id="Trazado_208361" data-name="Trazado 208361" d="M248.168,191.443a1.465,1.465,0,0,0,1.465-1.465v-2.428a8.581,8.581,0,0,0,7.032-7.1,7.512,7.512,0,0,0-5.175-8.593c-.671-.237-1.288-.464-1.857-.683v-9.338a6.023,6.023,0,0,1,2.849,1.251,1.465,1.465,0,0,0,1.978-2.16,9.077,9.077,0,0,0-4.827-2.048V156.8a1.465,1.465,0,1,0-2.929,0V159a10.786,10.786,0,0,0-1.087.265,7.082,7.082,0,0,0-4.847,5.559,6.194,6.194,0,0,0,2.013,6.105,17.746,17.746,0,0,0,3.921,2.215v11.582a7.779,7.779,0,0,1-4.555-1.579,1.465,1.465,0,1,0-1.6,2.451,10.727,10.727,0,0,0,6.159,2.056v2.325A1.465,1.465,0,0,0,248.168,191.443Zm-3.577-22.82a3.3,3.3,0,0,1-.942-3.258,4.19,4.19,0,0,1,2.813-3.3c.081-.025.162-.046.242-.067v7.911A12.352,12.352,0,0,1,244.591,168.623Zm5.923,6a4.61,4.61,0,0,1,3.263,5.346,5.7,5.7,0,0,1-4.144,4.592V174.3c.285.1.576.21.881.317Z" transform="translate(-194.552 -124.993)"/>
      </g>
    </g>
  </g>
</svg>
