<?xml version="1.0" encoding="utf-8"?>
<!-- Generator: Adobe Illustrator 26.1.0, SVG Export Plug-In . SVG Version: 6.00 Build 0)  -->
<svg version="1.1" id="Capa_1" xmlns="http://www.w3.org/2000/svg" xmlns:xlink="http://www.w3.org/1999/xlink" x="0px" y="0px"
	 viewBox="0 0 1030.2 386.5" style="enable-background:new 0 0 1030.2 386.5;" xml:space="preserve">
<style type="text/css">
	.st0{enable-background:new    ;}
	.st1{fill:#12263F;}
	.st2{fill:#FF9500;}
	.st3{fill:#0CA4CA;}
	.st4{fill:#255065;}
	.st5{fill:#07637A;}
	.st6{fill:#FFFFFF;}
	.st7{fill:#152E3B;}
	.st8{fill:#7A4800;}
	.st9{opacity:0.95;}
	.st10{filter:url(#Elipse_180);}
	.st11{filter:url(#Elipse_180-2);}
	.st12{filter:url(#Elipse_180-3);}
</style>
<filter  filterUnits="userSpaceOnUse" height="60" id="Elipse_180-3" width="60" x="969" y="326.5">
	<feOffset  dy="3" input="SourceAlpha"></feOffset>
	<feGaussianBlur  result="blur-3" stdDeviation="3"></feGaussianBlur>
	<feFlood  flood-opacity="0.161"></feFlood>
	<feComposite  in2="blur-3" operator="in"></feComposite>
	<feComposite  in="SourceGraphic" operator="over"></feComposite>
</filter>
<filter  filterUnits="userSpaceOnUse" height="60" id="Elipse_180-2" width="60" x="579" y="326.5">
	<feOffset  dy="3" input="SourceAlpha"></feOffset>
	<feGaussianBlur  result="blur-2" stdDeviation="3"></feGaussianBlur>
	<feFlood  flood-opacity="0.161"></feFlood>
	<feComposite  in2="blur-2" operator="in"></feComposite>
	<feComposite  in="SourceGraphic" operator="over"></feComposite>
</filter>
<filter  filterUnits="userSpaceOnUse" height="60" id="Elipse_180" width="60" x="194.001" y="326.5">
	<feOffset  dy="3" input="SourceAlpha"></feOffset>
	<feGaussianBlur  result="blur" stdDeviation="3"></feGaussianBlur>
	<feFlood  flood-opacity="0.161"></feFlood>
	<feComposite  in2="blur" operator="in"></feComposite>
	<feComposite  in="SourceGraphic" operator="over"></feComposite>
</filter>
<g id="Grupo_145183" transform="translate(-285 -2391)">
	<g class="st0">
		<path class="st1" d="M646.4,2398.2h-4.4v11.8h-2.9v-11.8h-4.3v-2.4h11.6V2398.2z"/>
		<path class="st1" d="M647.9,2396.7c0-0.4,0.1-0.8,0.4-1s0.7-0.4,1.2-0.4c0.5,0,0.9,0.1,1.2,0.4s0.4,0.6,0.4,1
			c0,0.4-0.1,0.8-0.4,1.1s-0.7,0.4-1.1,0.4s-0.9-0.1-1.1-0.4S647.9,2397.1,647.9,2396.7z M650.9,2410H648v-10.6h2.8V2410z"/>
		<path class="st1" d="M662.7,2404.8c0,1.6-0.4,2.9-1.1,3.9s-1.7,1.5-3,1.5c-1.1,0-1.9-0.4-2.6-1.1v5h-2.8v-14.6h2.6l0.1,1
			c0.7-0.8,1.6-1.2,2.7-1.2c1.3,0,2.3,0.5,3,1.4s1.1,2.3,1.1,4V2404.8z M659.9,2404.6c0-1-0.2-1.7-0.5-2.3c-0.3-0.5-0.9-0.8-1.5-0.8
			c-0.9,0-1.5,0.3-1.8,1v4.3c0.3,0.7,1,1,1.8,1C659.2,2407.9,659.9,2406.8,659.9,2404.6z"/>
		<path class="st1" d="M664,2404.6c0-1,0.2-2,0.6-2.8s1-1.5,1.7-1.9s1.6-0.7,2.6-0.7c1.4,0,2.6,0.4,3.5,1.3s1.4,2.1,1.5,3.6l0,0.7
			c0,1.6-0.5,2.9-1.4,3.9s-2.1,1.5-3.6,1.5s-2.7-0.5-3.6-1.5s-1.4-2.3-1.4-4V2404.6z M666.8,2404.8c0,1,0.2,1.8,0.6,2.3
			s0.9,0.8,1.6,0.8c0.7,0,1.2-0.3,1.6-0.8c0.4-0.5,0.6-1.4,0.6-2.5c0-1-0.2-1.7-0.6-2.3s-0.9-0.8-1.6-0.8c-0.7,0-1.2,0.3-1.6,0.8
			S666.8,2403.7,666.8,2404.8z"/>
		<path class="st1" d="M681.5,2407.1c0-0.3-0.2-0.6-0.5-0.8s-0.9-0.4-1.6-0.5c-2.5-0.5-3.8-1.6-3.8-3.2c0-0.9,0.4-1.7,1.2-2.3
			s1.8-0.9,3.1-0.9c1.3,0,2.4,0.3,3.2,0.9s1.2,1.5,1.2,2.5h-2.8c0-0.4-0.1-0.7-0.4-1s-0.7-0.4-1.2-0.4c-0.5,0-0.8,0.1-1.1,0.3
			s-0.4,0.5-0.4,0.8c0,0.3,0.1,0.6,0.4,0.8s0.8,0.4,1.5,0.5s1.3,0.3,1.8,0.5c1.5,0.5,2.2,1.5,2.2,2.8c0,1-0.4,1.7-1.2,2.3
			s-1.9,0.9-3.2,0.9c-0.9,0-1.7-0.2-2.4-0.5s-1.2-0.7-1.6-1.3s-0.6-1.1-0.6-1.8h2.7c0,0.5,0.2,0.9,0.6,1.2s0.8,0.4,1.4,0.4
			c0.5,0,0.9-0.1,1.2-0.3S681.5,2407.4,681.5,2407.1z"/>
		<path class="st1" d="M690.6,2404.6c0-1.6,0.4-3,1.1-3.9s1.7-1.5,3-1.5c1,0,1.9,0.4,2.5,1.2v-5.4h2.8v15h-2.5l-0.1-1.1
			c-0.7,0.9-1.6,1.3-2.7,1.3c-1.2,0-2.2-0.5-3-1.5S690.6,2406.4,690.6,2404.6z M693.4,2404.8c0,1,0.2,1.8,0.5,2.3
			c0.3,0.5,0.8,0.8,1.5,0.8c0.9,0,1.5-0.4,1.8-1.1v-4.2c-0.4-0.7-1-1.1-1.8-1.1C694.1,2401.5,693.4,2402.6,693.4,2404.8z"/>
		<path class="st1" d="M707.2,2410.2c-1.5,0-2.8-0.5-3.8-1.4s-1.5-2.2-1.5-3.8v-0.3c0-1.1,0.2-2,0.6-2.8s1-1.5,1.7-1.9
			s1.6-0.7,2.6-0.7c1.4,0,2.6,0.5,3.4,1.4s1.2,2.2,1.2,3.9v1.2h-6.7c0.1,0.7,0.4,1.2,0.8,1.7s1,0.6,1.7,0.6c1.1,0,1.9-0.4,2.5-1.2
			l1.4,1.6c-0.4,0.6-1,1.1-1.7,1.4S708,2410.2,707.2,2410.2z M706.8,2401.5c-0.6,0-1,0.2-1.4,0.6c-0.3,0.4-0.6,0.9-0.7,1.6h3.9v-0.2
			c0-0.6-0.2-1.1-0.5-1.5C707.9,2401.7,707.4,2401.5,706.8,2401.5z"/>
		<path class="st1" d="M720.7,2399.4l0.1,1.2c0.7-0.9,1.8-1.4,3-1.4c1.4,0,2.3,0.5,2.8,1.6c0.7-1.1,1.8-1.6,3.2-1.6
			c1.1,0,2,0.3,2.6,1s0.8,1.7,0.8,3v6.7h-2.8v-6.8c0-0.6-0.1-1-0.4-1.3s-0.6-0.4-1.2-0.4c-0.8,0-1.4,0.4-1.8,1.2l0,7.3h-2.8v-6.7
			c0-0.6-0.1-1.1-0.4-1.3s-0.7-0.4-1.2-0.4c-0.8,0-1.4,0.3-1.7,1v7.5h-2.8v-10.6H720.7z"/>
		<path class="st1" d="M741.5,2410c-0.1-0.3-0.2-0.6-0.3-0.9c-0.7,0.8-1.6,1.1-2.7,1.1c-1,0-1.9-0.3-2.6-0.9s-1-1.4-1-2.3
			c0-1.1,0.4-2,1.2-2.6s2-0.9,3.6-0.9h1.3v-0.6c0-0.5-0.1-0.9-0.4-1.2s-0.6-0.4-1.2-0.4c-0.5,0-0.8,0.1-1.1,0.3s-0.4,0.5-0.4,0.9
			h-2.8c0-0.6,0.2-1.2,0.6-1.7s0.9-0.9,1.6-1.2s1.5-0.4,2.3-0.4c1.3,0,2.3,0.3,3.1,1s1.1,1.6,1.1,2.8v4.6c0,1,0.1,1.8,0.4,2.3v0.2
			H741.5z M739.2,2408c0.4,0,0.8-0.1,1.2-0.3s0.6-0.4,0.8-0.7v-1.8h-1.1c-1.4,0-2.2,0.5-2.3,1.5l0,0.2c0,0.4,0.1,0.6,0.4,0.9
			S738.8,2408,739.2,2408z"/>
		<path class="st1" d="M749.5,2396.8v2.6h1.8v2.1h-1.8v5.3c0,0.4,0.1,0.7,0.2,0.8s0.4,0.3,0.9,0.3c0.3,0,0.6,0,0.8-0.1v2.1
			c-0.6,0.2-1.1,0.3-1.7,0.3c-2,0-3-1-3-3v-5.7h-1.5v-2.1h1.5v-2.6H749.5z"/>
		<path class="st1" d="M757.7,2410.2c-1.5,0-2.8-0.5-3.8-1.4s-1.5-2.2-1.5-3.8v-0.3c0-1.1,0.2-2,0.6-2.8s1-1.5,1.7-1.9
			s1.6-0.7,2.6-0.7c1.4,0,2.6,0.5,3.4,1.4s1.2,2.2,1.2,3.9v1.2h-6.7c0.1,0.7,0.4,1.2,0.8,1.7s1,0.6,1.7,0.6c1.1,0,1.9-0.4,2.5-1.2
			l1.4,1.6c-0.4,0.6-1,1.1-1.7,1.4S758.6,2410.2,757.7,2410.2z M757.4,2401.5c-0.6,0-1,0.2-1.4,0.6c-0.3,0.4-0.6,0.9-0.7,1.6h3.9
			v-0.2c0-0.6-0.2-1.1-0.5-1.5C758.5,2401.7,758,2401.5,757.4,2401.5z"/>
		<path class="st1" d="M769.6,2402.1c-0.4-0.1-0.7-0.1-1-0.1c-1.1,0-1.8,0.4-2.1,1.1v6.9h-2.8v-10.6h2.7l0.1,1.3
			c0.6-1,1.4-1.5,2.4-1.5c0.3,0,0.6,0,0.9,0.1L769.6,2402.1z"/>
		<path class="st1" d="M771,2396.7c0-0.4,0.1-0.8,0.4-1s0.7-0.4,1.2-0.4c0.5,0,0.9,0.1,1.2,0.4s0.4,0.6,0.4,1c0,0.4-0.1,0.8-0.4,1.1
			s-0.7,0.4-1.1,0.4s-0.9-0.1-1.1-0.4S771,2397.1,771,2396.7z M774,2410h-2.8v-10.6h2.8V2410z"/>
		<path class="st1" d="M782.4,2410c-0.1-0.3-0.2-0.6-0.3-0.9c-0.7,0.8-1.6,1.1-2.7,1.1c-1,0-1.9-0.3-2.6-0.9s-1-1.4-1-2.3
			c0-1.1,0.4-2,1.2-2.6s2-0.9,3.6-0.9h1.3v-0.6c0-0.5-0.1-0.9-0.4-1.2s-0.6-0.4-1.2-0.4c-0.5,0-0.8,0.1-1.1,0.3s-0.4,0.5-0.4,0.9
			h-2.8c0-0.6,0.2-1.2,0.6-1.7s0.9-0.9,1.6-1.2s1.5-0.4,2.3-0.4c1.3,0,2.3,0.3,3.1,1s1.1,1.6,1.1,2.8v4.6c0,1,0.1,1.8,0.4,2.3v0.2
			H782.4z M780.1,2408c0.4,0,0.8-0.1,1.2-0.3s0.6-0.4,0.8-0.7v-1.8H781c-1.4,0-2.2,0.5-2.3,1.5l0,0.2c0,0.4,0.1,0.6,0.4,0.9
			S779.7,2408,780.1,2408z"/>
		<path class="st1" d="M790,2410h-2.8v-15h2.8V2410z"/>
		<path class="st1" d="M797.2,2410.2c-1.5,0-2.8-0.5-3.8-1.4s-1.5-2.2-1.5-3.8v-0.3c0-1.1,0.2-2,0.6-2.8s1-1.5,1.7-1.9
			s1.6-0.7,2.6-0.7c1.4,0,2.6,0.5,3.4,1.4s1.2,2.2,1.2,3.9v1.2h-6.7c0.1,0.7,0.4,1.2,0.8,1.7s1,0.6,1.7,0.6c1.1,0,1.9-0.4,2.5-1.2
			l1.4,1.6c-0.4,0.6-1,1.1-1.7,1.4S798.1,2410.2,797.2,2410.2z M796.9,2401.5c-0.6,0-1,0.2-1.4,0.6c-0.3,0.4-0.6,0.9-0.7,1.6h3.9
			v-0.2c0-0.6-0.2-1.1-0.5-1.5C797.9,2401.7,797.5,2401.5,796.9,2401.5z"/>
		<path class="st1" d="M808.9,2407.1c0-0.3-0.2-0.6-0.5-0.8s-0.9-0.4-1.6-0.5c-2.5-0.5-3.8-1.6-3.8-3.2c0-0.9,0.4-1.7,1.2-2.3
			c0.8-0.6,1.8-0.9,3.1-0.9c1.3,0,2.4,0.3,3.2,0.9c0.8,0.6,1.2,1.5,1.2,2.5h-2.8c0-0.4-0.1-0.7-0.4-1c-0.3-0.3-0.7-0.4-1.2-0.4
			c-0.5,0-0.8,0.1-1.1,0.3c-0.3,0.2-0.4,0.5-0.4,0.8c0,0.3,0.1,0.6,0.4,0.8c0.3,0.2,0.8,0.4,1.5,0.5s1.3,0.3,1.8,0.5
			c1.5,0.5,2.2,1.5,2.2,2.8c0,1-0.4,1.7-1.2,2.3c-0.8,0.6-1.9,0.9-3.2,0.9c-0.9,0-1.7-0.2-2.4-0.5c-0.7-0.3-1.2-0.7-1.6-1.3
			s-0.6-1.1-0.6-1.8h2.7c0,0.5,0.2,0.9,0.6,1.2c0.3,0.3,0.8,0.4,1.4,0.4c0.5,0,0.9-0.1,1.2-0.3
			C808.7,2407.7,808.9,2407.4,808.9,2407.1z"/>
		<path class="st1" d="M822.3,2406l2-6.6h3l-4.2,12.2l-0.2,0.6c-0.6,1.4-1.7,2.1-3.1,2.1c-0.4,0-0.8-0.1-1.2-0.2v-2.1l0.4,0
			c0.5,0,0.9-0.1,1.2-0.2s0.5-0.4,0.6-0.8l0.3-0.9l-3.7-10.6h3L822.3,2406z"/>
		<path class="st1" d="M837.8,2407.9c0.5,0,0.9-0.1,1.3-0.4c0.3-0.3,0.5-0.7,0.5-1.1h2.6c0,0.7-0.2,1.4-0.6,2
			c-0.4,0.6-0.9,1.1-1.6,1.4c-0.7,0.3-1.4,0.5-2.2,0.5c-1.5,0-2.7-0.5-3.6-1.4c-0.9-1-1.3-2.3-1.3-4v-0.2c0-1.6,0.4-2.9,1.3-3.9
			c0.9-1,2.1-1.5,3.6-1.5c1.3,0,2.4,0.4,3.2,1.1c0.8,0.8,1.2,1.8,1.2,3h-2.6c0-0.5-0.2-1-0.5-1.3c-0.3-0.3-0.8-0.5-1.3-0.5
			c-0.7,0-1.2,0.2-1.5,0.7c-0.3,0.5-0.5,1.3-0.5,2.3v0.3c0,1.1,0.2,1.9,0.5,2.3S837.1,2407.9,837.8,2407.9z"/>
		<path class="st1" d="M850,2410c-0.1-0.3-0.2-0.6-0.3-0.9c-0.7,0.8-1.6,1.1-2.7,1.1c-1,0-1.9-0.3-2.6-0.9c-0.7-0.6-1-1.4-1-2.3
			c0-1.1,0.4-2,1.2-2.6s2-0.9,3.6-0.9h1.3v-0.6c0-0.5-0.1-0.9-0.4-1.2c-0.3-0.3-0.6-0.4-1.2-0.4c-0.5,0-0.8,0.1-1.1,0.3
			c-0.3,0.2-0.4,0.5-0.4,0.9h-2.8c0-0.6,0.2-1.2,0.6-1.7c0.4-0.5,0.9-0.9,1.6-1.2c0.7-0.3,1.5-0.4,2.3-0.4c1.3,0,2.3,0.3,3.1,1
			c0.8,0.7,1.1,1.6,1.1,2.8v4.6c0,1,0.1,1.8,0.4,2.3v0.2H850z M847.6,2408c0.4,0,0.8-0.1,1.2-0.3s0.6-0.4,0.8-0.7v-1.8h-1.1
			c-1.4,0-2.2,0.5-2.3,1.5l0,0.2c0,0.4,0.1,0.6,0.4,0.9C846.9,2407.9,847.2,2408,847.6,2408z"/>
		<path class="st1" d="M860.5,2402.1c-0.4-0.1-0.7-0.1-1-0.1c-1.1,0-1.8,0.4-2.1,1.1v6.9h-2.8v-10.6h2.7l0.1,1.3
			c0.6-1,1.4-1.5,2.4-1.5c0.3,0,0.6,0,0.9,0.1L860.5,2402.1z"/>
		<path class="st1" d="M867.7,2410c-0.1-0.3-0.2-0.6-0.3-0.9c-0.7,0.8-1.6,1.1-2.7,1.1c-1,0-1.9-0.3-2.6-0.9c-0.7-0.6-1-1.4-1-2.3
			c0-1.1,0.4-2,1.2-2.6s2-0.9,3.6-0.9h1.3v-0.6c0-0.5-0.1-0.9-0.4-1.2c-0.3-0.3-0.6-0.4-1.2-0.4c-0.5,0-0.8,0.1-1.1,0.3
			c-0.3,0.2-0.4,0.5-0.4,0.9h-2.8c0-0.6,0.2-1.2,0.6-1.7c0.4-0.5,0.9-0.9,1.6-1.2c0.7-0.3,1.5-0.4,2.3-0.4c1.3,0,2.3,0.3,3.1,1
			c0.8,0.7,1.1,1.6,1.1,2.8v4.6c0,1,0.1,1.8,0.4,2.3v0.2H867.7z M865.4,2408c0.4,0,0.8-0.1,1.2-0.3s0.6-0.4,0.8-0.7v-1.8h-1.1
			c-1.4,0-2.2,0.5-2.3,1.5l0,0.2c0,0.4,0.1,0.6,0.4,0.9C864.6,2407.9,864.9,2408,865.4,2408z"/>
		<path class="st1" d="M876.7,2407.9c0.5,0,0.9-0.1,1.3-0.4c0.3-0.3,0.5-0.7,0.5-1.1h2.6c0,0.7-0.2,1.4-0.6,2
			c-0.4,0.6-0.9,1.1-1.6,1.4c-0.7,0.3-1.4,0.5-2.2,0.5c-1.5,0-2.7-0.5-3.6-1.4c-0.9-1-1.3-2.3-1.3-4v-0.2c0-1.6,0.4-2.9,1.3-3.9
			c0.9-1,2.1-1.5,3.6-1.5c1.3,0,2.4,0.4,3.2,1.1c0.8,0.8,1.2,1.8,1.2,3h-2.6c0-0.5-0.2-1-0.5-1.3c-0.3-0.3-0.8-0.5-1.3-0.5
			c-0.7,0-1.2,0.2-1.5,0.7c-0.3,0.5-0.5,1.3-0.5,2.3v0.3c0,1.1,0.2,1.9,0.5,2.3S876,2407.9,876.7,2407.9z"/>
		<path class="st1" d="M886.1,2396.8v2.6h1.8v2.1h-1.8v5.3c0,0.4,0.1,0.7,0.2,0.8c0.1,0.2,0.4,0.3,0.9,0.3c0.3,0,0.6,0,0.8-0.1v2.1
			c-0.6,0.2-1.1,0.3-1.7,0.3c-2,0-3-1-3-3v-5.7h-1.5v-2.1h1.5v-2.6H886.1z"/>
		<path class="st1" d="M894.3,2410.2c-1.5,0-2.8-0.5-3.8-1.4c-1-1-1.5-2.2-1.5-3.8v-0.3c0-1.1,0.2-2,0.6-2.8s1-1.5,1.7-1.9
			s1.6-0.7,2.6-0.7c1.4,0,2.6,0.5,3.4,1.4s1.2,2.2,1.2,3.9v1.2H892c0.1,0.7,0.4,1.2,0.8,1.7s1,0.6,1.7,0.6c1.1,0,1.9-0.4,2.5-1.2
			l1.4,1.6c-0.4,0.6-1,1.1-1.7,1.4S895.2,2410.2,894.3,2410.2z M894,2401.5c-0.6,0-1,0.2-1.4,0.6c-0.3,0.4-0.6,0.9-0.7,1.6h3.9v-0.2
			c0-0.6-0.2-1.1-0.5-1.5C895.1,2401.7,894.6,2401.5,894,2401.5z"/>
		<path class="st1" d="M906.2,2402.1c-0.4-0.1-0.7-0.1-1-0.1c-1.1,0-1.8,0.4-2.1,1.1v6.9h-2.8v-10.6h2.7l0.1,1.3
			c0.6-1,1.4-1.5,2.4-1.5c0.3,0,0.6,0,0.9,0.1L906.2,2402.1z"/>
		<path class="st1" d="M910.6,2410h-2.8v-10.6h2.8V2410z M909.8,2395.1h3.1l-2.7,3h-2.3L909.8,2395.1z"/>
		<path class="st1" d="M918.8,2407.1c0-0.3-0.2-0.6-0.5-0.8s-0.9-0.4-1.6-0.5c-2.5-0.5-3.8-1.6-3.8-3.2c0-0.9,0.4-1.7,1.2-2.3
			c0.8-0.6,1.8-0.9,3.1-0.9c1.3,0,2.4,0.3,3.2,0.9c0.8,0.6,1.2,1.5,1.2,2.5h-2.8c0-0.4-0.1-0.7-0.4-1c-0.3-0.3-0.7-0.4-1.2-0.4
			c-0.5,0-0.8,0.1-1.1,0.3c-0.3,0.2-0.4,0.5-0.4,0.8c0,0.3,0.1,0.6,0.4,0.8c0.3,0.2,0.8,0.4,1.5,0.5s1.3,0.3,1.8,0.5
			c1.5,0.5,2.2,1.5,2.2,2.8c0,1-0.4,1.7-1.2,2.3c-0.8,0.6-1.9,0.9-3.2,0.9c-0.9,0-1.7-0.2-2.4-0.5c-0.7-0.3-1.2-0.7-1.6-1.3
			s-0.6-1.1-0.6-1.8h2.7c0,0.5,0.2,0.9,0.6,1.2c0.3,0.3,0.8,0.4,1.4,0.4c0.5,0,0.9-0.1,1.2-0.3
			C918.6,2407.7,918.8,2407.4,918.8,2407.1z"/>
		<path class="st1" d="M926.7,2396.8v2.6h1.8v2.1h-1.8v5.3c0,0.4,0.1,0.7,0.2,0.8c0.1,0.2,0.4,0.3,0.9,0.3c0.3,0,0.6,0,0.8-0.1v2.1
			c-0.6,0.2-1.1,0.3-1.7,0.3c-2,0-3-1-3-3v-5.7h-1.5v-2.1h1.5v-2.6H926.7z"/>
		<path class="st1" d="M930.1,2396.7c0-0.4,0.1-0.8,0.4-1s0.7-0.4,1.2-0.4c0.5,0,0.9,0.1,1.2,0.4c0.3,0.3,0.4,0.6,0.4,1
			c0,0.4-0.1,0.8-0.4,1.1c-0.3,0.3-0.7,0.4-1.1,0.4c-0.5,0-0.9-0.1-1.1-0.4C930.2,2397.5,930.1,2397.1,930.1,2396.7z M933.1,2410
			h-2.8v-10.6h2.8V2410z"/>
		<path class="st1" d="M939.8,2407.9c0.5,0,0.9-0.1,1.3-0.4c0.3-0.3,0.5-0.7,0.5-1.1h2.6c0,0.7-0.2,1.4-0.6,2
			c-0.4,0.6-0.9,1.1-1.6,1.4c-0.7,0.3-1.4,0.5-2.2,0.5c-1.5,0-2.7-0.5-3.6-1.4c-0.9-1-1.3-2.3-1.3-4v-0.2c0-1.6,0.4-2.9,1.3-3.9
			c0.9-1,2.1-1.5,3.6-1.5c1.3,0,2.4,0.4,3.2,1.1c0.8,0.8,1.2,1.8,1.2,3h-2.6c0-0.5-0.2-1-0.5-1.3c-0.3-0.3-0.8-0.5-1.3-0.5
			c-0.7,0-1.2,0.2-1.5,0.7c-0.3,0.5-0.5,1.3-0.5,2.3v0.3c0,1.1,0.2,1.9,0.5,2.3S939.1,2407.9,939.8,2407.9z"/>
		<path class="st1" d="M952,2410c-0.1-0.3-0.2-0.6-0.3-0.9c-0.7,0.8-1.6,1.1-2.7,1.1c-1,0-1.9-0.3-2.6-0.9c-0.7-0.6-1-1.4-1-2.3
			c0-1.1,0.4-2,1.2-2.6s2-0.9,3.6-0.9h1.3v-0.6c0-0.5-0.1-0.9-0.4-1.2c-0.3-0.3-0.6-0.4-1.2-0.4c-0.5,0-0.8,0.1-1.1,0.3
			c-0.3,0.2-0.4,0.5-0.4,0.9h-2.8c0-0.6,0.2-1.2,0.6-1.7c0.4-0.5,0.9-0.9,1.6-1.2c0.7-0.3,1.5-0.4,2.3-0.4c1.3,0,2.3,0.3,3.1,1
			c0.8,0.7,1.1,1.6,1.1,2.8v4.6c0,1,0.1,1.8,0.4,2.3v0.2H952z M949.6,2408c0.4,0,0.8-0.1,1.2-0.3s0.6-0.4,0.8-0.7v-1.8h-1.1
			c-1.4,0-2.2,0.5-2.3,1.5l0,0.2c0,0.4,0.1,0.6,0.4,0.9C948.9,2407.9,949.2,2408,949.6,2408z"/>
		<path class="st1" d="M962.3,2407.1c0-0.3-0.2-0.6-0.5-0.8s-0.9-0.4-1.6-0.5c-2.5-0.5-3.8-1.6-3.8-3.2c0-0.9,0.4-1.7,1.2-2.3
			c0.8-0.6,1.8-0.9,3.1-0.9c1.3,0,2.4,0.3,3.2,0.9c0.8,0.6,1.2,1.5,1.2,2.5h-2.8c0-0.4-0.1-0.7-0.4-1c-0.3-0.3-0.7-0.4-1.2-0.4
			c-0.5,0-0.8,0.1-1.1,0.3c-0.3,0.2-0.4,0.5-0.4,0.8c0,0.3,0.1,0.6,0.4,0.8c0.3,0.2,0.8,0.4,1.5,0.5s1.3,0.3,1.8,0.5
			c1.5,0.5,2.2,1.5,2.2,2.8c0,1-0.4,1.7-1.2,2.3c-0.8,0.6-1.9,0.9-3.2,0.9c-0.9,0-1.7-0.2-2.4-0.5c-0.7-0.3-1.2-0.7-1.6-1.3
			s-0.6-1.1-0.6-1.8h2.7c0,0.5,0.2,0.9,0.6,1.2c0.3,0.3,0.8,0.4,1.4,0.4c0.5,0,0.9-0.1,1.2-0.3
			C962.1,2407.7,962.3,2407.4,962.3,2407.1z"/>
	</g>
	<path id="Trazado_208418" class="st2" d="M1152.2,2575.4h-105c-7.9,0-14.3-6.4-14.3-14.3s6.4-14.3,14.3-14.3h105
		c7.9,0,14.3,6.4,14.3,14.3S1160,2575.4,1152.2,2575.4"/>
	<path id="Trazado_208419" class="st2" d="M1097.4,2536.8h-105c-7.9,0-14.3-6.4-14.3-14.3c0-7.9,6.4-14.3,14.3-14.3c0,0,0,0,0,0h105
		c7.9,0,14.3,6.4,14.3,14.3C1111.7,2530.4,1105.3,2536.8,1097.4,2536.8"/>
	<path id="Trazado_208420" class="st2" d="M1097.4,2614h-105c-7.9,0-14.3-6.4-14.3-14.3s6.4-14.3,14.3-14.3c0,0,0,0,0,0h105
		c7.9,0,14.3,6.4,14.3,14.3C1111.7,2607.6,1105.3,2614,1097.4,2614L1097.4,2614"/>
	<path id="Trazado_208421" class="st2" d="M1315,2561.1c0,69.6-56.5,126.1-126.1,126.1c-69.6,0-126.1-56.5-126.1-126.1
		c0-69.6,56.5-126.1,126.1-126.1c0,0,0,0,0,0C1258.5,2435,1315,2491.5,1315,2561.1"/>
	<path id="Trazado_208422" class="st3" d="M537.2,2561.1c0,69.6-56.5,126.1-126.1,126.1S285,2630.7,285,2561.1
		c0-69.6,56.5-126.1,126.1-126.1c0,0,0,0,0,0C480.7,2435,537.2,2491.5,537.2,2561.1L537.2,2561.1"/>
	<path id="Trazado_208423" class="st3" d="M620.7,2575.4h-105c-7.9,0-14.3-6.4-14.3-14.3s6.4-14.3,14.3-14.3h105
		c7.9,0,14.3,6.4,14.3,14.3S628.5,2575.4,620.7,2575.4"/>
	<path id="Trazado_208446" class="st3" d="M510.3,2771.9H311.9c-14.9,0-26.9-12-26.9-26.9c0-14.9,12-26.9,26.9-26.9c0,0,0,0,0,0
		h198.3c14.9,0,26.9,12.1,26.9,26.9C537.2,2759.8,525.1,2771.9,510.3,2771.9"/>
	<path id="Trazado_208447" class="st4" d="M899.3,2771.9H700.9c-14.9,0-26.9-12-26.9-26.9c0-14.9,12-26.9,26.9-26.9c0,0,0,0,0,0
		h198.3c14.9,0,26.9,12.1,26.9,26.9C926.2,2759.8,914.1,2771.9,899.3,2771.9"/>
	<path id="Trazado_208448" class="st2" d="M1288.3,2771.9h-198.3c-14.9,0-26.9-12-26.9-26.9c0-14.9,12-26.9,26.9-26.9c0,0,0,0,0,0
		h198.3c14.9,0,26.9,12.1,26.9,26.9C1315.2,2759.8,1303.1,2771.9,1288.3,2771.9"/>
	<path id="Trazado_208424" class="st3" d="M565.9,2536.8h-105c-7.9,0-14.3-6.4-14.3-14.3c0-7.9,6.4-14.3,14.3-14.3c0,0,0,0,0,0h105
		c7.9,0,14.3,6.4,14.3,14.3C580.2,2530.4,573.8,2536.8,565.9,2536.8"/>
	<path id="Trazado_208425" class="st3" d="M565.9,2614h-105c-7.9,0-14.3-6.4-14.3-14.3s6.4-14.3,14.3-14.3c0,0,0,0,0,0h105
		c7.9,0,14.3,6.4,14.3,14.3C580.2,2607.6,573.8,2614,565.9,2614L565.9,2614"/>
	<path id="Trazado_208426" class="st4" d="M1009.6,2575.4h-105c-7.9,0-14.3-6.4-14.3-14.3s6.4-14.3,14.3-14.3h105
		c7.9,0,14.3,6.4,14.3,14.3S1017.5,2575.4,1009.6,2575.4"/>
	<path id="Trazado_208427" class="st4" d="M763.3,2575.4h-105c-7.9,0-14.3-6.4-14.3-14.3s6.4-14.3,14.3-14.3h105
		c7.9,0,14.3,6.4,14.3,14.3S771.1,2575.4,763.3,2575.4"/>
	<path id="Trazado_208428" class="st4" d="M708.5,2536.8h-105c-7.9,0-14.3-6.4-14.3-14.3c0-7.9,6.4-14.3,14.3-14.3h105
		c7.9,0,14.3,6.4,14.3,14.3C722.8,2530.4,716.4,2536.8,708.5,2536.8"/>
	<path id="Trazado_208429" class="st4" d="M708.5,2614h-105c-7.9,0-14.3-6.4-14.3-14.3c0-7.9,6.4-14.2,14.3-14.3h105
		c7.9,0,14.3,6.4,14.3,14.3C722.8,2607.6,716.4,2614,708.5,2614"/>
	<path id="Trazado_208430" class="st4" d="M926.1,2561.1c0,69.6-56.5,126.1-126.1,126.1s-126.1-56.5-126.1-126.1
		c0-69.6,56.5-126.1,126.1-126.1c0,0,0,0,0,0C869.6,2435,926.1,2491.5,926.1,2561.1L926.1,2561.1"/>
	<path id="Trazado_208431" class="st4" d="M954.8,2536.8h-105c-7.9,0-14.3-6.4-14.3-14.3c0-7.9,6.4-14.3,14.3-14.3h105
		c7.9,0,14.3,6.4,14.3,14.3C969.1,2530.4,962.7,2536.8,954.8,2536.8"/>
	<path id="Trazado_208432" class="st4" d="M954.8,2614h-105c-7.9,0-14.3-6.4-14.3-14.3c0-7.9,6.4-14.2,14.3-14.3h105
		c7.9,0,14.3,6.4,14.3,14.3C969.1,2607.6,962.7,2614,954.8,2614"/>
	<path id="Trazado_208433" class="st5" d="M411.1,2664.5c-57.1,0-103.4-46.3-103.4-103.4c0-57.1,46.3-103.4,103.4-103.4
		c57.1,0,103.4,46.3,103.4,103.4C514.5,2618.2,468.2,2664.5,411.1,2664.5"/>
	<path id="Trazado_208434" class="st6" d="M410.9,2660.8c-55.2,0-99.9-44.7-99.9-99.9s44.7-99.9,99.9-99.9s99.9,44.7,99.9,99.9
		c0,0,0,0,0,0C510.7,2616.1,466.1,2660.7,410.9,2660.8"/>
	<path id="Trazado_208435" class="st7" d="M800,2664.5c-57.1,0-103.4-46.3-103.4-103.4c0-57.1,46.3-103.4,103.4-103.4
		c57.1,0,103.4,46.3,103.4,103.4C903.4,2618.2,857.1,2664.5,800,2664.5"/>
	<path id="Trazado_208436" class="st6" d="M799.9,2660.8c-55.2,0-99.9-44.7-99.9-99.9s44.7-99.9,99.9-99.9
		c55.2,0,99.9,44.7,99.9,99.9c0,0,0,0,0,0C899.7,2616.1,855,2660.7,799.9,2660.8"/>
	<path id="Trazado_208437" class="st8" d="M1188.9,2664.5c-57.1,0-103.4-46.3-103.4-103.4c0-57.1,46.3-103.4,103.4-103.4
		c57.1,0,103.4,46.3,103.4,103.4C1292.3,2618.2,1246,2664.5,1188.9,2664.5"/>
	<path id="Trazado_208438" class="st6" d="M1188.9,2660.8c-55.2,0-99.9-44.7-99.9-99.9c0-55.2,44.7-99.9,99.9-99.9
		s99.9,44.7,99.9,99.9c0,0,0,0,0,0C1288.7,2616.1,1244.1,2660.7,1188.9,2660.8"/>
	<path id="Trazado_208479" class="st1" d="M378.4,2747.2v5.8h-4.1v-17.1h6.8c1.2,0,2.4,0.2,3.5,0.7c1,0.4,1.8,1.2,2.3,2.1
		c0.6,0.9,0.8,2,0.8,3c0.1,1.5-0.6,3-1.8,4c-1.4,1.1-3.1,1.6-4.9,1.5H378.4z M378.4,2744h2.7c0.7,0,1.3-0.2,1.8-0.6
		c0.4-0.4,0.7-1.1,0.6-1.7c0-0.7-0.2-1.4-0.6-1.9c-0.5-0.5-1.1-0.8-1.8-0.7h-2.7L378.4,2744z M393.9,2753h-4v-18h4L393.9,2753z
		 M403.4,2753c-0.2-0.4-0.3-0.7-0.4-1.1c-0.7,0.9-1.9,1.4-3,1.4c-1.1,0-2.2-0.4-3-1.1c-0.8-0.7-1.3-1.7-1.3-2.7
		c-0.1-1.2,0.5-2.4,1.5-3.1c1.3-0.8,2.9-1.2,4.4-1.1h1.2v-0.7c0-1.2-0.5-1.8-1.5-1.8c-0.7-0.1-1.3,0.4-1.4,1c0,0.1,0,0.2,0,0.3H396
		c0-1.2,0.6-2.3,1.6-3c1.2-0.8,2.6-1.2,4-1.1c1.4-0.1,2.7,0.3,3.8,1.2c0.9,0.8,1.5,2,1.4,3.2v5.6c0,0.9,0.1,1.8,0.5,2.7v0.2H403.4z
		 M401,2750.4c0.4,0,0.9-0.1,1.2-0.3c0.3-0.2,0.5-0.4,0.7-0.7v-2h-1.1c-1.4,0-2.1,0.6-2.1,1.9c0,0.3,0.1,0.6,0.4,0.9
		C400.3,2750.3,400.6,2750.4,401,2750.4L401,2750.4z M401.9,2735h4.2l-3.3,3.7l-3.2,0L401.9,2735z M415.7,2749.4
		c0-0.3-0.2-0.7-0.5-0.8c-0.6-0.3-1.3-0.5-2-0.6c-0.9-0.2-1.7-0.5-2.4-0.9c-0.6-0.3-1.1-0.8-1.5-1.3c-0.3-0.5-0.5-1.1-0.5-1.7
		c0-1.1,0.5-2.2,1.4-2.9c1.1-0.8,2.4-1.2,3.8-1.1c1.4-0.1,2.8,0.3,4,1.1c1,0.7,1.5,1.8,1.5,3h-4c0-1-0.5-1.5-1.6-1.5
		c-0.4,0-0.7,0.1-1,0.3c-0.3,0.2-0.4,0.5-0.4,0.9c0,0.4,0.2,0.7,0.5,0.9c0.5,0.3,1.1,0.5,1.6,0.5c0.7,0.1,1.3,0.3,2,0.5
		c1.9,0.7,2.9,1.8,2.9,3.5c0,1.1-0.6,2.2-1.5,2.8c-1.2,0.8-2.6,1.2-4,1.1c-1,0-2-0.2-2.9-0.6c-0.8-0.3-1.5-0.9-2-1.6
		c-0.5-0.6-0.7-1.4-0.7-2.1h3.7c0,0.5,0.2,1,0.6,1.3c0.4,0.3,0.9,0.4,1.4,0.4c0.4,0,0.9-0.1,1.2-0.3
		C415.5,2750.1,415.7,2749.8,415.7,2749.4z M425.9,2737.2v3.2h2.1v2.7h-2.1v5.8c0,0.4,0.1,0.7,0.3,1c0.3,0.2,0.7,0.3,1,0.3
		c0.3,0,0.7,0,1-0.1v2.8c-0.7,0.2-1.5,0.3-2.2,0.3c-1.1,0.1-2.2-0.3-3-1c-0.7-0.8-1.1-1.9-1-2.9v-6.3h-1.6v-2.7h1.6v-3.2H425.9z
		 M433.7,2753h-4v-12.7h4L433.7,2753z M429.5,2737.1c0-0.5,0.2-1,0.6-1.4c0.4-0.4,1-0.6,1.6-0.5c0.6,0,1.1,0.2,1.6,0.5
		c0.4,0.3,0.6,0.9,0.6,1.4c0,0.5-0.2,1-0.6,1.4c-0.4,0.4-1,0.6-1.6,0.5c-0.6,0-1.1-0.2-1.6-0.5
		C429.7,2738.1,429.5,2737.6,429.5,2737.1L429.5,2737.1z M441.5,2750.2c0.5,0,0.9-0.1,1.3-0.5c0.3-0.3,0.5-0.8,0.4-1.3h3.7
		c0,1.3-0.5,2.6-1.5,3.4c-1.1,0.9-2.4,1.4-3.9,1.3c-1.6,0.1-3.2-0.5-4.4-1.7c-1.1-1.3-1.7-3.1-1.6-4.8v-0.2c0-1.2,0.2-2.3,0.7-3.4
		c0.4-0.9,1.2-1.7,2-2.3c1-0.5,2.1-0.8,3.2-0.8c1.4-0.1,2.8,0.4,3.9,1.4c1,1,1.5,2.3,1.5,3.7h-3.7c0-0.5-0.1-1.1-0.5-1.5
		c-0.3-0.4-0.8-0.5-1.3-0.5c-1,0-1.6,0.7-1.8,2c-0.1,0.6-0.1,1.1-0.1,1.7c-0.1,0.9,0.1,1.8,0.5,2.6
		C440.4,2749.9,440.9,2750.2,441.5,2750.2z M448.1,2746.5c0-1.2,0.2-2.3,0.7-3.4c0.5-1,1.2-1.8,2.1-2.3c1-0.6,2.1-0.8,3.2-0.8
		c1.7-0.1,3.3,0.6,4.5,1.8c1.1,1.3,1.7,3,1.6,4.8v0.1c0.1,1.7-0.5,3.4-1.6,4.7c-1.2,1.2-2.8,1.8-4.5,1.7c-1.6,0.1-3.2-0.5-4.3-1.6
		c-1.1-1.2-1.8-2.8-1.8-4.4L448.1,2746.5z M452.1,2746.8c-0.1,0.9,0.1,1.8,0.6,2.6c0.4,0.5,1,0.9,1.6,0.8c1.4,0,2.1-1.1,2.2-3.2
		v-0.4c0-2.3-0.7-3.4-2.2-3.4c-1.3,0-2,1-2.1,2.9L452.1,2746.8z"/>
	<path id="Trazado_208480" class="st6" d="M763.7,2735.9l3.8,11.9l3.8-11.9h5.4v17.1h-4.1v-4l0.4-8.2l-4.1,12.1h-2.7l-4.1-12.2
		l0.4,8.2v4h-4.1v-17.1H763.7z M785.2,2753.2c-1.7,0.1-3.4-0.6-4.7-1.7c-1.2-1.2-1.9-2.8-1.8-4.5v-0.3c0-1.2,0.2-2.4,0.7-3.4
		c0.5-1,1.2-1.8,2.1-2.3c1-0.6,2.1-0.8,3.3-0.8c1.6-0.1,3.1,0.5,4.2,1.7c1.1,1.3,1.6,2.9,1.5,4.6v1.5h-7.9c0.1,0.6,0.4,1.2,0.9,1.7
		c0.5,0.4,1.2,0.6,1.9,0.6c1.1,0.1,2.2-0.4,2.9-1.3l1.8,2.1c-0.5,0.7-1.3,1.3-2.1,1.6C787.2,2753,786.2,2753.2,785.2,2753.2z
		 M784.8,2743.1c-1.2,0-1.8,0.8-2.1,2.3h4v-0.3c0-0.5-0.1-1.1-0.5-1.5C785.9,2743.3,785.3,2743.1,784.8,2743.1L784.8,2743.1z
		 M796.8,2737.2v3.2h2.1v2.7h-2.1v5.8c0,0.4,0.1,0.7,0.3,1c0.3,0.2,0.7,0.3,1,0.3c0.3,0,0.7,0,1-0.1v2.8c-0.7,0.2-1.5,0.3-2.2,0.3
		c-1.1,0.1-2.2-0.3-3-1c-0.7-0.8-1.1-1.9-1-2.9v-6.3h-1.6v-2.7h1.6v-3.2L796.8,2737.2z M807.6,2753c-0.2-0.4-0.3-0.7-0.4-1.1
		c-0.7,0.9-1.9,1.4-3,1.4c-1.1,0-2.2-0.4-3-1.1c-0.8-0.7-1.3-1.7-1.3-2.7c-0.1-1.2,0.5-2.4,1.5-3.1c1.3-0.8,2.9-1.2,4.4-1.1h1.2
		v-0.7c0-1.2-0.5-1.8-1.5-1.8c-0.7-0.1-1.3,0.4-1.4,1c0,0.1,0,0.2,0,0.3h-3.9c0-1.2,0.6-2.3,1.6-3c1.2-0.8,2.6-1.2,4-1.1
		c1.4-0.1,2.7,0.3,3.8,1.2c0.9,0.8,1.5,2,1.4,3.2v5.6c0,0.9,0.1,1.8,0.5,2.7v0.2H807.6z M805.1,2750.4c0.4,0,0.9-0.1,1.2-0.3
		c0.3-0.2,0.5-0.4,0.7-0.7v-2h-1.1c-1.4,0-2.1,0.6-2.1,1.9c0,0.3,0.1,0.6,0.4,0.9C804.4,2750.3,804.7,2750.4,805.1,2750.4z
		 M817.3,2753h-4v-18h4V2753z M825.9,2753.2c-1.7,0.1-3.4-0.6-4.7-1.7c-1.2-1.2-1.9-2.8-1.8-4.5v-0.3c0-1.2,0.2-2.4,0.7-3.4
		c0.5-1,1.2-1.8,2.1-2.3c1-0.6,2.1-0.8,3.3-0.8c1.6-0.1,3.1,0.5,4.2,1.7c1.1,1.3,1.6,2.9,1.5,4.6v1.5h-7.9c0.1,0.7,0.4,1.2,0.9,1.7
		c0.5,0.4,1.2,0.6,1.9,0.6c1.1,0.1,2.2-0.4,2.9-1.3l1.8,2.1c-0.5,0.7-1.3,1.3-2.1,1.6C827.9,2753,826.9,2753.2,825.9,2753.2
		L825.9,2753.2z M825.4,2743.1c-1.2,0-1.8,0.8-2.1,2.3h4v-0.3c0-0.5-0.1-1.1-0.5-1.5C826.5,2743.3,826,2743.1,825.4,2743.1
		L825.4,2743.1z M839.5,2749.4c0-0.3-0.2-0.7-0.5-0.8c-0.6-0.3-1.3-0.5-2-0.6c-0.8-0.2-1.7-0.5-2.4-0.9c-0.6-0.3-1.1-0.7-1.5-1.3
		c-0.3-0.5-0.5-1.1-0.5-1.7c0-1.1,0.5-2.2,1.4-2.9c1.1-0.8,2.4-1.2,3.8-1.1c1.4-0.1,2.8,0.3,4,1.1c1,0.7,1.5,1.8,1.5,3h-4
		c0-1-0.5-1.5-1.6-1.5c-0.4,0-0.7,0.1-1,0.3c-0.3,0.2-0.4,0.5-0.4,0.9c0,0.4,0.2,0.7,0.5,0.9c0.5,0.3,1.1,0.5,1.6,0.5
		c0.7,0.1,1.3,0.3,2,0.5c1.9,0.7,2.9,1.8,2.9,3.5c0,1.1-0.6,2.2-1.5,2.8c-1.2,0.8-2.6,1.2-4,1.1c-1,0-2-0.2-2.9-0.6
		c-0.8-0.3-1.5-0.9-2-1.6c-0.5-0.6-0.7-1.4-0.7-2.1h3.7c0,0.5,0.2,1,0.6,1.3c0.4,0.3,0.9,0.4,1.4,0.4c0.4,0,0.9-0.1,1.2-0.3
		C839.3,2750.1,839.5,2749.8,839.5,2749.4L839.5,2749.4z"/>
	<path id="Trazado_208481" class="st1" d="M1157.9,2747.2v5.8h-4.1v-17.1h6.8c1.2,0,2.4,0.2,3.5,0.7c1,0.4,1.8,1.2,2.3,2.1
		c0.6,0.9,0.8,2,0.8,3c0.1,1.5-0.6,3-1.8,4c-1.4,1.1-3.1,1.6-4.9,1.5H1157.9z M1157.9,2744h2.7c0.7,0,1.3-0.2,1.8-0.6
		c0.4-0.4,0.7-1.1,0.6-1.7c0-0.7-0.2-1.4-0.6-1.9c-0.5-0.5-1.1-0.8-1.8-0.7h-2.7L1157.9,2744z M1168.5,2746.5c0-1.2,0.2-2.3,0.7-3.4
		c0.5-1,1.2-1.7,2.1-2.3c1-0.6,2.1-0.8,3.2-0.8c1.7-0.1,3.3,0.6,4.5,1.8c1.1,1.3,1.7,3,1.6,4.8v0.1c0.1,1.7-0.5,3.4-1.6,4.7
		c-1.2,1.2-2.8,1.8-4.5,1.7c-1.6,0.1-3.2-0.5-4.3-1.6c-1.1-1.2-1.8-2.8-1.8-4.4L1168.5,2746.5z M1172.5,2746.8
		c-0.1,0.9,0.1,1.8,0.6,2.6c0.4,0.5,1,0.9,1.6,0.8c1.4,0,2.1-1.1,2.2-3.2v-0.4c0-2.3-0.7-3.4-2.2-3.4c-1.3,0-2,1-2.1,2.9
		L1172.5,2746.8z M1186.7,2753h-4v-18h4V2753z M1194.2,2748.3l2-8h4.2l-4.1,12.7h-4l-4.1-12.7h4.2L1194.2,2748.3z M1200.8,2746.5
		c0-1.2,0.2-2.3,0.7-3.4c0.5-1,1.2-1.7,2.1-2.3c1-0.6,2.1-0.8,3.2-0.8c1.7-0.1,3.3,0.6,4.5,1.8c1.1,1.3,1.7,3,1.6,4.8v0.1
		c0.1,1.7-0.5,3.4-1.6,4.7c-1.2,1.2-2.8,1.8-4.5,1.7c-1.6,0.1-3.2-0.5-4.3-1.6c-1.1-1.2-1.8-2.8-1.8-4.4L1200.8,2746.5z
		 M1204.8,2746.8c-0.1,0.9,0.1,1.8,0.6,2.6c0.4,0.5,1,0.9,1.6,0.8c1.4,0,2.1-1.1,2.2-3.2v-0.4c0-2.3-0.7-3.4-2.2-3.4
		c-1.3,0-2,1-2.1,2.9L1204.8,2746.8z M1221.5,2749.4c0-0.3-0.2-0.7-0.5-0.8c-0.6-0.3-1.3-0.5-2-0.6c-0.8-0.2-1.7-0.5-2.4-0.9
		c-0.6-0.3-1.1-0.8-1.5-1.3c-0.3-0.5-0.5-1.1-0.5-1.7c0-1.1,0.5-2.2,1.4-2.9c1.1-0.8,2.4-1.2,3.8-1.1c1.4-0.1,2.8,0.3,4,1.1
		c1,0.7,1.5,1.8,1.5,3h-4c0-1-0.5-1.5-1.6-1.5c-0.4,0-0.7,0.1-1,0.3c-0.3,0.2-0.4,0.5-0.4,0.9c0,0.4,0.2,0.7,0.5,0.9
		c0.5,0.3,1.1,0.5,1.6,0.5c0.7,0.1,1.3,0.3,2,0.5c1.9,0.7,2.9,1.8,2.9,3.5c0,1.1-0.6,2.2-1.5,2.8c-1.2,0.8-2.6,1.2-4,1.1
		c-1,0-2-0.2-2.9-0.6c-0.8-0.3-1.5-0.9-2-1.6c-0.5-0.6-0.7-1.4-0.7-2.1h3.7c0,0.5,0.2,1,0.6,1.3c0.4,0.3,0.9,0.4,1.4,0.4
		c0.4,0,0.9-0.1,1.2-0.3C1221.3,2750.1,1221.5,2749.8,1221.5,2749.4z"/>
	<g id="Grupo_145034" transform="translate(484 2719.5)" class="st9">
		<g transform="matrix(1, 0, 0, 1, -199, -328.5)" class="st10">
			<circle id="Elipse_180-4_00000026155264822416089280000015487825882661468818_" class="st6" cx="224" cy="353.5" r="21"/>
		</g>
		<path id="Trazado_208449" class="st1" d="M27.9,22.7h6.3V28h-6.3v7.3H22V28h-6.3v-5.4H22v-7.1h5.8V22.7z"/>
	</g>
	<g id="Grupo_145172" transform="translate(869 2719.5)" class="st9">
		<g transform="matrix(1, 0, 0, 1, -584, -328.5)" class="st11">
			<circle id="Elipse_180-5_00000085947095126334994180000002893229290956187267_" class="st6" cx="609" cy="353.5" r="21"/>
		</g>
		<path id="Trazado_208449-2" class="st1" d="M27.9,22.7h6.3V28h-6.3v7.3H22V28h-6.3v-5.4H22v-7.1h5.8V22.7z"/>
	</g>
	<g id="Grupo_145173" transform="translate(1259 2719.5)" class="st9">
		<g transform="matrix(1, 0, 0, 1, -974, -328.5)" class="st12">
			<circle id="Elipse_180-6_00000045613577242080189770000007705923182729908366_" class="st6" cx="999" cy="353.5" r="21"/>
		</g>
		<path id="Trazado_208449-3" class="st1" d="M27.9,22.7h6.3V28h-6.3v7.3H22V28h-6.3v-5.4H22v-7.1h5.8V22.7z"/>
	</g>
	<g id="haz" transform="translate(747 2508)">
		<g id="Grupo_145176" transform="translate(0 0)">
			<g id="Grupo_145175">
				<path id="Trazado_208450" class="st1" d="M106,12.4V1.8c0,0,0,0,0-0.1c0-0.2,0-0.4-0.1-0.6l0,0c0,0,0,0,0,0
					c-0.1-0.2-0.2-0.3-0.3-0.5c0,0-0.1-0.1-0.1-0.1c-0.1-0.1-0.2-0.2-0.4-0.3c-0.1,0-0.1-0.1-0.2-0.1C104.7,0,104.4,0,104.2,0H47.7
					c-0.5,0-0.9,0.2-1.2,0.5L0.5,46.5l0,0c-0.1,0.1-0.3,0.3-0.3,0.5C0.1,47.2,0,47.4,0,47.6c0,0,0,0.1,0,0.1v10.6
					c0,1,0.8,1.8,1.8,1.8H15c4.4,0,7.9,3.6,8,8v1.9L0.5,92.4C0.2,92.7,0,93.2,0,93.6v10.6c0,1,0.8,1.8,1.8,1.8h56.5
					c0.2,0,0.5,0,0.7-0.1c0,0,0,0,0.1,0c0.2-0.1,0.4-0.2,0.5-0.4l0,0l35.3-37.1l10.6-10.6c0.3-0.3,0.5-0.8,0.5-1.3V45.9
					c0,0,0,0,0-0.1c0-0.2,0-0.4-0.1-0.6l0,0c0,0,0,0,0,0c-0.2-0.4-0.5-0.7-0.8-0.8c-0.1,0-0.1-0.1-0.2-0.1c-0.2-0.1-0.4-0.1-0.6-0.1
					H91c-0.2,0-0.3,0-0.4,0.1c-0.1,0-0.3-0.1-0.4-0.1c-4.1,0-7.5-3.2-7.9-7.3l23.3-23.3C105.8,13.3,106,12.8,106,12.4z M48.4,3.5
					H100L57.6,45.9H6L48.4,3.5z M23,74.9v9c0,4.4-3.6,7.9-7.9,7.9H6L23,74.9z M56.5,102.5h-53v-7.1H15c6.3,0,11.5-5.1,11.5-11.5V68
					c0-6.3-5.1-11.5-11.5-11.5H3.5v-7.1h53v7.1H45c-6.3,0-11.5,5.1-11.5,11.5v15.9c0,6.3,5.1,11.5,11.5,11.5h11.5V102.5L56.5,102.5z
					 M102.5,55.8L92.4,65.9L60.1,99.8v-5.5l34.8-36.6l7.6-7.6L102.5,55.8L102.5,55.8z M90.1,47.7c0.2,0,0.3,0,0.4-0.1
					c0.1,0,0.3,0.1,0.4,0.1h9l-7.6,7.6L57.5,91.9H45c-4.4,0-7.9-3.6-8-7.9V68c0-4.4,3.6-7.9,8-8h13.2c0.5,0,0.9-0.2,1.2-0.5
					l19.7-19.7C80.8,44.5,85.2,47.7,90.1,47.7z M102.5,11.6L79.1,35l0,0L60.1,54v-5.6L102.5,6C102.5,6,102.5,11.6,102.5,11.6z"/>
				<path id="Trazado_208451" class="st1" d="M44.8,83.1c-0.7-0.3-1.4-0.1-1.9,0.4c-0.3,0.3-0.5,0.8-0.5,1.3c0,1,0.8,1.8,1.8,1.8
					c1,0,1.8-0.8,1.8-1.8C45.9,84,45.5,83.3,44.8,83.1z"/>
				<path id="Trazado_208452" class="st1" d="M51.6,75.6c-0.6-0.2-1.3,0-1.7,0.5l0,0l-1.8,1.9c-0.7,0.7-0.6,1.8,0.1,2.5
					c0.7,0.7,1.8,0.6,2.5-0.1l1.8-1.9c0.7-0.7,0.6-1.8-0.1-2.5C52.2,75.8,52,75.7,51.6,75.6L51.6,75.6z"/>
				<path id="Trazado_208453" class="st1" d="M57,68.7l-1.8,1.9c-0.7,0.7-0.6,1.8,0.1,2.5s1.8,0.6,2.5-0.1l0,0l1.8-1.9
					c0.7-0.7,0.6-1.8-0.1-2.5S57.7,68,57,68.7L57,68.7z"/>
				<path id="Trazado_208454" class="st1" d="M64.1,61.3l-1.8,1.9c-0.7,0.7-0.6,1.8,0.1,2.5c0.7,0.7,1.8,0.6,2.5-0.1l1.8-1.9
					c0.7-0.7,0.6-1.8-0.1-2.5S64.8,60.6,64.1,61.3L64.1,61.3L64.1,61.3z"/>
				<path id="Trazado_208455" class="st1" d="M72.9,53.4c-0.6-0.2-1.3,0-1.7,0.5l-1.8,1.9c-0.7,0.7-0.6,1.8,0.1,2.5
					c0.7,0.7,1.8,0.6,2.5-0.1l1.8-1.9c0.7-0.7,0.7-1.8-0.1-2.5C73.4,53.6,73.2,53.5,72.9,53.4L72.9,53.4z"/>
				<path id="Trazado_208456" class="st1" d="M77.1,47.9c-0.7,0.3-1.1,0.9-1.1,1.6c0,0.5,0.2,0.9,0.5,1.2c0.7,0.7,1.8,0.7,2.5,0
					c0,0,0,0,0,0c0.3-0.3,0.5-0.8,0.5-1.2c0-0.5-0.2-0.9-0.5-1.3C78.5,47.8,77.7,47.6,77.1,47.9z"/>
			</g>
		</g>
	</g>
	<g id="polvo" transform="translate(1135.999 2520)">
		<path id="Trazado_208457" class="st1" d="M102.9,61.5h-6.2c-0.3-3.8-1.5-7.4-3.5-10.6L62.9,6.1C60.2,2.2,56.5,0,52.5,0h0
			c-3.9,0-7.7,2.2-10.3,6.1l-1.9,2.7c-0.6,0.9-0.4,2.2,0.5,2.9c0.9,0.6,2.2,0.4,2.9-0.6l1.9-2.7c1.9-2.8,4.3-4.3,6.9-4.3h0
			c2.6,0,5.1,1.5,6.9,4.3l30.3,44.8c1.6,2.5,2.6,5.4,2.8,8.3H12.4c0.3-3.3,1.4-6.4,3.4-9.1c0,0,0.1-0.1,0.1-0.1l18.7-27.6
			c0.6-0.9,0.4-2.2-0.5-2.8c-0.9-0.6-2.2-0.4-2.9,0.5L12.5,50c-2.5,3.4-3.9,7.4-4.2,11.5H2.1c-1.1,0-2.1,0.9-2.1,2.1
			c0,4.9,3.5,9.2,8.4,10.1c0.9,4.9,5.1,8.4,10.1,8.4h68.1c4.9,0,9.2-3.5,10.1-8.4c4.9-0.9,8.4-5.1,8.4-10.1
			C105,62.4,104.1,61.5,102.9,61.5C102.9,61.5,102.9,61.5,102.9,61.5L102.9,61.5z M94.8,69.7h-8.2c-1.1,0-2,1-2,2.1c0,1.1,0.9,2,2,2
			h5.8c-0.9,2.5-3.2,4.1-5.8,4.1H18.5c-2.6,0-4.9-1.6-5.8-4.1h57.5c1.1,0,2-1,2-2.1c0-1.1-0.9-2-2-2H10.3c-2.6,0-4.9-1.6-5.8-4.1
			h96.1C99.7,68.1,97.4,69.7,94.8,69.7L94.8,69.7z"/>
		<path id="Trazado_208458" class="st1" d="M33.4,49.6c-1.1,0-2.1,0.9-2.1,2.1l0,0c0,1.1,0.9,2.1,2.1,2.1c1.1,0,2.1-0.9,2.1-2.1
			C35.5,50.6,34.6,49.6,33.4,49.6L33.4,49.6z"/>
		<path id="Trazado_208459" class="st1" d="M48.8,30.4c0-1.1-1-2-2.1-2c-1.1,0-2,0.9-2,2l0,0c0,1.1,1,2,2.1,2
			C47.9,32.3,48.8,31.4,48.8,30.4z"/>
		<path id="Trazado_208460" class="st1" d="M54.8,44.1c0-1.1-0.9-2.1-2-2.1c-1.1,0-2.1,0.9-2.1,2c0,0,0,0.1,0,0.1l0,0
			c0,1.1,1,2,2.1,2C53.9,46.1,54.7,45.2,54.8,44.1z"/>
		<path id="Trazado_208461" class="st1" d="M75.5,51.3c0-1.1-1-2-2.1-2c-1.1,0-2,0.9-2,2l0,0c0,1.1,0.9,2.1,2,2.1
			c1.1,0,2.1-0.9,2.1-2C75.5,51.4,75.5,51.3,75.5,51.3z"/>
		<path id="Trazado_208462" class="st1" d="M78.3,69.7L78.3,69.7c-1.1,0-2.1,0.9-2,2.1s0.9,2.1,2.1,2c1.1,0,2-0.9,2-2.1
			C80.4,70.6,79.5,69.7,78.3,69.7C78.3,69.7,78.3,69.7,78.3,69.7L78.3,69.7z"/>
		<path id="Trazado_208463" class="st1" d="M36.2,18.4c0.9,0.7,2.2,0.5,2.9-0.4l0,0c0.7-0.9,0.5-2.2-0.4-2.9s-2.2-0.5-2.9,0.4
			C35.1,16.5,35.3,17.7,36.2,18.4L36.2,18.4z"/>
	</g>
	<path id="cuadra" class="st1" d="M410.6,2515l-39.6,22.9v45.7l39.6,22.9l39.6-22.9v-45.7L410.6,2515z M442.2,2539.4l-31.6,18.2
		l-31.6-18.2l31.6-18.2L442.2,2539.4z M376.4,2544.1l31.6,18.2v36.5l-31.6-18.2V2544.1z M413.3,2598.7v-36.5l31.6-18.2v36.4
		L413.3,2598.7z"/>
</g>
</svg>
