<svg xmlns="http://www.w3.org/2000/svg" width="126" height="126" viewBox="0 0 126 126">
  <g id="Grupo_145179" data-name="Grupo 145179" transform="translate(3008 8529)">
    <path id="Trazado_208464" data-name="Trazado 208464" d="M152.172,63a63,63,0,1,1-63-63,63,63,0,0,1,63,63" transform="translate(-3034.172 -8529)" fill="#0ca4ca"/>
    <path id="Trazado_208465" data-name="Trazado 208465" d="M91.827,117.332a51.677,51.677,0,1,1,51.678-51.676,51.735,51.735,0,0,1-51.678,51.676" transform="translate(-3036.828 -8531.655)" fill="#07637a"/>
    <path id="Trazado_208466" data-name="Trazado 208466" d="M92.241,115.983a49.915,49.915,0,1,1,49.915-49.914,49.971,49.971,0,0,1-49.915,49.914" transform="translate(-3037.337 -8532.163)" fill="#fff"/>
    <path id="cuadra" d="M62.208,0,34.3,16.115V48.344L62.208,64.459,90.119,48.344V16.115ZM84.453,17.2,62.208,30.043,39.962,17.2,62.208,4.361Zm-46.38,3.271L60.319,33.314V59.007L38.073,46.164ZM64.1,59.007V33.314L86.342,20.476V46.164Z" transform="translate(-3007.452 -8498.411)" fill="#12263f"/>
  </g>
</svg>
