<svg xmlns="http://www.w3.org/2000/svg" xmlns:xlink="http://www.w3.org/1999/xlink" width="1030.191" height="382.5" viewBox="0 0 1030.191 382.5">
  <defs>
    <filter id="Trazado_208478" x="194.001" y="322.5" width="60" height="60" filterUnits="userSpaceOnUse">
      <feOffset dy="3" input="SourceAlpha"/>
      <feGaussianBlur stdDeviation="3" result="blur"/>
      <feFlood flood-opacity="0.161"/>
      <feComposite operator="in" in2="blur"/>
      <feComposite in="SourceGraphic"/>
    </filter>
    <filter id="Trazado_208480" x="579" y="322.5" width="60" height="60" filterUnits="userSpaceOnUse">
      <feOffset dy="3" input="SourceAlpha"/>
      <feGaussianBlur stdDeviation="3" result="blur-2"/>
      <feFlood flood-opacity="0.161"/>
      <feComposite operator="in" in2="blur-2"/>
      <feComposite in="SourceGraphic"/>
    </filter>
    <filter id="Trazado_208482" x="969" y="322.5" width="60" height="60" filterUnits="userSpaceOnUse">
      <feOffset dy="3" input="SourceAlpha"/>
      <feGaussianBlur stdDeviation="3" result="blur-3"/>
      <feFlood flood-opacity="0.161"/>
      <feComposite operator="in" in2="blur-3"/>
      <feComposite in="SourceGraphic"/>
    </filter>
  </defs>
  <g id="Grupo_145185" data-name="Grupo 145185" transform="translate(-285 -2395)">
    <path id="Trazado_208476" data-name="Trazado 208476" d="M85.052,7.428H80.784V19H77.356V7.428H73.167V4.781H85.052ZM89.817,19h-3.3V8.434h3.3Zm-3.5-13.291a1.469,1.469,0,0,1,.508-1.152,2.159,2.159,0,0,1,2.637,0,1.469,1.469,0,0,1,.508,1.152,1.469,1.469,0,0,1-.508,1.152,2.159,2.159,0,0,1-2.637,0A1.469,1.469,0,0,1,86.321,5.709Zm15.332,8.086a6.372,6.372,0,0,1-1.108,3.931,3.554,3.554,0,0,1-2.993,1.47,3.046,3.046,0,0,1-2.393-1.064v4.932H91.868V8.434h3.076l.1.977a3.046,3.046,0,0,1,2.49-1.172,3.582,3.582,0,0,1,3.037,1.44,6.45,6.45,0,0,1,1.084,3.96Zm-3.291-.205q0-2.812-1.641-2.812a1.549,1.549,0,0,0-1.562.84v4.16a1.6,1.6,0,0,0,1.582.879q1.572,0,1.621-2.715Zm4.326.029A6.236,6.236,0,0,1,103.3,10.8a4.4,4.4,0,0,1,1.768-1.9,5.323,5.323,0,0,1,2.705-.664,4.858,4.858,0,0,1,3.74,1.47,5.64,5.64,0,0,1,1.367,4v.117a5.472,5.472,0,0,1-1.372,3.921A4.871,4.871,0,0,1,107.8,19.2a4.927,4.927,0,0,1-3.623-1.353,5.29,5.29,0,0,1-1.475-3.667Zm3.291.205a3.932,3.932,0,0,0,.459,2.148,1.529,1.529,0,0,0,1.357.684q1.758,0,1.8-2.705v-.332q0-2.842-1.816-2.842-1.65,0-1.787,2.451Zm13.887,2.207a.76.76,0,0,0-.439-.674,6.685,6.685,0,0,0-1.67-.527,7.615,7.615,0,0,1-2.031-.718,3.4,3.4,0,0,1-1.221-1.079,2.577,2.577,0,0,1-.42-1.455,2.92,2.92,0,0,1,1.2-2.4,4.948,4.948,0,0,1,3.145-.942,5.482,5.482,0,0,1,3.359.947,2.962,2.962,0,0,1,1.27,2.49h-3.3q0-1.27-1.338-1.27a1.326,1.326,0,0,0-.869.288.892.892,0,0,0-.352.718.819.819,0,0,0,.43.713,4.06,4.06,0,0,0,1.372.449,11.857,11.857,0,0,1,1.655.42,3.007,3.007,0,0,1,2.383,2.939,2.767,2.767,0,0,1-1.284,2.354,5.631,5.631,0,0,1-3.325.908,5.747,5.747,0,0,1-2.422-.488,4.05,4.05,0,0,1-1.66-1.328,3.007,3.007,0,0,1-.6-1.768h3.076a1.272,1.272,0,0,0,.488,1.069,2.009,2.009,0,0,0,1.2.337,1.58,1.58,0,0,0,1.011-.273A.875.875,0,0,0,119.866,16.031Zm9.277-2.393a6.455,6.455,0,0,1,1.084-3.955,3.568,3.568,0,0,1,3.027-1.445,3.035,3.035,0,0,1,2.383,1.113V4h3.3V19h-2.959l-.166-1.133a3.116,3.116,0,0,1-2.578,1.328,3.562,3.562,0,0,1-2.988-1.445A6.659,6.659,0,0,1,129.144,13.639Zm3.291.205q0,2.813,1.641,2.813a1.62,1.62,0,0,0,1.563-.918V11.715a1.576,1.576,0,0,0-1.543-.937q-1.523,0-1.65,2.461ZM145.921,19.2a5.432,5.432,0,0,1-3.936-1.45,5.008,5.008,0,0,1-1.5-3.774V13.7a6.489,6.489,0,0,1,.6-2.861,4.395,4.395,0,0,1,1.753-1.919,5.292,5.292,0,0,1,2.734-.679,4.574,4.574,0,0,1,3.516,1.382,5.43,5.43,0,0,1,1.289,3.853v1.279h-6.543a2.372,2.372,0,0,0,.771,1.4,2.3,2.3,0,0,0,1.543.508,2.958,2.958,0,0,0,2.441-1.094l1.5,1.777a4.2,4.2,0,0,1-1.743,1.353A5.891,5.891,0,0,1,145.921,19.2Zm-.371-8.418q-1.445,0-1.719,1.914h3.32v-.254a1.63,1.63,0,0,0-.4-1.226A1.593,1.593,0,0,0,145.55,10.777Zm14.238-2.344.107,1.24a3.633,3.633,0,0,1,3.018-1.436,2.675,2.675,0,0,1,2.705,1.592,3.516,3.516,0,0,1,3.105-1.592q3.213,0,3.3,3.887V19h-3.3V12.33a2.014,2.014,0,0,0-.273-1.182,1.164,1.164,0,0,0-1-.371,1.559,1.559,0,0,0-1.455.869l.01.137V19h-3.3V12.35a2.117,2.117,0,0,0-.264-1.2,1.161,1.161,0,0,0-1.006-.371,1.578,1.578,0,0,0-1.445.869V19H156.7V8.434ZM179.856,19a3.716,3.716,0,0,1-.312-.947A3.06,3.06,0,0,1,177,19.2a3.749,3.749,0,0,1-2.539-.9,2.875,2.875,0,0,1-1.045-2.271,2.955,2.955,0,0,1,1.27-2.6,6.468,6.468,0,0,1,3.691-.879H179.4v-.559q0-1.462-1.26-1.462a1.03,1.03,0,0,0-1.172,1.158h-3.291a2.95,2.95,0,0,1,1.3-2.487,5.479,5.479,0,0,1,3.325-.956,4.8,4.8,0,0,1,3.193.986,3.429,3.429,0,0,1,1.2,2.705v4.678a4.79,4.79,0,0,0,.449,2.227V19ZM177.8,16.852a1.836,1.836,0,0,0,1.021-.264,1.653,1.653,0,0,0,.581-.6V14.3h-.957q-1.719,0-1.719,1.543a.942.942,0,0,0,.3.728A1.1,1.1,0,0,0,177.8,16.852ZM188.353,5.807V8.434h1.738v2.285h-1.738v4.834a1.234,1.234,0,0,0,.215.83,1.152,1.152,0,0,0,.85.234,4.828,4.828,0,0,0,.82-.059v2.354a6.074,6.074,0,0,1-1.855.283,3.448,3.448,0,0,1-2.51-.8,3.282,3.282,0,0,1-.811-2.432V10.719h-1.348V8.434h1.348V5.807ZM196.5,19.2a5.432,5.432,0,0,1-3.936-1.45,5.008,5.008,0,0,1-1.5-3.774V13.7a6.489,6.489,0,0,1,.6-2.861,4.395,4.395,0,0,1,1.753-1.919,5.292,5.292,0,0,1,2.734-.679,4.574,4.574,0,0,1,3.516,1.382,5.43,5.43,0,0,1,1.289,3.853v1.279h-6.543a2.372,2.372,0,0,0,.771,1.4,2.3,2.3,0,0,0,1.543.508,2.958,2.958,0,0,0,2.441-1.094l1.5,1.777a4.2,4.2,0,0,1-1.743,1.353A5.891,5.891,0,0,1,196.5,19.2Zm-.371-8.418q-1.445,0-1.719,1.914h3.32v-.254a1.63,1.63,0,0,0-.4-1.226A1.593,1.593,0,0,0,196.126,10.777Zm12.539.635-1.084-.078a1.947,1.947,0,0,0-1.992.977V19H202.3V8.434h3.086l.107,1.357a2.548,2.548,0,0,1,2.314-1.553,3.209,3.209,0,0,1,.918.117ZM213.323,19h-3.3V8.434h3.3Zm-3.5-13.291a1.469,1.469,0,0,1,.508-1.152,2.159,2.159,0,0,1,2.637,0,1.469,1.469,0,0,1,.508,1.152,1.469,1.469,0,0,1-.508,1.152,2.159,2.159,0,0,1-2.637,0A1.469,1.469,0,0,1,209.827,5.709ZM221.3,19a3.716,3.716,0,0,1-.312-.947A3.06,3.06,0,0,1,218.45,19.2a3.749,3.749,0,0,1-2.539-.9,2.875,2.875,0,0,1-1.045-2.271,2.955,2.955,0,0,1,1.27-2.6,6.468,6.468,0,0,1,3.691-.879h1.016v-.559q0-1.462-1.26-1.462a1.03,1.03,0,0,0-1.172,1.158H215.12a2.95,2.95,0,0,1,1.3-2.487,5.479,5.479,0,0,1,3.325-.956,4.8,4.8,0,0,1,3.193.986,3.429,3.429,0,0,1,1.2,2.705v4.678a4.79,4.79,0,0,0,.449,2.227V19Zm-2.061-2.148a1.836,1.836,0,0,0,1.021-.264,1.653,1.653,0,0,0,.581-.6V14.3h-.957q-1.719,0-1.719,1.543a.942.942,0,0,0,.3.728A1.1,1.1,0,0,0,219.241,16.852ZM229.437,19h-3.3V4h3.3Zm7.139.2a5.432,5.432,0,0,1-3.936-1.45,5.008,5.008,0,0,1-1.5-3.774V13.7a6.489,6.489,0,0,1,.6-2.861,4.395,4.395,0,0,1,1.753-1.919,5.292,5.292,0,0,1,2.734-.679,4.574,4.574,0,0,1,3.516,1.382,5.43,5.43,0,0,1,1.289,3.853v1.279h-6.543a2.372,2.372,0,0,0,.771,1.4,2.3,2.3,0,0,0,1.543.508,2.958,2.958,0,0,0,2.441-1.094l1.5,1.777A4.2,4.2,0,0,1,239,18.692,5.891,5.891,0,0,1,236.575,19.2Zm-.371-8.418q-1.445,0-1.719,1.914h3.32v-.254a1.63,1.63,0,0,0-.4-1.226A1.593,1.593,0,0,0,236.2,10.777Zm11.68,5.254a.76.76,0,0,0-.439-.674,6.685,6.685,0,0,0-1.67-.527,7.615,7.615,0,0,1-2.031-.718,3.4,3.4,0,0,1-1.221-1.079,2.577,2.577,0,0,1-.42-1.455,2.92,2.92,0,0,1,1.2-2.4,4.948,4.948,0,0,1,3.145-.942,5.482,5.482,0,0,1,3.359.947,2.962,2.962,0,0,1,1.27,2.49h-3.3q0-1.27-1.338-1.27a1.326,1.326,0,0,0-.869.288.892.892,0,0,0-.352.718.819.819,0,0,0,.43.713,4.06,4.06,0,0,0,1.372.449,11.857,11.857,0,0,1,1.655.42,3.007,3.007,0,0,1,2.383,2.939,2.767,2.767,0,0,1-1.284,2.354,5.632,5.632,0,0,1-3.325.908,5.747,5.747,0,0,1-2.422-.488,4.05,4.05,0,0,1-1.66-1.328,3.007,3.007,0,0,1-.6-1.768h3.076a1.272,1.272,0,0,0,.488,1.069,2.009,2.009,0,0,0,1.2.337,1.58,1.58,0,0,0,1.011-.273A.875.875,0,0,0,247.884,16.031ZM261.8,14.391l1.758-5.957h3.525l-4.307,12.334-.186.449a3.272,3.272,0,0,1-3.242,2.051,5.158,5.158,0,0,1-1.357-.195V20.729h.43a2.251,2.251,0,0,0,1.06-.2,1.216,1.216,0,0,0,.542-.718l.264-.7L256.614,8.434h3.516Zm15.586,2.266a1.464,1.464,0,0,0,1.074-.376,1.379,1.379,0,0,0,.371-1.05h3.086a3.653,3.653,0,0,1-1.245,2.852,4.631,4.631,0,0,1-3.208,1.113,4.689,4.689,0,0,1-3.633-1.445,5.7,5.7,0,0,1-1.328-4v-.137a6.436,6.436,0,0,1,.591-2.827A4.3,4.3,0,0,1,274.8,8.9a5.081,5.081,0,0,1,2.637-.659,4.573,4.573,0,0,1,3.271,1.143,4.053,4.053,0,0,1,1.211,3.1h-3.086a1.806,1.806,0,0,0-.4-1.26,1.382,1.382,0,0,0-1.074-.439q-1.279,0-1.494,1.631a11.51,11.51,0,0,0-.068,1.426,4.52,4.52,0,0,0,.381,2.207A1.319,1.319,0,0,0,277.386,16.656ZM289.261,19a3.716,3.716,0,0,1-.312-.947,3.06,3.06,0,0,1-2.539,1.143,3.749,3.749,0,0,1-2.539-.9,2.875,2.875,0,0,1-1.045-2.271,2.955,2.955,0,0,1,1.27-2.6,6.468,6.468,0,0,1,3.691-.879H288.8v-.559q0-1.462-1.26-1.462a1.03,1.03,0,0,0-1.172,1.158h-3.291a2.95,2.95,0,0,1,1.3-2.487,5.479,5.479,0,0,1,3.325-.956,4.8,4.8,0,0,1,3.193.986,3.429,3.429,0,0,1,1.2,2.705v4.678a4.79,4.79,0,0,0,.449,2.227V19ZM287.2,16.852a1.836,1.836,0,0,0,1.021-.264,1.653,1.653,0,0,0,.581-.6V14.3h-.957q-1.719,0-1.719,1.543a.942.942,0,0,0,.3.728A1.1,1.1,0,0,0,287.2,16.852Zm13.115-5.439-1.084-.078a1.947,1.947,0,0,0-1.992.977V19h-3.291V8.434h3.086l.107,1.357a2.548,2.548,0,0,1,2.314-1.553,3.209,3.209,0,0,1,.918.117ZM307.161,19a3.716,3.716,0,0,1-.312-.947A3.06,3.06,0,0,1,304.31,19.2a3.749,3.749,0,0,1-2.539-.9,2.875,2.875,0,0,1-1.045-2.271,2.955,2.955,0,0,1,1.27-2.6,6.468,6.468,0,0,1,3.691-.879H306.7v-.559q0-1.462-1.26-1.462a1.03,1.03,0,0,0-1.172,1.158h-3.291a2.95,2.95,0,0,1,1.3-2.487,5.479,5.479,0,0,1,3.325-.956,4.8,4.8,0,0,1,3.193.986A3.429,3.429,0,0,1,310,11.93v4.678a4.79,4.79,0,0,0,.449,2.227V19ZM305.1,16.852a1.836,1.836,0,0,0,1.021-.264,1.653,1.653,0,0,0,.581-.6V14.3h-.957q-1.719,0-1.719,1.543a.942.942,0,0,0,.3.728A1.1,1.1,0,0,0,305.1,16.852Zm11.191-.2a1.464,1.464,0,0,0,1.074-.376,1.379,1.379,0,0,0,.371-1.05h3.086a3.653,3.653,0,0,1-1.245,2.852A4.631,4.631,0,0,1,316.37,19.2a4.689,4.689,0,0,1-3.633-1.445,5.7,5.7,0,0,1-1.328-4v-.137A6.436,6.436,0,0,1,312,10.782,4.3,4.3,0,0,1,313.7,8.9a5.081,5.081,0,0,1,2.637-.659,4.573,4.573,0,0,1,3.271,1.143,4.053,4.053,0,0,1,1.211,3.1h-3.086a1.806,1.806,0,0,0-.4-1.26,1.382,1.382,0,0,0-1.074-.439q-1.279,0-1.494,1.631a11.51,11.51,0,0,0-.068,1.426,4.52,4.52,0,0,0,.381,2.207A1.319,1.319,0,0,0,316.292,16.656Zm9.756-10.85V8.434h1.738v2.285h-1.738v4.834a1.234,1.234,0,0,0,.215.83,1.152,1.152,0,0,0,.85.234,4.828,4.828,0,0,0,.82-.059v2.354a6.074,6.074,0,0,1-1.855.283,3.448,3.448,0,0,1-2.51-.8,3.282,3.282,0,0,1-.811-2.432V10.719h-1.348V8.434h1.348V5.807ZM334.192,19.2a5.432,5.432,0,0,1-3.936-1.45,5.008,5.008,0,0,1-1.5-3.774V13.7a6.489,6.489,0,0,1,.6-2.861,4.395,4.395,0,0,1,1.753-1.919,5.292,5.292,0,0,1,2.734-.679,4.574,4.574,0,0,1,3.516,1.382,5.43,5.43,0,0,1,1.289,3.853v1.279H332.1a2.372,2.372,0,0,0,.771,1.4,2.3,2.3,0,0,0,1.543.508,2.958,2.958,0,0,0,2.441-1.094l1.5,1.777a4.2,4.2,0,0,1-1.743,1.353A5.891,5.891,0,0,1,334.192,19.2Zm-.371-8.418q-1.445,0-1.719,1.914h3.32v-.254a1.63,1.63,0,0,0-.4-1.226A1.593,1.593,0,0,0,333.821,10.777Zm12.539.635-1.084-.078a1.947,1.947,0,0,0-1.992.977V19h-3.291V8.434h3.086l.107,1.357A2.548,2.548,0,0,1,345.5,8.238a3.209,3.209,0,0,1,.918.117ZM351.136,19h-3.311V8.434h3.311Zm-1.23-14.8h3.477l-2.715,3.066-2.686,0Zm8.877,11.836a.76.76,0,0,0-.439-.674,6.685,6.685,0,0,0-1.67-.527,7.615,7.615,0,0,1-2.031-.718,3.4,3.4,0,0,1-1.221-1.079,2.577,2.577,0,0,1-.42-1.455,2.92,2.92,0,0,1,1.2-2.4,4.948,4.948,0,0,1,3.145-.942,5.482,5.482,0,0,1,3.359.947,2.962,2.962,0,0,1,1.27,2.49h-3.3q0-1.27-1.338-1.27a1.326,1.326,0,0,0-.869.288.892.892,0,0,0-.352.718.819.819,0,0,0,.43.713,4.06,4.06,0,0,0,1.372.449,11.856,11.856,0,0,1,1.655.42,3.007,3.007,0,0,1,2.383,2.939,2.767,2.767,0,0,1-1.284,2.354,5.631,5.631,0,0,1-3.325.908,5.747,5.747,0,0,1-2.422-.488,4.05,4.05,0,0,1-1.66-1.328,3.007,3.007,0,0,1-.6-1.768h3.076a1.272,1.272,0,0,0,.488,1.069,2.009,2.009,0,0,0,1.2.337,1.58,1.58,0,0,0,1.011-.273A.875.875,0,0,0,358.782,16.031Zm8.545-10.225V8.434h1.738v2.285h-1.738v4.834a1.234,1.234,0,0,0,.215.83,1.152,1.152,0,0,0,.85.234,4.828,4.828,0,0,0,.82-.059v2.354a6.074,6.074,0,0,1-1.855.283,3.448,3.448,0,0,1-2.51-.8,3.282,3.282,0,0,1-.811-2.432V10.719h-1.348V8.434h1.348V5.807ZM373.831,19h-3.3V8.434h3.3Zm-3.5-13.291a1.469,1.469,0,0,1,.508-1.152,2.159,2.159,0,0,1,2.637,0,1.469,1.469,0,0,1,.508,1.152,1.469,1.469,0,0,1-.508,1.152,2.159,2.159,0,0,1-2.637,0A1.469,1.469,0,0,1,370.335,5.709Zm9.99,10.947a1.464,1.464,0,0,0,1.074-.376,1.379,1.379,0,0,0,.371-1.05h3.086a3.653,3.653,0,0,1-1.245,2.852A4.631,4.631,0,0,1,380.4,19.2a4.689,4.689,0,0,1-3.633-1.445,5.7,5.7,0,0,1-1.328-4v-.137a6.436,6.436,0,0,1,.591-2.827,4.3,4.3,0,0,1,1.7-1.885,5.081,5.081,0,0,1,2.637-.659,4.573,4.573,0,0,1,3.271,1.143,4.053,4.053,0,0,1,1.211,3.1h-3.086a1.806,1.806,0,0,0-.4-1.26,1.382,1.382,0,0,0-1.074-.439q-1.279,0-1.494,1.631a11.51,11.51,0,0,0-.068,1.426,4.52,4.52,0,0,0,.381,2.207A1.319,1.319,0,0,0,380.325,16.656ZM392.2,19a3.716,3.716,0,0,1-.312-.947,3.06,3.06,0,0,1-2.539,1.143,3.749,3.749,0,0,1-2.539-.9,2.875,2.875,0,0,1-1.045-2.271,2.955,2.955,0,0,1,1.27-2.6,6.468,6.468,0,0,1,3.691-.879h1.016v-.559q0-1.462-1.26-1.462a1.03,1.03,0,0,0-1.172,1.158h-3.291a2.95,2.95,0,0,1,1.3-2.487,5.479,5.479,0,0,1,3.325-.956,4.8,4.8,0,0,1,3.193.986,3.429,3.429,0,0,1,1.2,2.705v4.678a4.79,4.79,0,0,0,.449,2.227V19Zm-2.061-2.148a1.836,1.836,0,0,0,1.021-.264,1.653,1.653,0,0,0,.581-.6V14.3h-.957q-1.719,0-1.719,1.543a.942.942,0,0,0,.3.728A1.1,1.1,0,0,0,390.14,16.852Zm12.256-.82a.76.76,0,0,0-.439-.674,6.685,6.685,0,0,0-1.67-.527,7.615,7.615,0,0,1-2.031-.718,3.4,3.4,0,0,1-1.221-1.079,2.577,2.577,0,0,1-.42-1.455,2.92,2.92,0,0,1,1.2-2.4,4.948,4.948,0,0,1,3.145-.942,5.482,5.482,0,0,1,3.359.947,2.962,2.962,0,0,1,1.27,2.49h-3.3q0-1.27-1.338-1.27a1.326,1.326,0,0,0-.869.288.892.892,0,0,0-.352.718.819.819,0,0,0,.43.713,4.06,4.06,0,0,0,1.372.449,11.856,11.856,0,0,1,1.655.42,3.007,3.007,0,0,1,2.383,2.939,2.767,2.767,0,0,1-1.284,2.354,5.631,5.631,0,0,1-3.325.908,5.747,5.747,0,0,1-2.422-.488,4.05,4.05,0,0,1-1.66-1.328,3.007,3.007,0,0,1-.6-1.768h3.076a1.272,1.272,0,0,0,.488,1.069,2.009,2.009,0,0,0,1.2.337,1.58,1.58,0,0,0,1.011-.273A.875.875,0,0,0,402.4,16.031Z" transform="translate(561 2391)" fill="#12263f"/>
    <path id="Trazado_208418" data-name="Trazado 208418" d="M606.744,97.5h-105a14.26,14.26,0,1,1,0-28.52h105a14.26,14.26,0,0,1,0,28.52" transform="translate(545.43 2477.855)" fill="#ff9500"/>
    <path id="Trazado_208419" data-name="Trazado 208419" d="M572.984,73.689h-105a14.26,14.26,0,1,1,0-28.52h105a14.26,14.26,0,0,1,0,28.52" transform="translate(524.456 2463.063)" fill="#ff9500"/>
    <path id="Trazado_208420" data-name="Trazado 208420" d="M572.984,121.309h-105a14.26,14.26,0,1,1,0-28.52h105a14.26,14.26,0,0,1,0,28.52" transform="translate(524.456 2492.648)" fill="#ff9500"/>
    <path id="Trazado_208421" data-name="Trazado 208421" d="M758.112,126.1A126.1,126.1,0,1,1,632.016,0a126.1,126.1,0,0,1,126.1,126.1" transform="translate(556.888 2435)" fill="#ff9500"/>
    <path id="Trazado_208422" data-name="Trazado 208422" d="M278.363,126.1A126.1,126.1,0,1,1,152.267,0a126.1,126.1,0,0,1,126.1,126.1" transform="translate(258.828 2435)" fill="#0ca4ca"/>
    <path id="Trazado_208423" data-name="Trazado 208423" d="M278.916,97.5h-105a14.26,14.26,0,1,1,0-28.52h105a14.26,14.26,0,0,1,0,28.52" transform="translate(341.756 2477.855)" fill="#0ca4ca"/>
    <path id="Trazado_208446" data-name="Trazado 208446" d="M384.91,122.845H186.586a26.933,26.933,0,1,1,0-53.866H384.91a26.933,26.933,0,0,1,0,53.866" transform="translate(125.349 2649.021)" fill="#0ca4ca"/>
    <path id="Trazado_208447" data-name="Trazado 208447" d="M384.91,122.845H186.586a26.933,26.933,0,1,1,0-53.866H384.91a26.933,26.933,0,0,1,0,53.866" transform="translate(514.349 2649.021)" fill="#255065"/>
    <path id="Trazado_208448" data-name="Trazado 208448" d="M384.91,122.845H186.586a26.933,26.933,0,1,1,0-53.866H384.91a26.933,26.933,0,0,1,0,53.866" transform="translate(903.349 2649.021)" fill="#ff9500"/>
    <path id="Trazado_208424" data-name="Trazado 208424" d="M245.156,73.689h-105a14.26,14.26,0,1,1,0-28.52h105a14.26,14.26,0,0,1,0,28.52" transform="translate(320.782 2463.063)" fill="#0ca4ca"/>
    <path id="Trazado_208425" data-name="Trazado 208425" d="M245.156,121.309h-105a14.26,14.26,0,1,1,0-28.52h105a14.26,14.26,0,0,1,0,28.52" transform="translate(320.782 2492.648)" fill="#0ca4ca"/>
    <path id="Trazado_208426" data-name="Trazado 208426" d="M518.79,97.5h-105a14.26,14.26,0,1,1,0-28.52h105a14.26,14.26,0,0,1,0,28.52" transform="translate(490.786 2477.855)" fill="#255065"/>
    <path id="Trazado_208427" data-name="Trazado 208427" d="M366.87,97.5h-105a14.26,14.26,0,1,1,0-28.52h105a14.26,14.26,0,0,1,0,28.52" transform="translate(396.401 2477.855)" fill="#255065"/>
    <path id="Trazado_208428" data-name="Trazado 208428" d="M333.109,73.689h-105a14.26,14.26,0,0,1,0-28.52h105a14.26,14.26,0,0,1,0,28.52" transform="translate(375.427 2463.063)" fill="#255065"/>
    <path id="Trazado_208429" data-name="Trazado 208429" d="M333.109,121.309h-105a14.26,14.26,0,0,1,0-28.52h105a14.26,14.26,0,0,1,0,28.52" transform="translate(375.427 2492.648)" fill="#255065"/>
    <path id="Trazado_208430" data-name="Trazado 208430" d="M518.238,126.1A126.1,126.1,0,1,1,392.142,0a126.1,126.1,0,0,1,126.1,126.1" transform="translate(407.858 2435)" fill="#255065"/>
    <path id="Trazado_208431" data-name="Trazado 208431" d="M485.029,73.689h-105a14.26,14.26,0,0,1,0-28.52h105a14.26,14.26,0,0,1,0,28.52" transform="translate(469.812 2463.063)" fill="#255065"/>
    <path id="Trazado_208432" data-name="Trazado 208432" d="M485.029,121.309h-105a14.26,14.26,0,0,1,0-28.52h105a14.26,14.26,0,0,1,0,28.52" transform="translate(469.812 2492.648)" fill="#255065"/>
    <path id="Trazado_208434" data-name="Trazado 208434" d="M142.231,215.963a99.905,99.905,0,1,1,99.905-99.9,100.017,100.017,0,0,1-99.905,99.9" transform="translate(268.673 2444.847)" fill="#fff"/>
    <path id="Trazado_208436" data-name="Trazado 208436" d="M382.1,215.963a99.905,99.905,0,1,1,99.905-99.9,100.017,100.017,0,0,1-99.905,99.9" transform="translate(417.799 2444.847)" fill="#fff"/>
    <path id="Trazado_208438" data-name="Trazado 208438" d="M621.979,215.963a99.905,99.905,0,1,1,99.905-99.9,100.017,100.017,0,0,1-99.905,99.9" transform="translate(566.924 2444.847)" fill="#fff"/>
    <path id="Trazado_208477" data-name="Trazado 208477" d="M-94.922-5.789V0h-4.113V-17.062h6.809a7.93,7.93,0,0,1,3.463.721,5.431,5.431,0,0,1,2.332,2.051,5.6,5.6,0,0,1,.826,3.018,4.937,4.937,0,0,1-1.787,3.99,7.415,7.415,0,0,1-4.9,1.494Zm0-3.176h2.7a2.542,2.542,0,0,0,1.822-.6,2.221,2.221,0,0,0,.627-1.687,2.745,2.745,0,0,0-.645-1.91,2.282,2.282,0,0,0-1.758-.727h-2.742ZM-79.43,0h-3.961V-18h3.961Zm9.574,0a4.459,4.459,0,0,1-.375-1.137A3.672,3.672,0,0,1-73.277.234,4.5,4.5,0,0,1-76.324-.85a3.45,3.45,0,0,1-1.254-2.725,3.546,3.546,0,0,1,1.523-3.117,7.761,7.761,0,0,1,4.43-1.055h1.219v-.671q0-1.755-1.512-1.755a1.236,1.236,0,0,0-1.406,1.39h-3.949a3.54,3.54,0,0,1,1.564-2.985,6.575,6.575,0,0,1,3.99-1.147,5.764,5.764,0,0,1,3.832,1.184,4.115,4.115,0,0,1,1.441,3.246v5.613A5.748,5.748,0,0,0-65.906-.2V0Zm-2.473-2.578A2.2,2.2,0,0,0-71.1-2.895a1.983,1.983,0,0,0,.7-.715V-5.637h-1.148q-2.062,0-2.062,1.852a1.131,1.131,0,0,0,.363.873A1.315,1.315,0,0,0-72.328-2.578Zm14.707-.984a.912.912,0,0,0-.527-.809,8.021,8.021,0,0,0-2-.633,9.138,9.138,0,0,1-2.437-.861A4.083,4.083,0,0,1-64.055-7.16a3.092,3.092,0,0,1-.5-1.746,3.5,3.5,0,0,1,1.441-2.877,5.938,5.938,0,0,1,3.773-1.131,6.579,6.579,0,0,1,4.031,1.137,3.555,3.555,0,0,1,1.523,2.988H-57.75q0-1.523-1.605-1.523a1.591,1.591,0,0,0-1.043.346,1.07,1.07,0,0,0-.422.861.982.982,0,0,0,.516.855,4.872,4.872,0,0,0,1.646.539,14.228,14.228,0,0,1,1.986.5q2.859.984,2.859,3.527A3.321,3.321,0,0,1-55.354-.855a6.758,6.758,0,0,1-3.99,1.09A6.9,6.9,0,0,1-62.25-.352a4.86,4.86,0,0,1-1.992-1.594,3.609,3.609,0,0,1-.715-2.121h3.691a1.526,1.526,0,0,0,.586,1.283,2.41,2.41,0,0,0,1.441.4,1.9,1.9,0,0,0,1.213-.328A1.05,1.05,0,0,0-57.621-3.562Zm10.254-12.27v3.152h2.086v2.742h-2.086v5.8a1.481,1.481,0,0,0,.258,1,1.383,1.383,0,0,0,1.02.281,5.793,5.793,0,0,0,.984-.07V-.105a7.288,7.288,0,0,1-2.227.34,4.137,4.137,0,0,1-3.012-.961,3.939,3.939,0,0,1-.973-2.918V-9.937h-1.617V-12.68h1.617v-3.152ZM-39.562,0h-3.961V-12.68h3.961Zm-4.2-15.949a1.763,1.763,0,0,1,.609-1.383,2.3,2.3,0,0,1,1.582-.539,2.3,2.3,0,0,1,1.582.539,1.763,1.763,0,0,1,.609,1.383,1.763,1.763,0,0,1-.609,1.383,2.3,2.3,0,0,1-1.582.539,2.3,2.3,0,0,1-1.582-.539A1.763,1.763,0,0,1-43.758-15.949ZM-31.77-2.812a1.756,1.756,0,0,0,1.289-.451,1.654,1.654,0,0,0,.445-1.26h3.7A4.384,4.384,0,0,1-27.826-1.1,5.558,5.558,0,0,1-31.676.234,5.627,5.627,0,0,1-36.035-1.5a6.834,6.834,0,0,1-1.594-4.8v-.164a7.723,7.723,0,0,1,.709-3.393,5.162,5.162,0,0,1,2.045-2.262,6.1,6.1,0,0,1,3.164-.791,5.488,5.488,0,0,1,3.926,1.371,4.863,4.863,0,0,1,1.453,3.715h-3.7a2.168,2.168,0,0,0-.48-1.512A1.658,1.658,0,0,0-31.8-9.867q-1.535,0-1.793,1.957A13.809,13.809,0,0,0-33.68-6.2a5.424,5.424,0,0,0,.457,2.648A1.582,1.582,0,0,0-31.77-2.812Zm6.609-3.645a7.484,7.484,0,0,1,.738-3.381A5.28,5.28,0,0,1-22.3-12.117a6.388,6.388,0,0,1,3.246-.8,5.83,5.83,0,0,1,4.488,1.764,6.768,6.768,0,0,1,1.641,4.8v.141a6.566,6.566,0,0,1-1.646,4.705A5.846,5.846,0,0,1-19.031.234a5.912,5.912,0,0,1-4.348-1.623,6.348,6.348,0,0,1-1.77-4.4Zm3.949.246a4.718,4.718,0,0,0,.551,2.578,1.835,1.835,0,0,0,1.629.82q2.109,0,2.156-3.246v-.4q0-3.41-2.18-3.41-1.98,0-2.145,2.941ZM-4.547-3.562a.912.912,0,0,0-.527-.809,8.021,8.021,0,0,0-2-.633,9.138,9.138,0,0,1-2.437-.861A4.083,4.083,0,0,1-10.98-7.16a3.092,3.092,0,0,1-.5-1.746,3.5,3.5,0,0,1,1.441-2.877A5.938,5.938,0,0,1-6.27-12.914a6.579,6.579,0,0,1,4.031,1.137A3.555,3.555,0,0,1-.715-8.789H-4.676q0-1.523-1.605-1.523a1.591,1.591,0,0,0-1.043.346,1.07,1.07,0,0,0-.422.861.982.982,0,0,0,.516.855,4.872,4.872,0,0,0,1.646.539,14.228,14.228,0,0,1,1.986.5Q-.738-6.223-.738-3.68A3.321,3.321,0,0,1-2.279-.855,6.758,6.758,0,0,1-6.27.234,6.9,6.9,0,0,1-9.176-.352a4.86,4.86,0,0,1-1.992-1.594,3.609,3.609,0,0,1-.715-2.121h3.691a1.526,1.526,0,0,0,.586,1.283,2.41,2.41,0,0,0,1.441.4,1.9,1.9,0,0,0,1.213-.328A1.05,1.05,0,0,0-4.547-3.562Z" transform="translate(461 2753)" fill="#12263f"/>
    <path id="Trazado_208479" data-name="Trazado 208479" d="M-80.344-17.062l3.809,11.871,3.8-11.871h5.414V0h-4.125V-3.984l.4-8.156L-75.176,0h-2.719l-4.137-12.152.4,8.168V0h-4.113V-17.062ZM-58.758.234a6.518,6.518,0,0,1-4.723-1.74,6.009,6.009,0,0,1-1.8-4.529v-.328A7.787,7.787,0,0,1-64.564-9.8a5.274,5.274,0,0,1,2.1-2.3,6.35,6.35,0,0,1,3.281-.814,5.489,5.489,0,0,1,4.219,1.658,6.516,6.516,0,0,1,1.547,4.623V-5.1h-7.852a2.846,2.846,0,0,0,.926,1.676,2.755,2.755,0,0,0,1.852.609,3.549,3.549,0,0,0,2.93-1.312l1.8,2.133A5.045,5.045,0,0,1-55.846-.369,7.069,7.069,0,0,1-58.758.234Zm-.445-10.1q-1.734,0-2.062,2.3h3.984v-.3a1.956,1.956,0,0,0-.48-1.471A1.912,1.912,0,0,0-59.2-9.867Zm11.977-5.965v3.152h2.086v2.742h-2.086v5.8a1.481,1.481,0,0,0,.258,1,1.383,1.383,0,0,0,1.02.281,5.793,5.793,0,0,0,.984-.07V-.105a7.288,7.288,0,0,1-2.227.34A4.137,4.137,0,0,1-50.2-.727a3.939,3.939,0,0,1-.973-2.918V-9.937h-1.617V-12.68h1.617v-3.152ZM-36.445,0a4.459,4.459,0,0,1-.375-1.137A3.672,3.672,0,0,1-39.867.234,4.5,4.5,0,0,1-42.914-.85a3.45,3.45,0,0,1-1.254-2.725,3.546,3.546,0,0,1,1.523-3.117,7.761,7.761,0,0,1,4.43-1.055H-37v-.671q0-1.755-1.512-1.755a1.236,1.236,0,0,0-1.406,1.39h-3.949A3.54,3.54,0,0,1-42.3-11.767a6.575,6.575,0,0,1,3.99-1.147,5.764,5.764,0,0,1,3.832,1.184,4.115,4.115,0,0,1,1.441,3.246v5.613A5.748,5.748,0,0,0-32.5-.2V0Zm-2.473-2.578a2.2,2.2,0,0,0,1.225-.316,1.983,1.983,0,0,0,.7-.715V-5.637h-1.148q-2.062,0-2.062,1.852a1.131,1.131,0,0,0,.363.873A1.315,1.315,0,0,0-38.918-2.578ZM-26.684,0h-3.961V-18h3.961Zm8.566.234a6.518,6.518,0,0,1-4.723-1.74,6.009,6.009,0,0,1-1.8-4.529v-.328A7.787,7.787,0,0,1-23.924-9.8a5.274,5.274,0,0,1,2.1-2.3,6.35,6.35,0,0,1,3.281-.814,5.489,5.489,0,0,1,4.219,1.658,6.516,6.516,0,0,1,1.547,4.623V-5.1h-7.852A2.846,2.846,0,0,0-19.7-3.422a2.755,2.755,0,0,0,1.852.609,3.549,3.549,0,0,0,2.93-1.312l1.8,2.133A5.045,5.045,0,0,1-15.205-.369,7.069,7.069,0,0,1-18.117.234Zm-.445-10.1q-1.734,0-2.062,2.3h3.984v-.3a1.956,1.956,0,0,0-.48-1.471A1.912,1.912,0,0,0-18.562-9.867Zm14.016,6.3a.912.912,0,0,0-.527-.809,8.021,8.021,0,0,0-2-.633,9.138,9.138,0,0,1-2.437-.861A4.083,4.083,0,0,1-10.98-7.16a3.092,3.092,0,0,1-.5-1.746,3.5,3.5,0,0,1,1.441-2.877A5.938,5.938,0,0,1-6.27-12.914a6.579,6.579,0,0,1,4.031,1.137A3.555,3.555,0,0,1-.715-8.789H-4.676q0-1.523-1.605-1.523a1.591,1.591,0,0,0-1.043.346,1.07,1.07,0,0,0-.422.861.982.982,0,0,0,.516.855,4.872,4.872,0,0,0,1.646.539,14.228,14.228,0,0,1,1.986.5Q-.738-6.223-.738-3.68A3.321,3.321,0,0,1-2.279-.855,6.758,6.758,0,0,1-6.27.234,6.9,6.9,0,0,1-9.176-.352a4.86,4.86,0,0,1-1.992-1.594,3.609,3.609,0,0,1-.715-2.121h3.691a1.526,1.526,0,0,0,.586,1.283,2.41,2.41,0,0,0,1.441.4,1.9,1.9,0,0,0,1.213-.328A1.05,1.05,0,0,0-4.547-3.562Z" transform="translate(844 2753)" fill="#fff"/>
    <path id="Trazado_208481" data-name="Trazado 208481" d="M-68.133-5.789V0h-4.113V-17.062h6.809a7.93,7.93,0,0,1,3.463.721,5.431,5.431,0,0,1,2.332,2.051,5.6,5.6,0,0,1,.826,3.018A4.937,4.937,0,0,1-60.6-7.283a7.415,7.415,0,0,1-4.9,1.494Zm0-3.176h2.7a2.542,2.542,0,0,0,1.822-.6,2.221,2.221,0,0,0,.627-1.687,2.745,2.745,0,0,0-.645-1.91,2.282,2.282,0,0,0-1.758-.727h-2.742Zm10.676,2.508a7.484,7.484,0,0,1,.738-3.381A5.28,5.28,0,0,1-54.6-12.117a6.388,6.388,0,0,1,3.246-.8,5.83,5.83,0,0,1,4.488,1.764,6.768,6.768,0,0,1,1.641,4.8v.141a6.566,6.566,0,0,1-1.646,4.705A5.846,5.846,0,0,1-51.328.234a5.912,5.912,0,0,1-4.348-1.623,6.348,6.348,0,0,1-1.77-4.4Zm3.949.246a4.718,4.718,0,0,0,.551,2.578,1.835,1.835,0,0,0,1.629.82q2.109,0,2.156-3.246v-.4q0-3.41-2.18-3.41-1.98,0-2.145,2.941ZM-39.316,0h-3.961V-18h3.961Zm7.488-4.7,2-7.98h4.16L-29.8,0h-4.031l-4.137-12.68H-33.8Zm6.668-1.758a7.484,7.484,0,0,1,.738-3.381A5.28,5.28,0,0,1-22.3-12.117a6.388,6.388,0,0,1,3.246-.8,5.83,5.83,0,0,1,4.488,1.764,6.768,6.768,0,0,1,1.641,4.8v.141a6.566,6.566,0,0,1-1.646,4.705A5.846,5.846,0,0,1-19.031.234a5.912,5.912,0,0,1-4.348-1.623,6.348,6.348,0,0,1-1.77-4.4Zm3.949.246a4.718,4.718,0,0,0,.551,2.578,1.835,1.835,0,0,0,1.629.82q2.109,0,2.156-3.246v-.4q0-3.41-2.18-3.41-1.98,0-2.145,2.941ZM-4.547-3.562a.912.912,0,0,0-.527-.809,8.021,8.021,0,0,0-2-.633,9.138,9.138,0,0,1-2.437-.861A4.083,4.083,0,0,1-10.98-7.16a3.092,3.092,0,0,1-.5-1.746,3.5,3.5,0,0,1,1.441-2.877A5.938,5.938,0,0,1-6.27-12.914a6.579,6.579,0,0,1,4.031,1.137A3.555,3.555,0,0,1-.715-8.789H-4.676q0-1.523-1.605-1.523a1.591,1.591,0,0,0-1.043.346,1.07,1.07,0,0,0-.422.861.982.982,0,0,0,.516.855,4.872,4.872,0,0,0,1.646.539,14.228,14.228,0,0,1,1.986.5Q-.738-6.223-.738-3.68A3.321,3.321,0,0,1-2.279-.855,6.758,6.758,0,0,1-6.27.234,6.9,6.9,0,0,1-9.176-.352a4.86,4.86,0,0,1-1.992-1.594,3.609,3.609,0,0,1-.715-2.121h3.691a1.526,1.526,0,0,0,.586,1.283,2.41,2.41,0,0,0,1.441.4,1.9,1.9,0,0,0,1.213-.328A1.05,1.05,0,0,0-4.547-3.562Z" transform="translate(1226 2753)" fill="#12263f"/>
    <g transform="matrix(1, 0, 0, 1, 285, 2395)" filter="url(#Trazado_208478)">
      <path id="Trazado_208478-2" data-name="Trazado 208478" d="M21,0A21,21,0,1,1,0,21,21,21,0,0,1,21,0Z" transform="translate(203 328.5)" fill="#fff"/>
    </g>
    <g transform="matrix(1, 0, 0, 1, 285, 2395)" filter="url(#Trazado_208480)">
      <path id="Trazado_208480-2" data-name="Trazado 208480" d="M21,0A21,21,0,1,1,0,21,21,21,0,0,1,21,0Z" transform="translate(588 328.5)" fill="#fff"/>
    </g>
    <g transform="matrix(1, 0, 0, 1, 285, 2395)" filter="url(#Trazado_208482)">
      <path id="Trazado_208482-2" data-name="Trazado 208482" d="M21,0A21,21,0,1,1,0,21,21,21,0,0,1,21,0Z" transform="translate(978 328.5)" fill="#fff"/>
    </g>
    <path id="Trazado_208450" data-name="Trazado 208450" d="M106,12.367V1.767c0-.023-.012-.041-.013-.064a1.744,1.744,0,0,0-.122-.613l0,0c-.007-.016-.019-.028-.026-.044a1.737,1.737,0,0,0-.316-.468,1.741,1.741,0,0,0-.135-.122A1.731,1.731,0,0,0,105.018.2a1.688,1.688,0,0,0-.168-.08A1.742,1.742,0,0,0,104.233,0H47.7a1.767,1.767,0,0,0-1.249.518L.518,46.45l0,0a1.748,1.748,0,0,0-.34.5,2.282,2.282,0,0,0-.153.633c0,.038-.022.07-.022.109V58.3a1.767,1.767,0,0,0,1.767,1.767h13.25a7.959,7.959,0,0,1,7.95,7.95v1.919L.518,92.384A1.792,1.792,0,0,0,0,93.633v10.6A1.767,1.767,0,0,0,1.767,106H58.3a1.757,1.757,0,0,0,.693-.142c.024-.01.041-.032.064-.043a1.765,1.765,0,0,0,.505-.351l.017-.012,35.3-37.069,10.6-10.6A1.767,1.767,0,0,0,106,56.533v-10.6c0-.023-.012-.041-.013-.064a1.744,1.744,0,0,0-.122-.613l0,0c-.007-.016-.019-.028-.026-.044a1.83,1.83,0,0,0-.818-.838,1.69,1.69,0,0,0-.168-.08,1.742,1.742,0,0,0-.617-.125H90.983a1.694,1.694,0,0,0-.442.089,1.711,1.711,0,0,0-.442-.089,7.934,7.934,0,0,1-7.883-7.286l23.264-23.264A1.79,1.79,0,0,0,106,12.367ZM48.431,3.533H99.968l-42.4,42.4H6.031Zm-25.465,71.4v8.985a7.959,7.959,0,0,1-7.95,7.95H6.031Zm33.567,27.535h-53V95.4H15.017A11.5,11.5,0,0,0,26.5,83.917v-15.9A11.5,11.5,0,0,0,15.017,56.533H3.533V49.467h53v7.067H45.05A11.5,11.5,0,0,0,33.567,68.017v15.9A11.5,11.5,0,0,0,45.05,95.4H56.533v7.067ZM102.467,55.8,92.353,65.915l-32.287,33.9V94.34L94.882,57.782l7.584-7.584v5.6ZM90.1,47.7a1.694,1.694,0,0,0,.442-.089,1.711,1.711,0,0,0,.442.089h8.985l-7.615,7.615L57.542,91.867H45.05a7.959,7.959,0,0,1-7.95-7.95v-15.9a7.959,7.959,0,0,1,7.95-7.95H58.3a1.779,1.779,0,0,0,1.25-.518L79.224,39.874A11.5,11.5,0,0,0,90.1,47.7Zm12.367-36.065L79.135,34.967h0L60.067,54.035v-5.6l42.4-42.4v5.6Z" transform="translate(747 2508)" fill="#12263f"/>
    <path id="Trazado_208457" data-name="Trazado 208457" d="M102.95,61.524H96.713a22.193,22.193,0,0,0-3.544-10.618L62.86,6.134C60.237,2.241,56.469.005,52.525,0h-.013C48.58,0,44.822,2.22,42.2,6.091L40.348,8.828a2.051,2.051,0,0,0,3.4,2.3L45.6,8.391C47.47,5.625,49.926,4.1,52.512,4.1h.008c2.6,0,5.062,1.539,6.941,4.328L89.773,53.205A17.929,17.929,0,0,1,92.6,61.523H12.407a17.608,17.608,0,0,1,3.354-9.066c.028-.037.055-.074.081-.112L34.548,24.713a2.051,2.051,0,1,0-3.4-2.3L12.483,49.991a21.6,21.6,0,0,0-4.2,11.533H2.051A2.051,2.051,0,0,0,0,63.575,10.272,10.272,0,0,0,8.376,73.656a10.272,10.272,0,0,0,10.082,8.375H86.544a10.272,10.272,0,0,0,10.081-8.376A10.27,10.27,0,0,0,105,63.574a2.05,2.05,0,0,0-2.051-2.05Zm-8.2,8.2h-8.2a2.051,2.051,0,0,0,0,4.1h5.8a6.163,6.163,0,0,1-5.8,4.1H18.458a6.162,6.162,0,0,1-5.8-4.1H70.137a2.051,2.051,0,0,0,0-4.1H10.254a6.162,6.162,0,0,1-5.8-4.1h96.093a6.162,6.162,0,0,1-5.8,4.1Zm0,0" transform="translate(1135.999 2520)" fill="#12263f"/>
    <path id="Trazado_208458" data-name="Trazado 208458" d="M155.051,242.043a2.051,2.051,0,0,0-2.051,2.05v0a2.051,2.051,0,1,0,2.051-2.052Zm0,0" transform="translate(1014.376 2327.595)" fill="#12263f"/>
    <path id="Trazado_208460" data-name="Trazado 208460" d="M251.1,207.094a2.051,2.051,0,1,0-4.1,0h0a2.051,2.051,0,0,0,4.1,0Zm0,0" transform="translate(939.654 2357.007)" fill="#12263f"/>
    <path id="Trazado_208461" data-name="Trazado 208461" d="M352.1,242.093a2.051,2.051,0,0,0-4.1,0v0a2.051,2.051,0,1,0,4.1,0Zm0,0" transform="translate(859.367 2329.186)" fill="#12263f"/>
    <path id="cuadra" d="M73.9,0,34.3,22.866V68.6L73.9,91.465,113.507,68.6V22.866Zm31.565,24.413L73.9,42.629,42.336,24.413,73.9,6.189ZM39.656,29.054,71.222,47.271V83.729L39.656,65.5ZM76.582,83.729V47.271l31.566-18.217V65.5Z" transform="translate(336.704 2515)" fill="#12263f"/>
  </g>
</svg>
