<svg xmlns="http://www.w3.org/2000/svg" width="136" height="136" viewBox="0 0 136 136">
  <g id="Grupo_145184" data-name="Grupo 145184" transform="translate(-383 -846)">
    <circle id="Elipse_5334" data-name="Elipse 5334" cx="68" cy="68" r="68" transform="translate(383 846)" fill="#ff9500" opacity="0.95" style="isolation: isolate"/>
    <circle id="Elipse_5333" data-name="Elipse 5333" cx="55" cy="55" r="55" transform="translate(396 859)" fill="#efefef" opacity="0.95" style="isolation: isolate"/>
    <g id="_3d-printing" data-name="3d-printing" transform="translate(410.668 869)">
      <path id="Trazado_208336" data-name="Trazado 208336" d="M2.582,4.5h11.25V6.75a6.758,6.758,0,0,0,6.75,6.75h6.75V24.75a11.259,11.259,0,0,0,6.75,10.3v7.7a6.74,6.74,0,0,0,4.5,6.336v2.664a2.25,2.25,0,1,0,4.5,0V49.086a6.738,6.738,0,0,0,4.5-6.336v-7.7a11.256,11.256,0,0,0,6.75-10.3V13.5h6.75a6.757,6.757,0,0,0,6.75-6.75V4.5h11.25a2.25,2.25,0,0,0,0-4.5H2.582a2.25,2.25,0,1,0,0,4.5Zm40.5,38.25a2.25,2.25,0,0,1-4.5,0V36h4.5Zm6.75-18a6.757,6.757,0,0,1-6.75,6.75h-4.5a6.757,6.757,0,0,1-6.75-6.75V13.5h18ZM63.332,4.5V6.75A2.252,2.252,0,0,1,61.082,9h-40.5a2.251,2.251,0,0,1-2.249-2.25V4.5Zm0,0" fill="#255065"/>
      <path id="Trazado_208337" data-name="Trazado 208337" d="M79.082,304.332h-72a2.25,2.25,0,0,1,0-4.5h58.5a6.75,6.75,0,1,0,0-13.5H45.332a2.252,2.252,0,0,1-2.25-2.25v-4.5a2.25,2.25,0,1,0-4.5,0v4.5a6.757,6.757,0,0,0,6.75,6.75h20.25a2.25,2.25,0,0,1,0,4.5H7.082a6.75,6.75,0,1,0,0,13.5h72a2.25,2.25,0,0,0,0-4.5Zm0,0" transform="translate(0 -218.833)" fill="#255065"/>
    </g>
  </g>
</svg>
