<svg id="Grupo_145057" data-name="Grupo 145057" xmlns="http://www.w3.org/2000/svg" xmlns:xlink="http://www.w3.org/1999/xlink" width="219.094" height="150.356" viewBox="0 0 219.094 150.356">
  <defs>
    <clipPath id="clip-path">
      <rect id="Rectángulo_294971" data-name="Rectángulo 294971" width="211.701" height="121.86" fill="none"/>
    </clipPath>
  </defs>
  <path id="Trazado_208217" data-name="Trazado 208217" d="M1034.579,96.919h64.977V208.212a15.279,15.279,0,0,1-15.279,15.279H895.746a15.281,15.281,0,0,1-15.281-15.277V96.922Z" transform="translate(-880.462 -73.135)" fill="#daf1f7"/>
  <path id="Trazado_208218" data-name="Trazado 208218" d="M880.456,9.087A8.842,8.842,0,0,1,889.026,0h201.946a8.842,8.842,0,0,1,8.57,9.091V23.713H880.456Z" transform="translate(-880.452 0.004)" fill="#ff9500"/>
  <g id="Grupo_145039" data-name="Grupo 145039" transform="translate(3.698 26.14)" opacity="0.61" style="mix-blend-mode: multiply;isolation: isolate">
    <g id="Grupo_145038" data-name="Grupo 145038" transform="translate(0 0)">
      <g id="Grupo_145037" data-name="Grupo 145037" clip-path="url(#clip-path)">
        <rect id="Rectángulo_294960" data-name="Rectángulo 294960" width="1.35" height="121.862" transform="translate(25.356 -0.001)" fill="#c3ccd1"/>
        <rect id="Rectángulo_294961" data-name="Rectángulo 294961" width="1.35" height="121.862" transform="translate(55.963 -0.001)" fill="#c3ccd1"/>
        <rect id="Rectángulo_294962" data-name="Rectángulo 294962" width="1.35" height="121.862" transform="translate(88.971 -0.001)" fill="#c3ccd1"/>
        <rect id="Rectángulo_294963" data-name="Rectángulo 294963" width="1.35" height="121.862" transform="translate(119.578 -0.001)" fill="#c3ccd1"/>
        <rect id="Rectángulo_294964" data-name="Rectángulo 294964" width="1.35" height="121.862" transform="translate(148.985 -0.001)" fill="#c3ccd1"/>
        <rect id="Rectángulo_294965" data-name="Rectángulo 294965" width="1.35" height="121.862" transform="translate(179.592 -0.001)" fill="#c3ccd1"/>
        <rect id="Rectángulo_294966" data-name="Rectángulo 294966" width="211.7" height="0.868" transform="translate(0 13.604)" fill="#c3ccd1"/>
        <rect id="Rectángulo_294967" data-name="Rectángulo 294967" width="211.7" height="0.868" transform="translate(0 38.401)" fill="#c3ccd1"/>
        <rect id="Rectángulo_294968" data-name="Rectángulo 294968" width="211.7" height="0.868" transform="translate(0 63.198)" fill="#c3ccd1"/>
        <rect id="Rectángulo_294969" data-name="Rectángulo 294969" width="211.7" height="0.868" transform="translate(0 87.995)" fill="#c3ccd1"/>
        <rect id="Rectángulo_294970" data-name="Rectángulo 294970" width="211.7" height="0.868" transform="translate(0 112.791)" fill="#c3ccd1"/>
      </g>
    </g>
  </g>
  <rect id="Rectángulo_294972" data-name="Rectángulo 294972" width="20.474" height="71.323" transform="translate(66.598 52.637)" fill="#e03748"/>
  <rect id="Rectángulo_294973" data-name="Rectángulo 294973" width="20.474" height="71.323" transform="translate(66.598 52.637)" fill="#00586d"/>
  <path id="Trazado_208219" data-name="Trazado 208219" d="M1109.308,250.891h89.527V151.343h-89.527Zm74.726-12.724h-60.324V166.841h60.324Z" transform="translate(-1053.149 -114.204)" fill="#0096c0"/>
  <rect id="Rectángulo_294974" data-name="Rectángulo 294974" width="16.375" height="99.552" transform="translate(145.687 37.135)" fill="#e03748"/>
  <rect id="Rectángulo_294975" data-name="Rectángulo 294975" width="16.375" height="99.552" transform="translate(145.687 37.135)" fill="#00586d"/>
  <path id="Trazado_208220" data-name="Trazado 208220" d="M1428.616,151.328c.14.133-3.063,3.711-7.148,7.99s-7.514,7.645-7.654,7.51,3.061-3.709,7.149-7.99,7.515-7.646,7.653-7.51" transform="translate(-1282.929 -114.19)" fill="#12263f"/>
  <path id="Trazado_208221" data-name="Trazado 208221" d="M1123.687,166.823c-.141.131-3.478-3.234-7.455-7.513s-7.085-7.861-6.947-7.988,3.478,3.233,7.455,7.515,7.088,7.856,6.946,7.985" transform="translate(-1053.129 -114.186)" fill="#12263f"/>
  <path id="Trazado_208222" data-name="Trazado 208222" d="M1169.127,153.045c-.131.141-.674-.153-1.217-.655s-.873-1.023-.743-1.164.676.153,1.216.655.876,1.023.744,1.164" transform="translate(-1096.789 -114.088)" fill="#12263f"/>
  <path id="Trazado_208223" data-name="Trazado 208223" d="M1196.81,178.761c-.131.141-1.188-.631-2.365-1.721s-2.025-2.092-1.893-2.234,1.188.631,2.365,1.723,2.024,2.092,1.893,2.232" transform="translate(-1115.956 -131.897)" fill="#12263f"/>
  <path id="Trazado_208224" data-name="Trazado 208224" d="M1229.172,208.794c-.131.142-.676-.151-1.217-.653s-.875-1.024-.743-1.165.676.153,1.217.655.873,1.024.743,1.164" transform="translate(-1142.099 -156.158)" fill="#12263f"/>
  <path id="Trazado_208225" data-name="Trazado 208225" d="M1109.3,517.867c-.127-.145,2.992-3.108,6.969-6.625s7.3-6.247,7.431-6.1-2.993,3.108-6.969,6.625-7.307,6.247-7.431,6.1" transform="translate(-1053.138 -381.179)" fill="#12263f"/>
  <path id="Trazado_208226" data-name="Trazado 208226" d="M1428.616,517.864c-.125.145-3.542-2.585-7.628-6.1s-7.3-6.483-7.175-6.628,3.54,2.585,7.628,6.1,7.3,6.482,7.175,6.628" transform="translate(-1282.929 -381.176)" fill="#12263f"/>
  <path id="Trazado_208227" data-name="Trazado 208227" d="M1480.414,508.56c-.125.145-1.135-.517-2.253-1.48s-1.926-1.861-1.8-2.011,1.135.516,2.254,1.478,1.926,1.866,1.8,2.013" transform="translate(-1330.122 -381.114)" fill="#12263f"/>
  <path id="Trazado_208228" data-name="Trazado 208228" d="M1513.452,536.974c-.125.145-1.134-.516-2.253-1.478s-1.927-1.861-1.8-2.011,1.134.517,2.254,1.48,1.927,1.863,1.8,2.009" transform="translate(-1355.052 -402.557)" fill="#12263f"/>
  <path id="Trazado_208229" data-name="Trazado 208229" d="M1227.075,504.085c0,.193-13.6.347-30.363.347s-30.366-.155-30.366-.347,13.592-.347,30.366-.347,30.363.155,30.363.347" transform="translate(-1096.191 -380.125)" fill="#12263f"/>
  <path id="Trazado_208230" data-name="Trazado 208230" d="M1472.542,252.333c-.19,0-.347-22.21-.347-49.6s.156-49.605.347-49.605.349,22.2.349,49.605-.156,49.6-.349,49.6" transform="translate(-1326.988 -115.551)" fill="#12263f"/>
  <path id="Trazado_208231" data-name="Trazado 208231" d="M1166.884,217.313c.191,0,.347,15.793.347,35.27s-.156,35.273-.347,35.273-.349-15.79-.349-35.273.156-35.27.349-35.27" transform="translate(-1096.333 -163.986)" fill="#12263f"/>
  <path id="Trazado_208232" data-name="Trazado 208232" d="M1166.862,206.41c.192,0,.35.6.353,1.336s-.151,1.338-.342,1.338-.35-.6-.353-1.335.151-1.338.342-1.339" transform="translate(-1096.322 -155.758)" fill="#12263f"/>
  <path id="Trazado_208233" data-name="Trazado 208233" d="M1166.5,176.955c.193,0,.365.8.379,1.8s-.124,1.81-.317,1.812-.366-.8-.38-1.8.125-1.812.318-1.812" transform="translate(-1096.067 -133.531)" fill="#12263f"/>
  <path id="Trazado_208234" data-name="Trazado 208234" d="M1166.2,151.344c.192,0,.35.6.353,1.336s-.151,1.337-.342,1.338-.35-.6-.353-1.335.151-1.339.342-1.339" transform="translate(-1095.824 -114.205)" fill="#12263f"/>
  <path id="Trazado_208235" data-name="Trazado 208235" d="M1226.25,506.764c-.116-.153.263-.64.863-1.081.579-.428,1.232-.69,1.313-.431.063.105-.3.558-.9.993s-1.157.673-1.275.519" transform="translate(-1141.379 -381.19)" fill="#12263f"/>
  <path id="Trazado_208236" data-name="Trazado 208236" d="M1192.751,528c-.121-.15.7-1,1.833-1.9s2.148-1.505,2.267-1.354-.7,1.005-1.835,1.9-2.146,1.509-2.265,1.354" transform="translate(-1116.107 -395.965)" fill="#12263f"/>
  <path id="Trazado_208237" data-name="Trazado 208237" d="M1167.538,553c-.12-.15.249-.645.822-1.107s1.139-.717,1.259-.567-.247.648-.822,1.11-1.138.713-1.259.565" transform="translate(-1097.073 -416)" fill="#12263f"/>
  <path id="Trazado_208238" data-name="Trazado 208238" d="M1166.541,503.64c.192,0,.348.6.348,1.336s-.156,1.336-.348,1.336-.348-.6-.348-1.336.156-1.336.348-1.336" transform="translate(-1096.075 -380.051)" fill="#12263f"/>
  <path id="Trazado_208239" data-name="Trazado 208239" d="M1166.542,528.169c-.192,0-.349-.6-.349-1.344s.157-1.344.349-1.344.347.6.347,1.344-.153,1.344-.347,1.344" transform="translate(-1096.075 -396.534)" fill="#12263f"/>
  <path id="Trazado_208240" data-name="Trazado 208240" d="M1166.541,547.38c.192,0,.348.6.348,1.336s-.156,1.336-.348,1.336-.348-.6-.348-1.336.156-1.336.348-1.336" transform="translate(-1096.075 -413.058)" fill="#12263f"/>
  <path id="Trazado_208241" data-name="Trazado 208241" d="M1418,214.067c0,.191-1.2.347-2.672.347s-2.674-.156-2.674-.347,1.2-.349,2.674-.349,2.672.156,2.672.349" transform="translate(-1282.057 -161.273)" fill="#12263f"/>
  <path id="Trazado_208242" data-name="Trazado 208242" d="M1461.573,214.067c0,.191-1.2.347-2.674.347s-2.673-.156-2.673-.347,1.2-.349,2.673-.349,2.674.156,2.674.349" transform="translate(-1314.937 -161.273)" fill="#12263f"/>
  <path id="Trazado_208243" data-name="Trazado 208243" d="M1505.152,214.067c0,.191-1.2.347-2.674.347s-2.673-.156-2.673-.347,1.2-.349,2.673-.349,2.674.156,2.674.349" transform="translate(-1347.823 -161.273)" fill="#12263f"/>
  <path id="Trazado_208244" data-name="Trazado 208244" d="M1477.67,199.678c.136.136-.6,1.092-1.645,2.136s-2,1.78-2.136,1.645.6-1.1,1.645-2.137,2-1.782,2.136-1.644" transform="translate(-1328.254 -150.666)" fill="#12263f"/>
  <path id="Trazado_208245" data-name="Trazado 208245" d="M1508.47,168.864c.137.136-.6,1.1-1.646,2.137s-2,1.779-2.138,1.645.6-1.092,1.645-2.137,2-1.779,2.138-1.645" transform="translate(-1351.494 -127.414)" fill="#12263f"/>
  <path id="Trazado_208246" data-name="Trazado 208246" d="M1535.417,151.913c.134.136.183.31.1.389s-.252.033-.389-.1-.183-.31-.1-.388.252-.033.389.1" transform="translate(-1374.372 -114.528)" fill="#12263f"/>
  <path id="Trazado_208247" data-name="Trazado 208247" d="M1417.569,501.88c0,.193-1.2.347-2.673.347s-2.674-.154-2.674-.347,1.2-.347,2.674-.347,2.673.155,2.673.347" transform="translate(-1281.732 -378.461)" fill="#12263f"/>
  <path id="Trazado_208248" data-name="Trazado 208248" d="M1461.145,501.88c0,.193-1.2.347-2.673.347s-2.674-.154-2.674-.347,1.2-.347,2.674-.347,2.673.155,2.673.347" transform="translate(-1314.614 -378.461)" fill="#12263f"/>
  <path id="Trazado_208249" data-name="Trazado 208249" d="M1504.724,501.88c0,.193-1.2.347-2.673.347s-2.674-.154-2.674-.347,1.2-.347,2.674-.347,2.673.155,2.673.347" transform="translate(-1347.5 -378.461)" fill="#12263f"/>
  <path id="Trazado_208250" data-name="Trazado 208250" d="M1543.356,501.88c0,.193-.083.347-.183.347s-.183-.154-.183-.347.084-.347.183-.347.183.155.183.347" transform="translate(-1380.411 -378.461)" fill="#12263f"/>
  <path id="Trazado_208251" data-name="Trazado 208251" d="M976.4,29.33a6.176,6.176,0,1,0,6.176-6.176A6.176,6.176,0,0,0,976.4,29.33" transform="translate(-952.855 -17.471)" fill="#0ca4ca"/>
  <path id="Trazado_208252" data-name="Trazado 208252" d="M1045.044,29.33a6.176,6.176,0,1,0,6.176-6.176,6.176,6.176,0,0,0-6.176,6.176" transform="translate(-1004.655 -17.471)" fill="#f3f9ff"/>
  <path id="Trazado_208253" data-name="Trazado 208253" d="M921.574,29.33a6.176,6.176,0,1,0-6.176,6.176,6.176,6.176,0,0,0,6.176-6.176" transform="translate(-902.162 -17.471)" fill="#12263f"/>
</svg>
