<svg xmlns="http://www.w3.org/2000/svg" width="76.394" height="76.835" viewBox="0 0 76.394 76.835">
  <g id="Grupo_145184" data-name="Grupo 145184" transform="translate(-915.146 -195.242)">
    <path id="Trazado_208330" data-name="Trazado 208330" d="M184.534,385.013a20.141,20.141,0,0,1,1.111-4.066l-2.957-1.15a23.2,23.2,0,0,1,2.235-4.336l2.657,1.745a20.131,20.131,0,0,1,2.668-3.256l-2.236-2.261a23.458,23.458,0,0,1,3.8-3.047l1.721,2.674a20.3,20.3,0,0,1,3.765-1.9l-1.129-2.973a23.23,23.23,0,0,1,4.716-1.243l.482,3.137a19.994,19.994,0,0,1,4.205-.209l.184-3.163a23.775,23.775,0,0,1,4.811.783l-.831,3.059a20.028,20.028,0,0,1,3.923,1.528l1.454-2.824a23.222,23.222,0,0,1,4.078,2.675l-2.014,2.461a20.236,20.236,0,0,1,2.964,2.99l2.48-1.987a23.537,23.537,0,0,1,2.639,4.1l-2.84,1.435a20.154,20.154,0,0,1,1.5,3.936l3.074-.811a23.261,23.261,0,0,1,.743,4.821l-3.169.151a20.111,20.111,0,0,1-.233,4.183.151.151,0,0,1,0,.022l3.127.507a23.5,23.5,0,0,1-1.275,4.706l-2.959-1.15a19.991,19.991,0,0,1-1.928,3.741l2.659,1.743a23.326,23.326,0,0,1-3.084,3.775l-2.238-2.259a20.365,20.365,0,0,1-3.284,2.639l1.722,2.672a23.393,23.393,0,0,1-4.348,2.2l-1.133-2.972a20.038,20.038,0,0,1-4.068,1.082l.485,3.138a23.293,23.293,0,0,1-4.871.234l.181-3.164a20.162,20.162,0,0,1-4.161-.674l-.826,3.06A23.255,23.255,0,0,1,193.783,409l1.45-2.824a20.059,20.059,0,0,1-3.519-2.309l-2.011,2.464a23.416,23.416,0,0,1-3.433-3.459l2.477-1.987a20.335,20.335,0,0,1-2.283-3.54l-2.837,1.438a23.344,23.344,0,0,1-1.738-4.556l3.073-.816a19.974,19.974,0,0,1-.652-4.159l-3.169.153a23.458,23.458,0,0,1,.272-4.857l.011-.064Zm18.217,13.637a10.521,10.521,0,1,0-8.713-12.061,10.521,10.521,0,0,0,8.713,12.061" transform="translate(763.805 -139.498)" fill="#ff9500"/>
    <path id="Trazado_208331" data-name="Trazado 208331" d="M62.427,258.362a16.033,16.033,0,0,1,.753-3.263l-2.384-.818a18.418,18.418,0,0,1,1.636-3.512l2.164,1.3a16.011,16.011,0,0,1,2.014-2.669l-1.847-1.727a18.6,18.6,0,0,1,2.921-2.54l1.45,2.068a16.14,16.14,0,0,1,2.925-1.625l-.993-2.324a18.427,18.427,0,0,1,3.7-1.137l.482,2.477a15.866,15.866,0,0,1,3.332-.3l.046-2.516a18.822,18.822,0,0,1,3.84.469l-.562,2.455a15.861,15.861,0,0,1,3.162,1.088l1.064-2.287a18.477,18.477,0,0,1,3.321,1.994l-1.52,2.018a16.123,16.123,0,0,1,2.448,2.279l1.9-1.657a18.64,18.64,0,0,1,2.228,3.169l-2.208,1.229a15.991,15.991,0,0,1,1.313,3.076l2.414-.743a18.449,18.449,0,0,1,.742,3.8l-2.511.219a15.981,15.981,0,0,1-.052,3.328c0,.007,0,.012,0,.018l2.5.3a18.624,18.624,0,0,1-.863,3.773l-2.385-.815a15.848,15.848,0,0,1-1.413,3.03l2.166,1.3a18.61,18.61,0,0,1-2.328,3.095L90.042,271.2a16.132,16.132,0,0,1-2.521,2.2l1.452,2.066a18.568,18.568,0,0,1-3.382,1.885l-.993-2.324a15.971,15.971,0,0,1-3.2.988l.485,2.476a18.429,18.429,0,0,1-3.859.34l.043-2.517a16.03,16.03,0,0,1-3.324-.4l-.559,2.454a18.5,18.5,0,0,1-3.666-1.254l1.061-2.288a15.994,15.994,0,0,1-2.87-1.721l-1.52,2.02a18.714,18.714,0,0,1-2.835-2.637l1.9-1.66a16.169,16.169,0,0,1-1.924-2.737l-2.206,1.232a18.531,18.531,0,0,1-1.524-3.562l2.413-.745a15.85,15.85,0,0,1-.649-3.276l-2.51.222a18.635,18.635,0,0,1,.062-3.863l.006-.051Zm14.892,10.247a8.358,8.358,0,1,0-7.3-9.3h0a8.367,8.367,0,0,0,7.3,9.3" transform="translate(855.358 -46.539)" fill="#ff9500"/>
  </g>
</svg>
