<svg xmlns="http://www.w3.org/2000/svg" xmlns:xlink="http://www.w3.org/1999/xlink" width="479.001" height="380.857" viewBox="0 0 479.001 380.857">
  <defs>
    <clipPath id="clip-path">
      <rect id="Rectángulo_294978" data-name="Rectángulo 294978" width="2.339" height="129.743" fill="none"/>
    </clipPath>
    <clipPath id="clip-path-2">
      <rect id="Rectángulo_294984" data-name="Rectángulo 294984" width="2.338" height="129.743" fill="none"/>
    </clipPath>
    <clipPath id="clip-path-3">
      <rect id="Rectángulo_294987" data-name="Rectángulo 294987" width="99.118" height="4.224" fill="none"/>
    </clipPath>
    <clipPath id="clip-path-4">
      <rect id="Rectángulo_294991" data-name="Rectángulo 294991" width="11.812" height="9.972" fill="none"/>
    </clipPath>
    <clipPath id="clip-path-5">
      <rect id="Rectángulo_294994" data-name="Rectángulo 294994" width="8.295" height="8.514" fill="none"/>
    </clipPath>
  </defs>
  <g id="Grupo_145184" data-name="Grupo 145184" transform="translate(-900.475 -162.719)">
    <path id="Trazado_208216" data-name="Trazado 208216" d="M379.082,109.246c105.171,0,190.428,85.258,190.428,190.428S484.253,490.1,379.082,490.1,188.654,404.845,188.654,299.674s85.258-190.428,190.428-190.428" transform="translate(758.114 53.473)" fill="#0ca4ca"/>
    <g id="Grupo_145058" data-name="Grupo 145058" transform="translate(915.146 168.219)">
      <path id="Trazado_208254" data-name="Trazado 208254" d="M524.21,1255.669c1.2-9.223,2.24-17.134,2.941-22.573,3.163-24.552,3.839-63.71,0-64.88-3.857-1.17-71.059,28.062-71.059,28.062s-1.73,27.271-3.308,59.391Z" transform="translate(-356.346 -913.833)" fill="#12263f"/>
      <path id="Trazado_208255" data-name="Trazado 208255" d="M716.908,1264.147h78.119q.136-2.233.312-4.46a350.118,350.118,0,0,0,0-51.519s-64.1-29.72-67.547-28.726-11.745,21.215-8.933,32.76c1.482,6.086-.112,30.355-1.951,51.946" transform="translate(-555.658 -922.31)" fill="#12263f"/>
      <path id="Trazado_208256" data-name="Trazado 208256" d="M1018.927,716.963l20.322,37.148L994,766.121s-8.942-33.156-8.1-33.449-1.4-12.48,1.95-12.48,31.078-3.229,31.078-3.229" transform="translate(-758.6 -573.337)" fill="#f2835e"/>
      <path id="Trazado_208257" data-name="Trazado 208257" d="M348.6,892.578l3.366,27.828,29.535-6.716-6.639-27.051Z" transform="translate(-277.728 -701.377)" fill="#fea689"/>
      <path id="Trazado_208258" data-name="Trazado 208258" d="M389.136,169.782a58.235,58.235,0,0,0,12.665,9,86.15,86.15,0,0,0,15.239,6.212c4.392,1.355,10.03,3.694,14.592,1.968,6.615-2.5,8.841-10.484,9.437-17.971q.756,7.465,1.512,14.931a.915.915,0,0,0,1.823-.13c-1.165-11.507-1.512-19.6-3.415-31.007-1.163-6.978-3.755-15.126-10.585-18.53a12.355,12.355,0,0,0-9.841-.686c-3.747,1.374-6.666-1.525-10.769-1.768a23.053,23.053,0,0,0-5.261.035,8.8,8.8,0,0,0-6.38,4.43c-1.012,2.1-1.456,3.232-3.74,4.264-3.244,1.465-9.151,1.726-9.794,6.2-.277,1.928.674,3.756.831,5.645a12.891,12.891,0,0,1-1,5.349,9.55,9.55,0,0,0-.514,2.463c-.263,3.921,2.607,7.13,5.2,9.593" transform="translate(-304.378 -131.663)" fill="#6b3939"/>
      <path id="Trazado_208259" data-name="Trazado 208259" d="M513.137,346.334l4.222,7.774,4.386,8.087,12.949,23.88s26.546-17.969,26.51-18.462c-.058-.527-22.723-40.313-22.781-40.84Z" transform="translate(-401.89 -278.897)" fill="#fea689"/>
      <path id="Trazado_208260" data-name="Trazado 208260" d="M531.58,427.374c-1.269-.407-21.142-2.1-21.142-2.1l-28.692,10.229L457.7,455.678s38.264,6.072,40.489,5.552,21.922-12.635,25.577-16.072,7.81-17.784,7.81-17.784" transform="translate(-360.06 -353.227)" fill="#fea689"/>
      <path id="Trazado_208261" data-name="Trazado 208261" d="M417.638,204.563c.151.576.32,1.15.49,1.724a168.26,168.26,0,0,0,6.745,18.726c3.278,7.152,9.763,15.046,20.486,14.3s19.533-11.6,21.709-19.879c2.159-8.255-2.411-35.53-9.989-44.629-7.577-9.081-25.32-3.212-25.32-3.212s-14.851,8.649-16.582,15.976c-.8,3.375.5,10.063,2.461,17" transform="translate(-327.787 -160.385)" fill="#fea689"/>
      <path id="Trazado_208262" data-name="Trazado 208262" d="M527.729,307.288c.371-1.261,1.925-1.1,2.72-.357a4.822,4.822,0,0,1,1.225,2.267,2.43,2.43,0,0,1-.091,1.586,1.579,1.579,0,0,1-1.865.87A2.473,2.473,0,0,1,528.3,310.4a4.6,4.6,0,0,1-.572-3.109" transform="translate(-412.83 -263.49)" fill="#403630"/>
      <path id="Trazado_208263" data-name="Trazado 208263" d="M454.45,327.332c.388-1.2,1.876-1,2.619-.274a4.627,4.627,0,0,1,1.119,2.207,2.333,2.333,0,0,1-.127,1.52,1.516,1.516,0,0,1-1.811.788,2.375,2.375,0,0,1-1.329-1.242,4.411,4.411,0,0,1-.472-3" transform="translate(-357.522 -278.667)" fill="#403630"/>
      <path id="Trazado_208264" data-name="Trazado 208264" d="M506.065,282.073a.87.87,0,0,1,.456-.888,15.408,15.408,0,0,1,10.244-2.156c.8.148,1.662.545,1.508,1.317-.2,1-1.7,1.051-2.671,1.209-1.822.3-3.6.786-5.394,1.217-1.136.273-3.762,1.031-4.143-.7" transform="translate(-396.542 -242.741)" fill="#6b3939"/>
      <path id="Trazado_208265" data-name="Trazado 208265" d="M425.948,302.6c.151.576.32,1.15.49,1.724a5.6,5.6,0,0,0,2-.455c1.471-.453,2.989-.745,4.487-1.072a16.865,16.865,0,0,0,2.184-.467c.572-.206,1.679-.872,1.641-1.657-.079-1.112-1.614-1.039-2.328-1.025a13.919,13.919,0,0,0-2.872.333,12.733,12.733,0,0,0-5.141,2.182,2.632,2.632,0,0,0-.464.436" transform="translate(-336.096 -258.421)" fill="#6b3939"/>
      <path id="Trazado_208266" data-name="Trazado 208266" d="M421.361,173.772c7.088-4.415,17.351-7.468,25.96-6.41,19.445,2.391,19.6,45.628,19.6,45.628s-6.571-10.781-10.075-16.043c-3.165-7.063-9.528-16.2-16.749-16.948-3.194-.33-5.847.7-8.765,1.876-2.992,1.21-6.068,1.494-9.153,2.315-4.761,1.267-7.8,7.354-7.291,11.67,0,.022-5.739-14.48,6.475-22.087" transform="translate(-326.733 -158.443)" fill="#6b3939"/>
      <path id="Trazado_208267" data-name="Trazado 208267" d="M580.657,276.835l6.081,9.97a.922.922,0,0,0,1.445.082c3.194-3.824,4.692-9.906.774-13.949-2.924-3.017-6.477-.753-7.253,2.5a.945.945,0,0,0-1.047,1.392" transform="translate(-452.733 -237.203)" fill="#fea689"/>
      <path id="Trazado_208268" data-name="Trazado 208268" d="M461.759,429.47s-13.181,14.754-26.572,19.278c-15.8,5.336-27.559.287-27.559.287s-28.865,15.841-31.3,20.164,12.227,88.149,15.947,110.748,2.992,68.191,2.992,68.191,34.416-1.569,63.8-4.372,57.276-.639,65.248,0,14.2,3.288,16.906.151-2.238-52.714-7.369-89.376c-2.052-14.662-3.206-35.853-7.069-56-5.795-30.224-9.626-59.529-23.2-66.493-7.33-3.761-41.826-2.58-41.826-2.58" transform="translate(-298.452 -356.259)" fill="#f3f9ff"/>
      <path id="Trazado_208269" data-name="Trazado 208269" d="M495.652,344.861a.926.926,0,0,0,.261-.038l5.081-1.509a.914.914,0,1,0-.521-1.753L496.3,342.8l-1.973-7.754a.914.914,0,0,0-1.771.45l2.207,8.675a.915.915,0,0,0,.886.689" transform="translate(-386.341 -284.617)" fill="#f2835e"/>
      <path id="Trazado_208270" data-name="Trazado 208270" d="M534.486,172.371c.481-1.172.493-2.435,1.363-3.428.407-.464.968-.728,1.4-1.154a2.915,2.915,0,0,0,.8-2.1c.277-2.489,2.372-3.958,4.668-4.441a.915.915,0,0,1,.416,1.78c-1.672.351-2.988,1.221-3.286,2.979a4.915,4.915,0,0,1-.449,2.152,7.094,7.094,0,0,1-1.625,1.506c-1.063.9-1.047,2.033-1.544,3.244-.442,1.079-2.195.552-1.747-.539" transform="translate(-417.945 -153.972)" fill="#522828"/>
      <path id="Trazado_208271" data-name="Trazado 208271" d="M551.773,207.969a25.275,25.275,0,0,1,6.556,9.305c.441,1.079-1.161,1.962-1.606.875a24.045,24.045,0,0,0-6.277-8.922c-.877-.788.457-2.039,1.327-1.258" transform="translate(-429.828 -189.058)" fill="#522828"/>
      <path id="Trazado_208272" data-name="Trazado 208272" d="M394.984,189.568c2.184-5.209,7.208-7.3,12.291-8.858,1.125-.345,1.537,1.437.416,1.78-4.374,1.34-9.056,3.075-10.96,7.617-.451,1.075-2.2.549-1.747-.539" transform="translate(-312.674 -168.641)" fill="#522828"/>
      <path id="Trazado_208273" data-name="Trazado 208273" d="M443.068,153.55a36.187,36.187,0,0,1,8.615-1.428c1.174-.054,1.1,1.774-.072,1.827a34.141,34.141,0,0,0-8.127,1.381c-1.129.333-1.542-1.448-.416-1.78" transform="translate(-348.513 -147.101)" fill="#522828"/>
      <path id="Trazado_208274" data-name="Trazado 208274" d="M468.346,309.053c6.184,2.474,10.916,1.027,16.335-1.356,4.89-2.151,9.285-10.184,9.249-15.849-.032-5.015-.094-12.451-2.5-19.613-4.245-12.619-6.682-14.4-6.682-14.4s4.035,11.15,4.305,18.411a50.618,50.618,0,0,1-1.362,12.943c-.9,3.6-7.027,10.467-10.746,5.563-.772-1.018-.519-2.293-1.057-3.447a.915.915,0,0,0-1.011-.453,9.143,9.143,0,0,1-3.37.735.927.927,0,0,0-.926,1.121c.338,1.139,1.569,3.514,1.351,4.681-.728,3.9-5.131,3.293-6.739,2.5-3-1.486-7.445-5.118-9.013-7.978-.278-.592,6.334,14.814,12.169,17.148" transform="translate(-358.901 -226.871)" fill="#6b3939"/>
      <path id="Trazado_208275" data-name="Trazado 208275" d="M502.972,384.229a12.384,12.384,0,0,0,9.062-3.886.914.914,0,0,0-1.343-1.241,11.494,11.494,0,0,1-5.106,2.985,9.587,9.587,0,0,1-4.942.005.915.915,0,0,0-.626,1.719,9.3,9.3,0,0,0,2.955.418" transform="translate(-391.54 -318.163)" fill="#f2835e"/>
      <path id="Trazado_208276" data-name="Trazado 208276" d="M540.658,733.819c2.277-4.182,5.119-11.831,11.262-9.4,1.187.469,2.032,1.5,3.157,2.014,5.752,2.638,5.3.3,7.019-2.559.972-1.613,2.068-2.818,4.058-2.942,3.022-.188,5.235,2.606,7.653,3.885,4.666,2.467,6.412-.446,9.037-4.17.872-1.238,1.315-2.508,2.756-3.224,4.3-2.137,10.267,3.795,13.1,6.378.871.793-.5,2-1.366,1.216-2.992-2.728-9.331-8.492-12.846-3.438-1.185,1.7-1.305,3.747-3.057,5.083-4.1,3.124-7.945-.38-11.488-2.288-8.12-4.373-5.431,5.164-11.435,5.323-2.222.059-3.556-1.581-5.395-2.428-6.63-3.056-8.6,3.279-10.933,7.568-.563,1.035-2.081.015-1.522-1.012" transform="translate(-422.566 -573.337)" fill="#0ca4ca"/>
      <path id="Trazado_208277" data-name="Trazado 208277" d="M509.026,464.66a52.245,52.245,0,0,0,13.243-1.844c23.166-6.072,31.289-20.786,31.623-21.409a.914.914,0,0,0-1.61-.866c-.079.147-8.125,14.648-30.477,20.507-17.549,4.6-26-1.267-26.083-1.328a.915.915,0,0,0-1.075,1.48c.265.191,4.9,3.46,14.379,3.46" transform="translate(-387.655 -364.385)" fill="#999"/>
      <path id="Trazado_208278" data-name="Trazado 208278" d="M108.322,798.1,76.749,838.992l13.33,23.474,41.97-53.854Z" transform="translate(-72.587 -634.565)" fill="#f2835e"/>
      <path id="Trazado_208279" data-name="Trazado 208279" d="M241.935,564.374s-15.823,8.452-28.149,21.934c-10.693,11.7-27.207,35.873-27.207,35.873L228.8,662.759l36.849-33.643Z" transform="translate(-155.466 -458.192)" fill="#f3f9ff"/>
      <path id="Trazado_208280" data-name="Trazado 208280" d="M369.392,672.434a.95.95,0,0,0,.175-.016.916.916,0,0,0,.725-1.071l-8.607-44.789a.915.915,0,0,0-1.8.346l8.607,44.789a.914.914,0,0,0,.9.741" transform="translate(-286.235 -504.556)" fill="#999"/>
      <path id="Trazado_208281" data-name="Trazado 208281" d="M833.74,432.678s29.549,1.716,41.051,20.69S903.7,504.61,903.7,504.61l-56.485,19.724s-21.452-55.1-21.672-56.919,8.2-34.737,8.2-34.737" transform="translate(-637.633 -358.812)" fill="#f3f9ff"/>
      <path id="Trazado_208282" data-name="Trazado 208282" d="M920.149,637.119a.908.908,0,0,0,.289-.046.917.917,0,0,0,.578-1.157L906.58,592.68a.915.915,0,0,0-1.735.578l14.438,43.236a.915.915,0,0,0,.868.625" transform="translate(-697.441 -479.08)" fill="#999"/>
      <rect id="Rectángulo_294976" data-name="Rectángulo 294976" width="19.311" height="129.743" transform="translate(69.453 175.877)" fill="#324249"/>
      <g id="Grupo_145042" data-name="Grupo 145042" transform="translate(69.453 175.877)" opacity="0.31">
        <g id="Grupo_145041" data-name="Grupo 145041" transform="translate(0 0)">
          <g id="Grupo_145040" data-name="Grupo 145040" clip-path="url(#clip-path)">
            <rect id="Rectángulo_294977" data-name="Rectángulo 294977" width="2.338" height="129.743" transform="translate(0 0)" fill="#fff"/>
          </g>
        </g>
      </g>
      <path id="Trazado_208283" data-name="Trazado 208283" d="M223.551,820.419V985.54h23.384v-5.123a4.975,4.975,0,0,1,4.978-4.971h19.612a4.975,4.975,0,0,1,4.979,4.971v5.123h15.841V820.419Zm16.9,24.138a11.088,11.088,0,0,1,11.088-11.089h20.819a11.088,11.088,0,0,1,11.089,11.089v93.234a11.088,11.088,0,0,1-11.089,11.088H251.536a11.088,11.088,0,0,1-11.088-11.088Z" transform="translate(-183.365 -651.406)" fill="#b56a00"/>
      <path id="Trazado_208284" data-name="Trazado 208284" d="M361.88,935.21c0-5.166,2.5-9.354,5.582-9.354s5.582,4.188,5.582,9.354-2.5,9.353-5.582,9.353-5.582-4.188-5.582-9.353" transform="translate(-287.75 -730.971)" fill="#8c8180"/>
      <rect id="Rectángulo_294979" data-name="Rectángulo 294979" width="2.715" height="18.726" transform="translate(79.524 194.877)" fill="#8c8180"/>
      <path id="Trazado_208285" data-name="Trazado 208285" d="M371.1,935.21c0-5.166,2.5-9.354,5.582-9.354s5.582,4.188,5.582,9.354-2.5,9.353-5.582,9.353-5.582-4.188-5.582-9.353" transform="translate(-294.709 -730.971)" fill="#706664"/>
      <rect id="Rectángulo_294980" data-name="Rectángulo 294980" width="124.312" height="5.431" transform="translate(83.333 201.826)" fill="#a7b2d9"/>
      <path id="Trazado_208286" data-name="Trazado 208286" d="M394.464,956.675c0,1.508.494,2.73,1.1,2.73s1.1-1.222,1.1-2.73-.494-2.73-1.1-2.73-1.1,1.222-1.1,2.73" transform="translate(-312.338 -752.166)" fill="#a6bfd5"/>
      <path id="Trazado_208287" data-name="Trazado 208287" d="M874.62,935.21c0-5.166,2.5-9.354,5.582-9.354s5.582,4.188,5.582,9.354-2.5,9.353-5.582,9.353-5.582-4.188-5.582-9.353" transform="translate(-674.669 -730.971)" fill="#5a5b5b"/>
      <rect id="Rectángulo_294981" data-name="Rectángulo 294981" width="2.715" height="18.726" transform="translate(205.344 194.877)" fill="#5a5b5b"/>
      <path id="Trazado_208288" data-name="Trazado 208288" d="M883.841,935.21c0-5.166,2.5-9.354,5.582-9.354S895,930.044,895,935.21s-2.5,9.353-5.582,9.353-5.582-4.188-5.582-9.353" transform="translate(-681.627 -730.971)" fill="#414242"/>
      <path id="Trazado_208289" data-name="Trazado 208289" d="M628.574,800.008h3.621V781c0-1.52-.067-3.341-.143-5.364-.371-9.931-.933-24.935,5.8-31.924,2.526-2.624,5.857-3.9,10.185-3.9,5.666,0,9.923,1.648,12.65,4.9,5.129,6.112,3.461,15.959,3.446,16.058l3.564.629c.083-.472,1.966-11.624-4.236-19.014-3.447-4.11-8.636-6.193-15.423-6.193-5.288,0-9.593,1.685-12.793,5.007-7.8,8.1-7.2,24.028-6.81,34.57.074,1.973.141,3.748.141,5.23Z" transform="translate(-488.742 -587.847)" fill="#995900"/>
      <rect id="Rectángulo_294982" data-name="Rectángulo 294982" width="19.311" height="129.743" transform="translate(196.783 175.877)" fill="#324249"/>
      <g id="Grupo_145045" data-name="Grupo 145045" transform="translate(196.783 175.877)" opacity="0.31">
        <g id="Grupo_145044" data-name="Grupo 145044" transform="translate(0 0)">
          <g id="Grupo_145043" data-name="Grupo 145043" clip-path="url(#clip-path-2)">
            <rect id="Rectángulo_294983" data-name="Rectángulo 294983" width="2.338" height="129.743" transform="translate(0 0)" fill="#fff"/>
          </g>
        </g>
      </g>
      <rect id="Rectángulo_294985" data-name="Rectángulo 294985" width="99.118" height="34.095" transform="translate(92.535 284.047)" fill="#a7b2d9"/>
      <g id="Grupo_145048" data-name="Grupo 145048" transform="translate(92.536 284.348)" opacity="0.31">
        <g id="Grupo_145047" data-name="Grupo 145047" transform="translate(0 0)">
          <g id="Grupo_145046" data-name="Grupo 145046" clip-path="url(#clip-path-3)">
            <rect id="Rectángulo_294986" data-name="Rectángulo 294986" width="99.118" height="4.224" fill="#0c0c0c"/>
          </g>
        </g>
      </g>
      <path id="Trazado_208290" data-name="Trazado 208290" d="M428.965,1286.534H531.559a.072.072,0,0,0,.072-.072v-2.722a.072.072,0,0,0-.072-.072H428.965a.072.072,0,0,0-.072.072v2.722a.072.072,0,0,0,.072.072" transform="translate(-338.319 -1000.979)" fill="#8181b9"/>
      <path id="Trazado_208291" data-name="Trazado 208291" d="M579.7,800.008h3.621V781c0-1.52-.067-3.341-.143-5.364-.371-9.931-.933-24.935,5.8-31.924,2.526-2.624,5.857-3.9,10.185-3.9,5.666,0,9.923,1.648,12.649,4.9,5.129,6.112,3.461,15.959,3.446,16.058l3.564.629c.083-.472,1.966-11.624-4.236-19.014-3.448-4.11-8.637-6.193-15.423-6.193-5.288,0-9.593,1.685-12.793,5.007-7.8,8.1-7.2,24.028-6.81,34.57.074,1.973.141,3.748.141,5.23Z" transform="translate(-451.86 -587.847)" fill="#255065"/>
      <rect id="Rectángulo_294988" data-name="Rectángulo 294988" width="9.102" height="19.023" transform="translate(132.735 225.801)" fill="#a7b2d9"/>
      <rect id="Rectángulo_294989" data-name="Rectángulo 294989" width="40.96" height="9.971" transform="translate(116.806 211.33)" fill="#a7b2d9"/>
      <g id="Grupo_145051" data-name="Grupo 145051" transform="translate(145.953 211.33)" opacity="0.25">
        <g id="Grupo_145050" data-name="Grupo 145050" transform="translate(0 0)">
          <g id="Grupo_145049" data-name="Grupo 145049" clip-path="url(#clip-path-4)">
            <rect id="Rectángulo_294990" data-name="Rectángulo 294990" width="11.812" height="9.971" fill="#f5f6f7"/>
          </g>
        </g>
      </g>
      <rect id="Rectángulo_294992" data-name="Rectángulo 294992" width="28.764" height="8.514" transform="translate(122.904 221.225)" fill="#8181b9"/>
      <g id="Grupo_145054" data-name="Grupo 145054" transform="translate(143.372 221.225)" opacity="0.25">
        <g id="Grupo_145053" data-name="Grupo 145053" transform="translate(0 0)">
          <g id="Grupo_145052" data-name="Grupo 145052" clip-path="url(#clip-path-5)">
            <rect id="Rectángulo_294993" data-name="Rectángulo 294993" width="8.295" height="8.514" fill="#f5f6f7"/>
          </g>
        </g>
      </g>
      <path id="Trazado_208292" data-name="Trazado 208292" d="M600.7,1127.405l3.771,6.8h1.764l3.567-6.8a16.8,16.8,0,0,0-9.1,0" transform="translate(-467.968 -882.581)" fill="#8181b9"/>
      <rect id="Rectángulo_294995" data-name="Rectángulo 294995" width="1.79" height="2.148" transform="translate(136.506 251.472)" fill="#8181b9"/>
      <path id="Trazado_208293" data-name="Trazado 208293" d="M738.75,820.419V985.54h23.384v-5.123a4.975,4.975,0,0,1,4.978-4.971h19.612a4.975,4.975,0,0,1,4.979,4.971v5.123h15.841V820.419Zm16.9,24.138a11.088,11.088,0,0,1,11.089-11.089h20.819a11.088,11.088,0,0,1,11.089,11.089v93.234a11.088,11.088,0,0,1-11.089,11.088H766.735a11.088,11.088,0,0,1-11.089-11.088Z" transform="translate(-572.14 -651.406)" fill="#b56a00"/>
      <path id="Trazado_208294" data-name="Trazado 208294" d="M205.414,820.112v165.2h37.113v-5.959a4.451,4.451,0,0,1,4.45-4.45h50.841a4.45,4.45,0,0,1,4.45,4.45v5.959h37.113v-165.2Zm12.446,25.571a12.446,12.446,0,0,1,12.446-12.446h82.824a12.446,12.446,0,0,1,12.446,12.446V936.2a12.446,12.446,0,0,1-12.446,12.446H230.307A12.446,12.446,0,0,1,217.86,936.2Z" transform="translate(-169.679 -651.174)" fill="#ff9500"/>
      <path id="Trazado_208295" data-name="Trazado 208295" d="M282.571,1370.023a7.355,7.355,0,1,1,7.355,7.354,7.363,7.363,0,0,1-7.355-7.354m1.81,0a5.544,5.544,0,1,0,5.544-5.544,5.551,5.551,0,0,0-5.544,5.544" transform="translate(-227.902 -1060.594)" fill="#fff"/>
      <path id="Trazado_208296" data-name="Trazado 208296" d="M371.618,1372.813H362.25a.371.371,0,0,0-.37.369v1.826a.371.371,0,0,0,.37.37h9.369a.371.371,0,0,0,.37-.37v-1.826a.371.371,0,0,0-.37-.369" transform="translate(-287.75 -1068.249)" fill="#12263f"/>
      <path id="Trazado_208297" data-name="Trazado 208297" d="M423.261,1372.813h-9.369a.371.371,0,0,0-.37.369v1.826a.371.371,0,0,0,.37.37h9.369a.371.371,0,0,0,.37-.37v-1.826a.371.371,0,0,0-.37-.369" transform="translate(-326.72 -1068.249)" fill="#12263f"/>
      <path id="Trazado_208298" data-name="Trazado 208298" d="M474.9,1372.813h-9.369a.371.371,0,0,0-.37.369v1.826a.371.371,0,0,0,.37.37H474.9a.371.371,0,0,0,.37-.37v-1.826a.371.371,0,0,0-.37-.369" transform="translate(-365.691 -1068.249)" fill="#12263f"/>
      <path id="Trazado_208299" data-name="Trazado 208299" d="M371.618,1392.179H362.25a.371.371,0,0,0-.37.37v1.825a.371.371,0,0,0,.37.37h9.369a.371.371,0,0,0,.37-.37v-1.825a.371.371,0,0,0-.37-.37" transform="translate(-287.75 -1082.863)" fill="#12263f"/>
      <path id="Trazado_208300" data-name="Trazado 208300" d="M423.261,1392.179h-9.369a.371.371,0,0,0-.37.37v1.825a.371.371,0,0,0,.37.37h9.369a.371.371,0,0,0,.37-.37v-1.825a.371.371,0,0,0-.37-.37" transform="translate(-326.72 -1082.863)" fill="#12263f"/>
      <path id="Trazado_208301" data-name="Trazado 208301" d="M474.9,1392.179h-9.369a.371.371,0,0,0-.37.37v1.825a.371.371,0,0,0,.37.37H474.9a.371.371,0,0,0,.37-.37v-1.825a.371.371,0,0,0-.37-.37" transform="translate(-365.691 -1082.863)" fill="#12263f"/>
      <rect id="Rectángulo_294996" data-name="Rectángulo 294996" width="23.761" height="8.599" transform="translate(115.165 303.357)" fill="#12263f"/>
      <path id="Trazado_208302" data-name="Trazado 208302" d="M534.013,1248.85s5.914-11.419,22.635-11.419,12.745,11.623,12.745,11.623-35.38.2-35.38-.2" transform="translate(-417.643 -966.087)" fill="#dc8999"/>
      <path id="Trazado_208303" data-name="Trazado 208303" d="M102.569,885.615s-27.386,8.859-35.3,15.984c-18.053,16.257.565,33.456,13.819,26.753,9.526-4.818,27.574-29,27.574-29Z" transform="translate(-59.787 -700.604)" fill="#fea689"/>
      <path id="Trazado_208304" data-name="Trazado 208304" d="M205.949,841.028c-2.215,6.363,2.716,14.242,9.919,13.027a10.085,10.085,0,0,0,5.215-3.022c1.378-1.288,2.612-2.957,4.532-3.468,1.9-.507,3.815.822,5.7.331a3.28,3.28,0,0,0,2.027-1.306,17.828,17.828,0,0,0,5.906.89c2.336-.1,2.632-1.416,2.107-3.043,1.249.084,2.468-.238,2.791-1.569.445-1.839-1-3.684-2.532-5.1.077,0,.152,0,.229,0a.891.891,0,0,0,.866-.866c.548-7.277-10.918-13.566-16.8-15.257-4.393-1.263-7.555.9-10.031,4.371-2.056,2.883-9.294,13.186-9.932,15.019" transform="translate(-169.679 -652.051)" fill="#fea689"/>
      <path id="Trazado_208305" data-name="Trazado 208305" d="M722.174,805.579c2.582,1.551,6.346,2.271,9.835,2.6a2.391,2.391,0,0,0-1.711,1.685c-.3,1.7,1.437,2.431,2.7,2.855,4.281,1.439,9.2,1.89,13.626,2.8,5.06,1.039,16.586,4.6,19.675,2.759.274-.164,1.815.214,1.991-.021,3.258-4.322,2.179-14.6,2.179-14.6s-26.449-15.014-41.258-11.62c-2.554.585-2.939,2.112-.633,2.891a44.143,44.143,0,0,0,8.562,1.473,91.108,91.108,0,0,1,9.1,1.958s-8.246-.838-12.891-1.454c-3.626-.481-9.089-1.554-12.156.956a2.452,2.452,0,0,0-.663,1.682c.007.635,1.535,2.038,2.163,1.927a3.356,3.356,0,0,0-2.637,1.5c-.655,1.4,1.041,1.961,2.123,2.611" transform="translate(-557.919 -629.614)" fill="#fea689"/>
      <path id="Trazado_208306" data-name="Trazado 208306" d="M888.821,836.7s2.066.622,5.411,1.591c2.047.585,4.589,1.316,7.422,2.1,13.4,3.711,33.729,8.885,42.8,8.885,18.628,0,24.222-4.552,22.851-14.662-1.371-10.091-8.482-17.458-23.418-17.458-12.907,0-29.378,1.408-39.871,2.468-3.2.311-5.85.6-7.66.8-1.719.2-2.706.311-2.706.311Z" transform="translate(-685.385 -648.942)" fill="#fea689"/>
      <path id="Trazado_208307" data-name="Trazado 208307" d="M910.873,845.876c2.047.585,4.589,1.316,7.422,2.1l2.359-20.767c-3.2.311-5.85.6-7.66.8Z" transform="translate(-702.026 -656.531)" fill="#232c44"/>
      <path id="Trazado_208308" data-name="Trazado 208308" d="M911.256,852.781a6.784,6.784,0,1,0-5.325-7.74,6.646,6.646,0,0,0,5.325,7.74" transform="translate(-698.226 -665.669)" fill="#fff"/>
    </g>
    <g id="Grupo_145059" data-name="Grupo 145059" transform="translate(900.475 487.645)">
      <path id="Trazado_208310" data-name="Trazado 208310" d="M3.793,1447.984h66.3a3.793,3.793,0,0,0,3.792-3.793v-7.023a3.793,3.793,0,0,0-3.792-3.793H3.793A3.793,3.793,0,0,0,0,1437.169v7.023a3.793,3.793,0,0,0,3.793,3.793" transform="translate(0 -1433.376)" fill="#546e7a"/>
      <path id="Trazado_208311" data-name="Trazado 208311" d="M261.212,1452.921a2.628,2.628,0,1,1,2.628,2.628,2.628,2.628,0,0,1-2.628-2.628" transform="translate(-197.113 -1446.142)" fill="#12263f"/>
      <path id="Trazado_208312" data-name="Trazado 208312" d="M20.953,1452.921a2.628,2.628,0,1,1,2.628,2.628,2.628,2.628,0,0,1-2.628-2.628" transform="translate(-15.811 -1446.142)" fill="#12263f"/>
    </g>
    <path id="Trazado_208309" data-name="Trazado 208309" d="M452.809,1507.532H1.071A1.071,1.071,0,0,1,0,1506.461v-12.483a1.071,1.071,0,0,1,1.071-1.071H452.809a1.071,1.071,0,0,1,1.071,1.071v12.483a1.071,1.071,0,0,1-1.071,1.071" transform="translate(900.475 -990.653)" fill="#c3ccd1"/>
    <g id="Grupo_145056" data-name="Grupo 145056" transform="translate(1163.409 337.444)">
      <path id="Trazado_208313" data-name="Trazado 208313" d="M1259.072,950.747H1073.214a1.711,1.711,0,0,1-1.686-2L1093.18,822.7a1.71,1.71,0,0,1,1.686-1.421h185.859a1.711,1.711,0,0,1,1.686,2l-21.653,126.046a1.711,1.711,0,0,1-1.686,1.421" transform="translate(-1071.502 -821.279)" fill="#275287"/>
      <path id="Trazado_208314" data-name="Trazado 208314" d="M1279.988,950.747H1094.13a1.711,1.711,0,0,1-1.686-2L1114.1,822.7a1.71,1.71,0,0,1,1.686-1.421h185.859a1.711,1.711,0,0,1,1.686,2l-21.653,126.046a1.711,1.711,0,0,1-1.686,1.421" transform="translate(-1087.286 -821.279)" fill="#12263f"/>
      <path id="Trazado_208315" data-name="Trazado 208315" d="M1440.294,1293.54h25.235v-62.017h-25.235Zm14.969-14.678a2.712,2.712,0,0,1-5.423,0v-13.618a2.712,2.712,0,0,1,5.423,0Z" transform="translate(-1349.797 -1130.854)" fill="#12263f"/>
      <path id="Trazado_208316" data-name="Trazado 208316" d="M1406.062,1468.406h-82.547a8.554,8.554,0,0,1,8.554-8.554h65.439a8.554,8.554,0,0,1,8.554,8.554" transform="translate(-1261.674 -1303.153)" fill="#12263f"/>
      <path id="Trazado_208317" data-name="Trazado 208317" d="M1174.406,1478.928h140.287a5.132,5.132,0,0,0-5.133-5.132H1179.539a5.133,5.133,0,0,0-5.133,5.132" transform="translate(-1149.155 -1313.676)" fill="#12263f"/>
      <path id="Trazado_208318" data-name="Trazado 208318" d="M1437.663,1266.546a.855.855,0,0,0,.855-.855v-22.565c0-.636.391-1.173.855-1.173h21.813c.464,0,.855.536.855,1.173v22.565a.855.855,0,1,0,1.711,0v-22.565a2.742,2.742,0,0,0-2.566-2.884h-21.813a2.742,2.742,0,0,0-2.566,2.884v22.565a.855.855,0,0,0,.855.855" transform="translate(-1347.166 -1137.433)" fill="#275287"/>
      <path id="Trazado_208319" data-name="Trazado 208319" d="M1344.687,1185.777a1.191,1.191,0,0,1-.247-.987l6.027-33.059a1.422,1.422,0,0,1,1.435-1.034h66.327a1.523,1.523,0,0,1,1.2.546,1.19,1.19,0,0,1,.247.988l-6.026,33.065a1.426,1.426,0,0,1-1.435,1.027h-19.035a.855.855,0,0,1,0-1.711h18.856l5.869-32.2h-65.82l-5.871,32.2h21.733a.855.855,0,1,1,0,1.711h-22.059a1.527,1.527,0,0,1-1.2-.546m1.428-.64a.457.457,0,0,0,.008-.047Zm71.873-33.206.008-.049c0,.017-.007.032-.008.049" transform="translate(-1277.445 -1069.862)" fill="#275287"/>
      <path id="Trazado_208320" data-name="Trazado 208320" d="M1193.015,857.255a1.192,1.192,0,0,1-.244-.994l1.97-10.195a1.422,1.422,0,0,1,1.435-1.034h24.635a1.524,1.524,0,0,1,1.2.546,1.194,1.194,0,0,1,.245,1l-1.97,10.2a1.428,1.428,0,0,1-1.435,1.024h-24.635a1.529,1.529,0,0,1-1.2-.546m1.43-.638c0-.013.005-.025.007-.037Zm24.149-.2h0Zm1.885-9.67h-24.125l-1.806,9.348h24.127Zm.094-.488.007-.037c0,.013,0,.025-.007.037" transform="translate(-1162.993 -839.203)" fill="#275287"/>
      <path id="Trazado_208321" data-name="Trazado 208321" d="M1898.677,869.441a.856.856,0,0,0,.842-.715l3.422-20.53a.855.855,0,1,0-1.687-.28l-3.422,20.53a.854.854,0,0,0,.7.984.837.837,0,0,0,.142.011" transform="translate(-1695.051 -840.838)" fill="#275287"/>
      <path id="Trazado_208322" data-name="Trazado 208322" d="M1877.435,869.441a.855.855,0,0,0,.842-.715l3.422-20.53a.855.855,0,1,0-1.687-.28l-3.422,20.53a.854.854,0,0,0,.7.984.838.838,0,0,0,.142.011" transform="translate(-1679.022 -840.838)" fill="#275287"/>
      <path id="Trazado_208323" data-name="Trazado 208323" d="M1856.186,869.441a.855.855,0,0,0,.842-.715l3.422-20.53a.855.855,0,1,0-1.687-.28l-3.422,20.53a.855.855,0,0,0,.7.984.835.835,0,0,0,.142.011" transform="translate(-1662.986 -840.838)" fill="#275287"/>
      <path id="Trazado_208324" data-name="Trazado 208324" d="M1834.943,869.441a.856.856,0,0,0,.842-.715l3.421-20.53a.855.855,0,0,0-1.688-.28l-3.422,20.53a.855.855,0,0,0,.7.984.837.837,0,0,0,.142.011" transform="translate(-1646.956 -840.838)" fill="#275287"/>
      <path id="Trazado_208325" data-name="Trazado 208325" d="M1813.694,869.441a.855.855,0,0,0,.842-.715l3.422-20.53a.855.855,0,1,0-1.687-.28l-3.422,20.53a.855.855,0,0,0,.7.984.834.834,0,0,0,.142.011" transform="translate(-1630.922 -840.838)" fill="#275287"/>
      <path id="Trazado_208326" data-name="Trazado 208326" d="M1644.219,1302.357a4.165,4.165,0,0,1,4.162-4.162h41.858a4.162,4.162,0,1,1,0,8.323h-41.858a4.166,4.166,0,0,1-4.162-4.162m4.162-2.451a2.451,2.451,0,0,0,0,4.9h41.858a2.451,2.451,0,0,0,0-4.9Z" transform="translate(-1503.681 -1181.165)" fill="#275287"/>
      <path id="Trazado_208327" data-name="Trazado 208327" d="M1440,1168.7a4,4,0,0,1,3.993-3.993h22.1a3.992,3.992,0,1,1,0,7.984h-22.1A4,4,0,0,1,1440,1168.7m3.993-2.282a2.281,2.281,0,1,0,0,4.563h22.1a2.281,2.281,0,1,0,0-4.563Z" transform="translate(-1349.575 -1080.435)" fill="#275287"/>
      <path id="Trazado_208328" data-name="Trazado 208328" d="M1713,1354.53h-8.444a1.071,1.071,0,0,1-1.071-1.071v-9.515h10.586v9.515a1.071,1.071,0,0,1-1.071,1.071" transform="translate(-1548.401 -1215.688)" fill="#12263f"/>
      <path id="Trazado_208329" data-name="Trazado 208329" d="M1718.311,1413.987a397.454,397.454,0,0,1,.463-44.811l-3.415-.234a400.9,400.9,0,0,0-.472,45.045Z" transform="translate(-1556.693 -1234.552)" fill="#12263f"/>
    </g>
  </g>
</svg>
