<svg xmlns="http://www.w3.org/2000/svg" width="39.06" height="39.043" viewBox="0 0 39.06 39.043">
  <path id="Trazado_208332" data-name="Trazado 208332" d="M1789.08,608.841a16.852,16.852,0,0,1,.93-3.406l-2.477-.962a19.46,19.46,0,0,1,1.873-3.632l2.225,1.46a16.858,16.858,0,0,1,2.235-2.727l-1.873-1.894a19.717,19.717,0,0,1,3.184-2.552l1.441,2.24a16.925,16.925,0,0,1,3.15-1.588l-.946-2.491a19.479,19.479,0,0,1,3.951-1.041l.405,2.629a16.76,16.76,0,0,1,3.523-.172l.154-2.649a19.924,19.924,0,0,1,4.026.656l-.7,2.563a16.732,16.732,0,0,1,3.287,1.28l1.216-2.365a19.472,19.472,0,0,1,3.415,2.241l-1.687,2.061a16.931,16.931,0,0,1,2.484,2.5l2.076-1.666a19.638,19.638,0,0,1,2.209,3.432l-2.377,1.2a16.916,16.916,0,0,1,1.255,3.3l2.574-.68a19.5,19.5,0,0,1,.622,4.039l-2.654.126a16.9,16.9,0,0,1-.195,3.5v.019l2.619.425a19.7,19.7,0,0,1-1.067,3.939l-2.478-.959a16.719,16.719,0,0,1-1.616,3.133l2.227,1.46a19.565,19.565,0,0,1-2.583,3.162l-1.884-1.893a16.98,16.98,0,0,1-2.749,2.21l1.443,2.238a19.662,19.662,0,0,1-3.642,1.843l-.948-2.489a16.793,16.793,0,0,1-3.406.906l.405,2.629a19.52,19.52,0,0,1-4.08.2l.151-2.65a16.889,16.889,0,0,1-3.487-.568l-.693,2.563a19.531,19.531,0,0,1-3.811-1.473l1.216-2.367a16.816,16.816,0,0,1-2.947-1.934L1793.4,626.7a19.6,19.6,0,0,1-2.875-2.9l2.074-1.669a17,17,0,0,1-1.911-2.965l-2.375,1.2a19.542,19.542,0,0,1-1.46-3.817l2.574-.683a16.7,16.7,0,0,1-.546-3.487l-2.654.129a19.577,19.577,0,0,1,.228-4.068l.008-.054Zm15.257,11.422a8.812,8.812,0,1,0-7.3-10.1,8.812,8.812,0,0,0,7.3,10.1" transform="translate(-1786.199 -592.055)" fill="#fff"/>
</svg>
