<svg xmlns="http://www.w3.org/2000/svg" width="136" height="136" viewBox="0 0 136 136">
  <g id="Grupo_145187" data-name="Grupo 145187" transform="translate(7613 10854)">
    <circle id="Elipse_5340" data-name="Elipse 5340" cx="68" cy="68" r="68" transform="translate(-7613 -10854)" fill="#ff9500" opacity="0.95" style="isolation: isolate"/>
    <circle id="Elipse_5339" data-name="Elipse 5339" cx="55" cy="55" r="55" transform="translate(-7600 -10841)" fill="#efefef" opacity="0.95" style="isolation: isolate"/>
    <g id="_3d-printer" data-name="3d-printer" transform="translate(-7590 -10831)">
      <g id="Grupo_145066" data-name="Grupo 145066" transform="translate(0 0)">
        <path id="Trazado_208344" data-name="Trazado 208344" d="M88.242,70.311h-3.4V14.888a5.724,5.724,0,0,0-.562-11.42H58.728A5.234,5.234,0,0,0,53.807,0H36.193a5.239,5.239,0,0,0-4.925,3.468H5.719a5.724,5.724,0,0,0-.557,11.421V70.311h-3.4A1.758,1.758,0,0,0,0,72.069v7.972A1.758,1.758,0,0,0,1.758,81.8H2.84v6.443A1.758,1.758,0,0,0,4.6,90H20.682a1.758,1.758,0,0,0,1.758-1.758V81.8H37.1a1.758,1.758,0,0,0,0-3.516H3.516V73.826H86.484v4.457H52.89a1.758,1.758,0,0,0,0,3.516H67.555v6.444A1.758,1.758,0,0,0,69.313,90H85.4a1.758,1.758,0,0,0,1.758-1.758V81.8h1.087A1.758,1.758,0,0,0,90,80.041V72.068a1.758,1.758,0,0,0-1.758-1.758ZM18.924,86.484H6.356V81.8H18.924ZM30.962,14.916v1.71a1.77,1.77,0,0,0,.092.56l3.1,9.213a1.758,1.758,0,0,0,1.666,1.2h3.165v3.085a6.023,6.023,0,0,0,4.255,5.75v1.5a22.9,22.9,0,0,0,2.225,10.8,11.939,11.939,0,0,0,1.6,2.3H31.455A1.758,1.758,0,0,0,29.7,52.8V70.311H16.222V14.916ZM45,33.18a2.5,2.5,0,0,1-2.5-2.5V27.6h5v3.085a2.5,2.5,0,0,1-2.5,2.5Zm-7.915-9.1-1.917-5.7H54.829l-1.917,5.7Zm-3.87,30.472H48.97V70.311H33.212Zm19.273,0h4.3V70.311h-4.3Zm6.06-3.516H55.426a7.168,7.168,0,0,1-6.865-3.966,19.8,19.8,0,0,1-1.806-9.139v-1.5a6.024,6.024,0,0,0,4.26-5.751V27.6h3.16a1.758,1.758,0,0,0,1.666-1.2l3.1-9.213a1.771,1.771,0,0,0,.092-.56v-1.71H73.774V70.311H60.3V52.8a1.758,1.758,0,0,0-1.758-1.758ZM77.289,14.916h4.033V70.311H77.289Zm9.2-5.724A2.211,2.211,0,0,1,84.276,11.4H59.033V6.984H84.276a2.211,2.211,0,0,1,2.209,2.208ZM36.193,3.516H53.807a1.712,1.712,0,0,1,1.71,1.71v9.642H34.478V5.226a1.715,1.715,0,0,1,1.715-1.71ZM3.516,9.192a2.208,2.208,0,0,1,2.2-2.208H30.962V11.4H5.719a2.209,2.209,0,0,1-2.2-2.209Zm5.162,5.724h4.028V70.311H8.678ZM83.639,86.484H71.071V81.8H83.639Z" transform="translate(0 0)" fill="#255065"/>
        <path id="Trazado_208345" data-name="Trazado 208345" d="M247.744,445.343a1.758,1.758,0,0,0,0,3.516h.01a1.758,1.758,0,1,0-.01-3.516Z" transform="translate(-202.746 -367.06)" fill="#255065"/>
      </g>
    </g>
  </g>
</svg>
