<svg xmlns="http://www.w3.org/2000/svg" width="136" height="136" viewBox="0 0 136 136">
  <g id="Grupo_145185" data-name="Grupo 145185" transform="translate(-732 -846)">
    <circle id="Elipse_5336" data-name="Elipse 5336" cx="68" cy="68" r="68" transform="translate(732 846)" fill="#ff9500" opacity="0.95" style="isolation: isolate"/>
    <circle id="Elipse_5335" data-name="Elipse 5335" cx="55" cy="55" r="55" transform="translate(745 859)" fill="#efefef" opacity="0.95" style="isolation: isolate"/>
    <g id="configuraciones" transform="translate(755 869)">
      <g id="Grupo_145063" data-name="Grupo 145063">
        <g id="Grupo_145062" data-name="Grupo 145062">
          <path id="Trazado_208338" data-name="Trazado 208338" d="M87.985,37.34,77.459,34.786a34.115,34.115,0,0,0-2.214-5.355l5.4-9a2.637,2.637,0,0,0-.4-3.221L72.791,9.752a2.637,2.637,0,0,0-3.221-.4l-9,5.4a34.086,34.086,0,0,0-5.355-2.214L52.66,2.015A2.637,2.637,0,0,0,50.1,0H39.551a2.637,2.637,0,0,0-2.562,2.015L34.434,12.541a34.1,34.1,0,0,0-5.354,2.214l-9-5.4a2.637,2.637,0,0,0-3.221.4L9.4,17.209A2.637,2.637,0,0,0,9,20.43l5.4,9A34.087,34.087,0,0,0,12.186,34.8L2,37.344A2.637,2.637,0,0,0,0,39.9V50.449a2.637,2.637,0,0,0,2,2.558l10.189,2.547A34.1,34.1,0,0,0,14.4,60.921l-5.4,9a2.637,2.637,0,0,0,.4,3.221L16.858,80.6a2.637,2.637,0,0,0,3.221.4l9-5.4a34.11,34.11,0,0,0,5.366,2.218L36.993,88a2.637,2.637,0,0,0,2.558,2H50.1a2.637,2.637,0,0,0,2.558-2L55.2,77.814A34.1,34.1,0,0,0,60.57,75.6l9,5.4a2.637,2.637,0,0,0,3.221-.4l7.458-7.458a2.637,2.637,0,0,0,.4-3.221l-5.4-9a34.1,34.1,0,0,0,2.214-5.355l10.527-2.555A2.637,2.637,0,0,0,90,50.449V39.9A2.637,2.637,0,0,0,87.985,37.34ZM84.727,48.376,74.735,50.8a2.637,2.637,0,0,0-1.925,1.881,28.809,28.809,0,0,1-2.885,6.979,2.636,2.636,0,0,0,.021,2.677l5.119,8.531-4.546,4.546L61.987,70.3a2.636,2.636,0,0,0-2.677-.021,28.828,28.828,0,0,1-6.98,2.885,2.636,2.636,0,0,0-1.876,1.908l-2.415,9.658H41.61L39.2,75.069a2.636,2.636,0,0,0-1.876-1.908,28.82,28.82,0,0,1-6.98-2.885,2.637,2.637,0,0,0-2.677.021l-8.531,5.119-4.546-4.546L19.7,62.338a2.636,2.636,0,0,0,.021-2.677,28.8,28.8,0,0,1-2.885-6.979,2.637,2.637,0,0,0-1.908-1.876L5.273,48.391v-6.43l9.658-2.415a2.637,2.637,0,0,0,1.908-1.876,28.814,28.814,0,0,1,2.885-6.98,2.637,2.637,0,0,0-.021-2.677l-5.119-8.531,4.546-4.546,8.532,5.119a2.637,2.637,0,0,0,2.677.021,28.812,28.812,0,0,1,6.98-2.885A2.637,2.637,0,0,0,39.2,15.265l2.425-9.992h6.4l2.425,9.992a2.637,2.637,0,0,0,1.881,1.925,28.812,28.812,0,0,1,6.98,2.885,2.637,2.637,0,0,0,2.677-.021l8.532-5.119,4.546,4.546-5.119,8.531a2.637,2.637,0,0,0-.021,2.677,28.807,28.807,0,0,1,2.885,6.98,2.637,2.637,0,0,0,1.925,1.881l9.992,2.425Z" fill="#255065"/>
        </g>
      </g>
      <g id="Grupo_145065" data-name="Grupo 145065" transform="translate(26.367 26.719)">
        <g id="Grupo_145064" data-name="Grupo 145064">
          <path id="Trazado_208339" data-name="Trazado 208339" d="M168.457,152a18.457,18.457,0,1,0,18.457,18.457A18.478,18.478,0,0,0,168.457,152Zm0,31.641a13.184,13.184,0,1,1,13.184-13.184A13.2,13.2,0,0,1,168.457,183.641Z" transform="translate(-150 -152)" fill="#255065"/>
        </g>
      </g>
    </g>
  </g>
</svg>
