<svg xmlns="http://www.w3.org/2000/svg" width="136" height="136" viewBox="0 0 136 136">
  <g id="Grupo_145186" data-name="Grupo 145186" transform="translate(-1083 -846)">
    <circle id="Elipse_5338" data-name="Elipse 5338" cx="68" cy="68" r="68" transform="translate(1083 846)" fill="#ff9500" opacity="0.95" style="isolation: isolate"/>
    <circle id="Elipse_5337" data-name="Elipse 5337" cx="55" cy="55" r="55" transform="translate(1096 859)" fill="#efefef" opacity="0.95" style="isolation: isolate"/>
    <g id="layers" transform="translate(1104.043 868)">
      <path id="Trazado_208340" data-name="Trazado 208340" d="M46.957,44.043a1.919,1.919,0,0,1-.779-.164l-45-19.565a1.952,1.952,0,0,1,0-3.584l45-19.565a1.927,1.927,0,0,1,1.557,0l45,19.565a1.952,1.952,0,0,1,0,3.584l-45,19.565a1.919,1.919,0,0,1-.779.164ZM6.863,22.522,46.957,39.954,87.05,22.522,46.957,5.089Z" transform="translate(0 0)" fill="#255065"/>
      <path id="Trazado_208341" data-name="Trazado 208341" d="M46.957,39.308a1.919,1.919,0,0,1-.779-.164l-45-19.565a1.952,1.952,0,0,1,0-3.584l18-7.826a1.957,1.957,0,0,1,1.561,3.588L6.863,17.786,46.957,35.218,87.05,17.786,73.178,11.752a1.957,1.957,0,1,1,1.561-3.588l18,7.826a1.957,1.957,0,0,1,0,3.588l-45,19.565a1.919,1.919,0,0,1-.779.164Z" transform="translate(0 20.388)" fill="#255065"/>
      <path id="Trazado_208342" data-name="Trazado 208342" d="M46.957,43.308a1.919,1.919,0,0,1-.779-.164l-45-19.565a1.952,1.952,0,0,1,0-3.584l18-7.826a1.957,1.957,0,1,1,1.561,3.588L6.863,21.787,46.957,39.219,87.05,21.787,73.178,15.753a1.957,1.957,0,1,1,1.561-3.588l18,7.826a1.957,1.957,0,0,1,0,3.588l-45,19.565a1.919,1.919,0,0,1-.779.164Z" transform="translate(0 32.039)" fill="#255065"/>
      <path id="Trazado_208343" data-name="Trazado 208343" d="M46.957,47.308a1.919,1.919,0,0,1-.779-.164l-45-19.565a1.952,1.952,0,0,1,0-3.584l18-7.826a1.957,1.957,0,0,1,1.561,3.588L6.863,25.787,46.957,43.219,87.05,25.787,73.178,19.753a1.957,1.957,0,0,1,1.561-3.588l18,7.826a1.957,1.957,0,0,1,0,3.588l-45,19.565a1.919,1.919,0,0,1-.779.164Z" transform="translate(0 43.692)" fill="#255065"/>
    </g>
  </g>
</svg>
