<svg xmlns="http://www.w3.org/2000/svg" width="148" height="148" viewBox="0 0 148 148">
  <circle id="Elipse_5403" data-name="Elipse 5403" cx="74" cy="74" r="74" fill="#0ca4ca"/>
  <ellipse id="Elipse_5404" data-name="Elipse 5404" cx="42.5" cy="42" rx="42.5" ry="42" transform="translate(32 32)" fill="#fff"/>
  <path id="impresora-3d" d="M78.234,1H2.266A1.266,1.266,0,0,0,1,2.266V30.121a1.266,1.266,0,0,0,1.266,1.266H7.331A1.266,1.266,0,0,0,8.6,30.121V23.79H32.653a1.266,1.266,0,0,0,1.266,1.266h.409l2.212,5.533a1.266,1.266,0,0,0,1.178.8h1.266v1.519a5.52,5.52,0,0,0,2.463,4.6A2.994,2.994,0,0,1,42.782,40a5.533,5.533,0,0,1-4.2,5.375l-4.821,1.209H25.056a3.782,3.782,0,0,0-2.811,6.331,3.765,3.765,0,0,0-.018,5.065,3.791,3.791,0,0,0,0,5.065,3.791,3.791,0,0,0,0,5.065,3.715,3.715,0,0,0-.737,3.8H2.266A1.266,1.266,0,0,0,1,73.169v5.065A1.266,1.266,0,0,0,2.266,79.5H78.234A1.266,1.266,0,0,0,79.5,78.234V73.169A1.266,1.266,0,0,0,78.234,71.9H59.009a3.715,3.715,0,0,0-.737-3.8,3.791,3.791,0,0,0,0-5.065,3.791,3.791,0,0,0,0-5.065,3.8,3.8,0,0,0-2.829-6.331H37.485a3.672,3.672,0,0,0-.366-3.292l2.08-.52A8.058,8.058,0,0,0,45.315,40a5.52,5.52,0,0,0-2.463-4.6,2.994,2.994,0,0,1-1.336-2.488V31.387h1.266a1.266,1.266,0,0,0,1.176-.8l2.213-5.534h.409a1.266,1.266,0,0,0,1.266-1.266H71.9v6.331a1.266,1.266,0,0,0,1.266,1.266h5.065A1.266,1.266,0,0,0,79.5,30.121V2.266A1.266,1.266,0,0,0,78.234,1ZM55.444,59.242a1.266,1.266,0,1,1,0,2.532H25.056a1.266,1.266,0,1,1,0-2.532Zm-30.387,7.6a1.266,1.266,0,0,1,0-2.532H55.444a1.266,1.266,0,0,1,0,2.532ZM76.968,76.968H3.532V74.435H76.968ZM25.056,71.9a1.266,1.266,0,0,1,0-2.532H55.444a1.266,1.266,0,0,1,0,2.532ZM56.71,55.444a1.266,1.266,0,0,1-1.266,1.266H25.056a1.266,1.266,0,0,1,0-2.532H55.444A1.266,1.266,0,0,1,56.71,55.444Zm-31.653-3.8a1.266,1.266,0,0,1,0-2.532h8.863a1.266,1.266,0,0,1,0,2.532ZM76.968,3.532V8.6H3.532V3.532ZM3.532,28.855V11.129H6.065V28.855Zm5.065-7.6V18.726H32.653v2.532Zm36.718,1.266H35.185V17.46H45.315Zm-3.389,6.331H38.574l-1.519-3.8h6.389ZM33.919,14.927a1.266,1.266,0,0,0-1.266,1.266H8.6V11.129H71.9v5.065H47.847a1.266,1.266,0,0,0-1.266-1.266Zm13.927,6.331V18.726H71.9v2.532Zm26.589,7.6V11.129h2.532V28.855Z" transform="translate(34 34.5)"/>
</svg>
