<svg xmlns="http://www.w3.org/2000/svg" width="126" height="126" viewBox="0 0 126 126">
  <g id="Grupo_145178" data-name="Grupo 145178" transform="translate(3239.095 8067)">
    <path id="Trazado_208470" data-name="Trazado 208470" d="M392.047,63a63,63,0,1,1-63-63,63,63,0,0,1,63,63" transform="translate(-3505.142 -8067)" fill="#255065"/>
    <path id="Trazado_208471" data-name="Trazado 208471" d="M331.7,117.332A51.677,51.677,0,1,1,383.38,65.656,51.735,51.735,0,0,1,331.7,117.332" transform="translate(-3507.797 -8069.655)" fill="#152e3b"/>
    <path id="Trazado_208472" data-name="Trazado 208472" d="M332.115,115.982A49.915,49.915,0,1,1,382.03,66.069a49.971,49.971,0,0,1-49.915,49.914" transform="translate(-3508.258 -8070.163)" fill="#fff"/>
    <g id="haz" transform="translate(-3206.428 -8034.381)">
      <g id="Grupo_145176" data-name="Grupo 145176" transform="translate(0 0)">
        <g id="Grupo_145175" data-name="Grupo 145175">
          <path id="Trazado_208450" data-name="Trazado 208450" d="M60.667,7.078V1.011c0-.013-.007-.024-.007-.036a1,1,0,0,0-.07-.351l0,0c0-.009-.011-.016-.015-.025a.994.994,0,0,0-.181-.268,1,1,0,0,0-.077-.07.991.991,0,0,0-.21-.142.966.966,0,0,0-.1-.046A1,1,0,0,0,59.656,0H27.3a1.012,1.012,0,0,0-.715.3L.3,26.585l0,0a1,1,0,0,0-.195.289,1.306,1.306,0,0,0-.088.362c0,.022-.013.04-.013.062v6.067a1.011,1.011,0,0,0,1.011,1.011H8.594a4.555,4.555,0,0,1,4.55,4.55v1.1L.3,52.874a1.026,1.026,0,0,0-.3.715v6.067a1.011,1.011,0,0,0,1.011,1.011H33.367a1,1,0,0,0,.4-.082c.014-.006.023-.018.037-.025a1.01,1.01,0,0,0,.289-.2l.01-.007L54.3,39.137l6.067-6.067a1.011,1.011,0,0,0,.3-.715V26.289c0-.013-.007-.024-.007-.036a1,1,0,0,0-.07-.351l0,0c0-.009-.011-.016-.015-.025a1.047,1.047,0,0,0-.468-.479.967.967,0,0,0-.1-.046,1,1,0,0,0-.353-.071H52.073a.97.97,0,0,0-.253.051.979.979,0,0,0-.253-.051,4.541,4.541,0,0,1-4.512-4.17L60.37,7.793A1.025,1.025,0,0,0,60.667,7.078ZM27.719,2.022h29.5L32.948,26.289H3.452ZM13.144,42.886v5.142a4.555,4.555,0,0,1-4.55,4.55H3.452ZM32.356,58.645H2.022V54.6H8.595a6.58,6.58,0,0,0,6.572-6.572v-9.1a6.58,6.58,0,0,0-6.572-6.572H2.022V28.311H32.356v4.044H25.783a6.58,6.58,0,0,0-6.572,6.572v9.1A6.58,6.58,0,0,0,25.783,54.6h6.572v4.044ZM58.645,31.937l-5.788,5.788-18.479,19.4V53.993L54.3,33.071l4.341-4.341v3.207ZM51.567,27.3a.969.969,0,0,0,.253-.051.979.979,0,0,0,.253.051h5.142l-4.358,4.358L32.933,52.578h-7.15a4.555,4.555,0,0,1-4.55-4.55v-9.1a4.555,4.555,0,0,1,4.55-4.55h7.583a1.018,1.018,0,0,0,.715-.3l11.26-11.26A6.58,6.58,0,0,0,51.567,27.3ZM58.645,6.659,45.291,20.013h0L34.378,30.926V27.719L58.645,3.452V6.659Z" transform="translate(0 0)" fill="#12263f"/>
          <path id="Trazado_208451" data-name="Trazado 208451" d="M206.2,400.666a1.011,1.011,0,0,0-1.106.222,1.063,1.063,0,0,0-.293.718,1.011,1.011,0,1,0,1.4-.94Z" transform="translate(-180.533 -353.123)" fill="#12263f"/>
          <path id="Trazado_208452" data-name="Trazado 208452" d="M232.672,364.927a1.011,1.011,0,0,0-.97.285h0l-1.011,1.06a1.011,1.011,0,0,0,1.463,1.4l1.011-1.06a1.011,1.011,0,0,0-.493-1.681Z" transform="translate(-203.111 -321.662)" fill="#12263f"/>
          <path id="Trazado_208453" data-name="Trazado 208453" d="M265.823,329.453l-1.011,1.06a1.011,1.011,0,0,0,1.463,1.4l1.011-1.06a1.011,1.011,0,1,0-1.463-1.4Z" transform="translate(-233.188 -290.14)" fill="#12263f"/>
          <path id="Trazado_208454" data-name="Trazado 208454" d="M299.955,293.7l-1.011,1.06a1.011,1.011,0,0,0,1.463,1.4l1.011-1.06a1.011,1.011,0,1,0-1.463-1.4Z" transform="translate(-263.276 -258.619)" fill="#12263f"/>
          <path id="Trazado_208455" data-name="Trazado 208455" d="M335.06,257.637a1.011,1.011,0,0,0-.971.287l-1.011,1.06a1.011,1.011,0,0,0,1.463,1.4l1.011-1.06a1.011,1.011,0,0,0-.492-1.683Z" transform="translate(-293.364 -227.084)" fill="#12263f"/>
          <path id="Trazado_208456" data-name="Trazado 208456" d="M367.555,230.852a1.011,1.011,0,0,0-.623.94.96.96,0,0,0,.293.708,1,1,0,0,0,1.436,0,.962.962,0,0,0,.293-.708,1.046,1.046,0,0,0-.293-.718A1.011,1.011,0,0,0,367.555,230.852Z" transform="translate(-323.454 -203.43)" fill="#12263f"/>
        </g>
      </g>
    </g>
  </g>
</svg>
