<svg xmlns="http://www.w3.org/2000/svg" width="126" height="126" viewBox="0 0 126 126">
  <g id="Grupo_145182" data-name="Grupo 145182" transform="translate(3344.191 7665)">
    <path id="Trazado_208473" data-name="Trazado 208473" d="M631.921,63a63,63,0,1,1-63-63,63,63,0,0,1,63,63" transform="translate(-3850.112 -7665)" fill="#ff9500"/>
    <path id="Trazado_208474" data-name="Trazado 208474" d="M571.576,117.332a51.677,51.677,0,1,1,51.678-51.676,51.735,51.735,0,0,1-51.678,51.676" transform="translate(-3852.767 -7667.655)" fill="#7a4800"/>
    <path id="Trazado_208475" data-name="Trazado 208475" d="M571.99,115.982A49.915,49.915,0,1,1,621.9,66.069a49.971,49.971,0,0,1-49.915,49.914" transform="translate(-3853.181 -7668.163)" fill="#fff"/>
    <g id="polvo" transform="translate(-3314.595 -7627.979)">
      <path id="Trazado_208457" data-name="Trazado 208457" d="M65.108,38.909H61.164a14.036,14.036,0,0,0-2.241-6.715L39.755,3.88A8.036,8.036,0,0,0,33.218,0H33.21a8.015,8.015,0,0,0-6.521,3.852L25.517,5.583a1.3,1.3,0,0,0,2.148,1.454l1.172-1.731A5.413,5.413,0,0,1,33.21,2.594h.005A5.437,5.437,0,0,1,37.6,5.332l19.17,28.317a11.339,11.339,0,0,1,1.787,5.26H7.847a11.136,11.136,0,0,1,2.121-5.733c.018-.023.035-.047.051-.071l11.83-17.475A1.3,1.3,0,0,0,19.7,14.175L7.895,31.615A13.66,13.66,0,0,0,5.24,38.909H1.3a1.3,1.3,0,0,0-1.3,1.3,6.5,6.5,0,0,0,5.3,6.376,6.5,6.5,0,0,0,6.376,5.3h43.06a6.5,6.5,0,0,0,6.375-5.3,6.5,6.5,0,0,0,5.3-6.376,1.3,1.3,0,0,0-1.3-1.3ZM59.92,44.1H54.732a1.3,1.3,0,1,0,0,2.594H58.4a3.9,3.9,0,0,1-3.668,2.594H11.673a3.9,3.9,0,0,1-3.667-2.594H44.357a1.3,1.3,0,1,0,0-2.594H6.485A3.9,3.9,0,0,1,2.817,41.5H63.589A3.9,3.9,0,0,1,59.92,44.1Zm0,0" transform="translate(-0.001 0)" fill="#12263f"/>
      <path id="Trazado_208458" data-name="Trazado 208458" d="M154.3,242.043a1.3,1.3,0,0,0-1.3,1.3h0a1.3,1.3,0,1,0,1.3-1.3Zm0,0" transform="translate(-133.157 -210.651)" fill="#12263f"/>
      <path id="Trazado_208459" data-name="Trazado 208459" d="M220.594,139.34a1.3,1.3,0,0,0-2.594,0h0a1.3,1.3,0,0,0,2.594,0Zm0,0" transform="translate(-189.726 -120.139)" fill="#12263f"/>
      <path id="Trazado_208460" data-name="Trazado 208460" d="M249.594,206.34a1.3,1.3,0,1,0-2.594,0h0a1.3,1.3,0,0,0,2.594,0Zm0,0" transform="translate(-214.965 -178.45)" fill="#12263f"/>
      <path id="Trazado_208461" data-name="Trazado 208461" d="M350.594,241.339a1.3,1.3,0,0,0-2.594,0v0a1.3,1.3,0,1,0,2.594,0Zm0,0" transform="translate(-302.866 -208.91)" fill="#12263f"/>
      <path id="Trazado_208462" data-name="Trazado 208462" d="M373.3,340h0a1.3,1.3,0,1,0,1.3,1.3A1.3,1.3,0,0,0,373.3,340Zm0,0" transform="translate(-323.753 -295.903)" fill="#12263f"/>
      <path id="Trazado_208463" data-name="Trazado 208463" d="M173.117,74.11a1.3,1.3,0,0,0,1.816-.259h0a1.3,1.3,0,1,0-1.816.26Zm0,0" transform="translate(-150.213 -62.466)" fill="#12263f"/>
    </g>
  </g>
</svg>
