<svg xmlns="http://www.w3.org/2000/svg" width="190" height="90.202" viewBox="0 0 190 90.202">
  <g id="Grupo_145123" data-name="Grupo 145123" transform="translate(-180 -3391)">
    <rect id="Rectángulo_34350" data-name="Rectángulo 34350" width="190" height="90" transform="translate(180 3391)" fill="none"/>
    <circle id="Elipse_4967" data-name="Elipse 4967" cx="28" cy="28" r="28" transform="translate(180 3425.202)" fill="#afe1ed" style="mix-blend-mode: multiply;isolation: isolate"/>
    <ellipse id="Elipse_4968" data-name="Elipse 4968" cx="14" cy="13.5" rx="14" ry="13.5" transform="translate(342 3391.202)" fill="#ff9500" opacity="0.6" style="mix-blend-mode: multiply;isolation: isolate"/>
    <g id="_3d-printing_1_" data-name="3d-printing (1)" transform="translate(230 3390.425)">
      <path id="Trazado_208377" data-name="Trazado 208377" d="M95.095,91.338H7.5V10.244a1.2,1.2,0,0,1,1.2-1.2H93.894a1.2,1.2,0,0,1,1.2,1.2Z" transform="translate(-6.178 -6.976)" fill="#fff"/>
      <path id="Trazado_208378" data-name="Trazado 208378" d="M7.5,476.091v3.436a1.49,1.49,0,0,0,1.49,1.49H20.251a1.49,1.49,0,0,0,1.34-.837l1.994-4.089H7.5Z" transform="translate(-6.178 -391.729)" fill="#0ca4ca"/>
      <path id="Trazado_208379" data-name="Trazado 208379" d="M429.425,476.091v3.436a1.49,1.49,0,0,1-1.49,1.49H416.674a1.49,1.49,0,0,1-1.34-.837l-1.993-4.089h16.084Z" transform="translate(-340.509 -391.729)" fill="#0ca4ca"/>
      <path id="Trazado_208380" data-name="Trazado 208380" d="M224,166.812h-6.859l3.108,6.9a1.21,1.21,0,0,0,1.1.713h5.294a1.211,1.211,0,0,0,1.1-.713l3.108-6.9Z" transform="translate(-178.877 -136.946)" fill="#546e7a"/>
      <path id="Trazado_208381" data-name="Trazado 208381" d="M261.066,166.812l-3.108,6.9a1.211,1.211,0,0,1-1.1.714h-3.043a1.212,1.212,0,0,0,1.1-.714l3.108-6.9Z" transform="translate(-209.09 -136.946)" fill="#3f535c"/>
      <path id="Trazado_208382" data-name="Trazado 208382" d="M49.492,129.643h72.8v6.549h-72.8Z" transform="translate(-40.771 -106.326)" fill="#0ca4ca"/>
      <path id="Trazado_208383" data-name="Trazado 208383" d="M444.8,129.643h3.142v6.549H444.8Z" transform="translate(-366.427 -106.326)" fill="#0473ce"/>
      <path id="Trazado_208384" data-name="Trazado 208384" d="M183.232,428.916H208.9v8.313H183.232Z" transform="translate(-150.946 -352.866)" fill="#dee5e8"/>
      <path id="Trazado_208385" data-name="Trazado 208385" d="M300.765,428.916h4.956v8.313h-4.956Z" transform="translate(-247.769 -352.866)" fill="#b2caec"/>
      <path id="Trazado_208386" data-name="Trazado 208386" d="M49.492,246.812v27.653l4.45-1.853a2.979,2.979,0,0,0,1.834-2.75V251.415a2.979,2.979,0,0,0-1.834-2.75Z" transform="translate(-40.771 -202.849)" fill="#dee5e8"/>
      <path id="Trazado_208387" data-name="Trazado 208387" d="M433.255,246.812v27.653l-4.45-1.853a2.979,2.979,0,0,1-1.834-2.75V251.415a2.979,2.979,0,0,1,1.834-2.75Z" transform="translate(-351.737 -202.849)" fill="#dee5e8"/>
      <path id="Trazado_208388" data-name="Trazado 208388" d="M462.633,76.7h7.4v70.374h-7.4Z" transform="translate(-381.116 -62.711)" fill="#ff9500"/>
      <path id="Trazado_208389" data-name="Trazado 208389" d="M483.629,76.7h3.7v70.374h-3.7Z" transform="translate(-398.412 -62.711)" fill="#d67d00"/>
      <path id="Trazado_208390" data-name="Trazado 208390" d="M7.5,76.7h7.4v70.374H7.5Z" transform="translate(-6.178 -62.711)" fill="#ff9500"/>
      <path id="Trazado_208391" data-name="Trazado 208391" d="M95.095,21.135H7.5V10.245a1.2,1.2,0,0,1,1.2-1.2H93.893a1.2,1.2,0,0,1,1.2,1.2Z" transform="translate(-6.178 -6.976)" fill="#dee5e8"/>
      <path id="Trazado_208392" data-name="Trazado 208392" d="M481.7,10.246V21.137h-3.7V10.246a1.2,1.2,0,0,0-1.2-1.2h3.7A1.2,1.2,0,0,1,481.7,10.246Z" transform="translate(-392.789 -6.977)" fill="#c0d6f2"/>
      <path id="Trazado_208393" data-name="Trazado 208393" d="M181.238,401.607h-36.55a1.638,1.638,0,0,1-1.638-1.638V397.4a1.638,1.638,0,0,1,1.638-1.638h36.55a1.638,1.638,0,0,1,1.638,1.638v2.564A1.638,1.638,0,0,1,181.238,401.607Z" transform="translate(-117.844 -325.557)" fill="#0ca4ca"/>
      <path id="Trazado_208394" data-name="Trazado 208394" d="M197.31,24.02H168.752a1.342,1.342,0,0,1-1.342-1.342V8.074h31.242v14.6A1.342,1.342,0,0,1,197.31,24.02Z" transform="translate(-137.912 -6.178)" fill="#546e7a"/>
      <path id="Trazado_208395" data-name="Trazado 208395" d="M320.024,8.072V22.677a1.342,1.342,0,0,1-1.341,1.341h-3.94a1.342,1.342,0,0,0,1.341-1.341V8.072Z" transform="translate(-259.284 -6.176)" fill="#3f535c"/>
      <path id="Trazado_208396" data-name="Trazado 208396" d="M217.136,129.643h13.718v6.549H217.136Z" transform="translate(-178.876 -106.326)" fill="#255065"/>
      <path id="Trazado_208397" data-name="Trazado 208397" d="M277.719,129.643h3.043v6.549h-3.043Z" transform="translate(-228.784 -106.326)" fill="#183542"/>
      <path id="Trazado_208398" data-name="Trazado 208398" d="M205.182,37.486h15.753a1.322,1.322,0,0,0,0-2.643H205.182a1.322,1.322,0,1,0,0,2.643Z" transform="translate(-167.939 -28.23)"/>
      <path id="Trazado_208399" data-name="Trazado 208399" d="M205.182,59.446h15.753a1.322,1.322,0,0,0,0-2.643H205.182a1.322,1.322,0,1,0,0,2.643Z" transform="translate(-167.939 -46.32)"/>
      <path id="Trazado_208400" data-name="Trazado 208400" d="M87.714.575H2.524A2.526,2.526,0,0,0,0,3.1V87.8a2.815,2.815,0,0,0,2.812,2.812H14.073a2.829,2.829,0,0,0,2.528-1.58l1.632-3.347h44.86a1.322,1.322,0,1,0,0-2.643H59.273v-5.67h4.12a2.963,2.963,0,0,0,2.96-2.96V71.847a2.963,2.963,0,0,0-2.96-2.96H36.485a1.322,1.322,0,1,0,0,2.643H63.394a.317.317,0,0,1,.317.317v2.565a.317.317,0,0,1-.317.317H26.844a.317.317,0,0,1-.317-.317V71.847a.317.317,0,0,1,.317-.317h3.474a1.322,1.322,0,1,0,0-2.643H26.844a2.963,2.963,0,0,0-2.96,2.96v2.565a2.963,2.963,0,0,0,2.96,2.96h4.12v5.67H10.042V72.5l3.636-1.514a4.289,4.289,0,0,0,2.647-3.97V48.565a4.289,4.289,0,0,0-2.647-3.97l-3.636-1.514V31.188H37.406l2.757,6.119A2.536,2.536,0,0,0,42.472,38.8H43.8v5.164a1.322,1.322,0,0,0,2.643,0V38.8h1.325a2.536,2.536,0,0,0,2.309-1.492l2.757-6.119H80.2V43.082L76.559,44.6a4.289,4.289,0,0,0-2.647,3.97V67.013a4.289,4.289,0,0,0,2.647,3.97L80.2,72.5V83.041H69.171a1.322,1.322,0,1,0,0,2.643h2.835l1.632,3.347a2.829,2.829,0,0,0,2.527,1.58H87.426A2.815,2.815,0,0,0,90.238,87.8V3.1A2.527,2.527,0,0,0,87.714.575Zm-54.107,76.8H56.63v5.67H33.608ZM30.82,3.218h28.6V16.5a.02.02,0,0,1-.02.02H30.84a.02.02,0,0,1-.02-.02V3.218ZM2.643,15.31H7.4V83.041H2.643ZM15.292,85.684l-1.067,2.188a.17.17,0,0,1-.152.095H2.812a.169.169,0,0,1-.169-.169V85.684H15.292ZM12.663,47.036a1.653,1.653,0,0,1,1.02,1.53V67.013a1.653,1.653,0,0,1-1.02,1.53l-2.62,1.091V45.944ZM36.938,28.545h-26.9V24.639h26.9v3.906Zm10.755,7.611h-5.15L40.3,31.188h9.628Zm2.963-7.611H39.582V24.639H50.656ZM51.978,22H10.042V15.31H15a1.322,1.322,0,0,0,0-2.643H2.643V3.218H28.177v9.449H21.023a1.322,1.322,0,1,0,0,2.643h7.153V16.5a2.666,2.666,0,0,0,2.663,2.663H59.4A2.666,2.666,0,0,0,62.061,16.5V15.31H80.2V22ZM53.3,28.545V24.639H80.2v3.906Zm24.276,40a1.653,1.653,0,0,1-1.02-1.53V48.565a1.653,1.653,0,0,1,1.02-1.53l2.62-1.091V69.634ZM87.595,87.8a.169.169,0,0,1-.169.169H76.165a.17.17,0,0,1-.152-.095l-1.067-2.188H87.595Zm0-4.757H82.839V15.31h4.756Zm0-70.374H62.061V3.218H87.595Z" transform="translate(0 0)"/>
    </g>
  </g>
</svg>
