<svg xmlns="http://www.w3.org/2000/svg" xmlns:xlink="http://www.w3.org/1999/xlink" width="1043.856" height="488.166" viewBox="0 0 1043.856 488.166">
  <defs>
    <linearGradient id="linear-gradient" x1="6.841" y1="1.878" x2="3.254" y2="1.03" gradientUnits="objectBoundingBox">
      <stop offset="0" stop-color="#d2ccd0"/>
      <stop offset="1" stop-color="#f1f1f1"/>
    </linearGradient>
    <linearGradient id="linear-gradient-2" x1="8.684" y1="1.559" x2="6.376" y2="0.687" xlink:href="#linear-gradient"/>
    <radialGradient id="radial-gradient" cx="0.5" cy="0.5" r="0.5" gradientTransform="matrix(-0.973, 0.23, -0.23, -0.973, 13.233, 17.741)" gradientUnits="objectBoundingBox">
      <stop offset="0"/>
      <stop offset="0.183" stop-color="#333"/>
      <stop offset="0.589" stop-color="#9f9f9f"/>
      <stop offset="0.869" stop-color="#e4e4e4"/>
      <stop offset="1" stop-color="#fff"/>
    </radialGradient>
    <radialGradient id="radial-gradient-2" cx="0.5" cy="0.5" r="0.5" gradientTransform="matrix(-0.973, 0.23, -0.23, -0.973, 15.533, 21.602)" xlink:href="#radial-gradient"/>
    <radialGradient id="radial-gradient-3" cx="0.5" cy="0.5" r="0.5" gradientTransform="matrix(0.987, -0.162, 0.162, 0.987, 1.249, 1.436)" xlink:href="#radial-gradient"/>
    <radialGradient id="radial-gradient-4" cx="0.5" cy="0.5" r="0.5" gradientTransform="translate(17.471 12.577) rotate(170.652)" xlink:href="#radial-gradient"/>
    <radialGradient id="radial-gradient-5" cx="0.5" cy="0.5" r="0.5" gradientTransform="translate(20.649 15.358) rotate(170.887)" xlink:href="#radial-gradient"/>
    <radialGradient id="radial-gradient-6" cx="0.5" cy="0.5" r="0.5" gradientTransform="translate(21.607 -0.184) rotate(135)" xlink:href="#radial-gradient"/>
    <radialGradient id="radial-gradient-7" cx="0.5" cy="0.5" r="0.5" gradientTransform="translate(26.579 8.168) rotate(169.559)" xlink:href="#radial-gradient"/>
    <radialGradient id="radial-gradient-8" cx="0.5" cy="0.5" r="0.5" gradientTransform="translate(1.566 0.808) rotate(-8.493)" xlink:href="#radial-gradient"/>
    <radialGradient id="radial-gradient-9" cx="0.5" cy="0.5" r="0.5" gradientTransform="matrix(0.987, -0.162, 0.162, 0.987, 2.202, 0.313)" xlink:href="#radial-gradient"/>
  </defs>
  <g id="Grupo_145184" data-name="Grupo 145184" transform="translate(-282.144 -5017.5)">
    <path id="Trazado_208476" data-name="Trazado 208476" d="M226.233,18.729V25h-4.456V6.516h7.376A8.591,8.591,0,0,1,232.9,7.3a5.884,5.884,0,0,1,2.526,2.222,6.067,6.067,0,0,1,.9,3.269,5.349,5.349,0,0,1-1.936,4.323,8.033,8.033,0,0,1-5.313,1.619Zm0-3.44h2.92a2.754,2.754,0,0,0,1.974-.647,2.406,2.406,0,0,0,.679-1.828,2.973,2.973,0,0,0-.7-2.069,2.472,2.472,0,0,0-1.9-.787h-2.971Zm20.579-.152-1.409-.1q-2.019,0-2.59,1.27V25h-4.278V11.264h4.012l.14,1.765a3.313,3.313,0,0,1,3.009-2.019,4.172,4.172,0,0,1,1.193.152ZM247.358,18a8.107,8.107,0,0,1,.8-3.663,5.72,5.72,0,0,1,2.3-2.469,6.921,6.921,0,0,1,3.517-.863,6.316,6.316,0,0,1,4.862,1.911,7.332,7.332,0,0,1,1.777,5.2v.152a7.114,7.114,0,0,1-1.784,5.1A6.333,6.333,0,0,1,254,25.254a6.4,6.4,0,0,1-4.71-1.758,6.877,6.877,0,0,1-1.917-4.767Zm4.278.267a5.111,5.111,0,0,0,.6,2.793,1.988,1.988,0,0,0,1.765.889q2.285,0,2.336-3.517V18q0-3.694-2.361-3.694-2.146,0-2.323,3.187Zm16.669,3.682a1.9,1.9,0,0,0,1.4-.489,1.792,1.792,0,0,0,.482-1.365H274.2a4.749,4.749,0,0,1-1.619,3.707,6.021,6.021,0,0,1-4.17,1.447,6.1,6.1,0,0,1-4.723-1.879,7.4,7.4,0,0,1-1.727-5.205v-.178a8.367,8.367,0,0,1,.768-3.675,5.592,5.592,0,0,1,2.215-2.45,6.605,6.605,0,0,1,3.428-.857,5.945,5.945,0,0,1,4.253,1.485A5.268,5.268,0,0,1,274.2,16.52h-4.012a2.348,2.348,0,0,0-.521-1.638,1.8,1.8,0,0,0-1.4-.571q-1.663,0-1.942,2.12a14.962,14.962,0,0,0-.089,1.854,5.876,5.876,0,0,0,.5,2.869A1.714,1.714,0,0,0,268.305,21.953Zm14.346,3.3a7.061,7.061,0,0,1-5.116-1.885,6.51,6.51,0,0,1-1.955-4.907v-.355a8.436,8.436,0,0,1,.781-3.72,5.713,5.713,0,0,1,2.279-2.495,6.879,6.879,0,0,1,3.555-.882,5.946,5.946,0,0,1,4.57,1.8,7.059,7.059,0,0,1,1.676,5.008v1.663h-8.506a3.084,3.084,0,0,0,1,1.815,2.984,2.984,0,0,0,2.006.66,3.845,3.845,0,0,0,3.174-1.422l1.955,2.311a5.465,5.465,0,0,1-2.266,1.758A7.658,7.658,0,0,1,282.651,25.254Zm-.482-10.943q-1.879,0-2.234,2.488h4.316v-.33a2.119,2.119,0,0,0-.521-1.593A2.071,2.071,0,0,0,282.168,14.311Zm15.184,6.83a.988.988,0,0,0-.571-.876,8.69,8.69,0,0,0-2.171-.686,9.9,9.9,0,0,1-2.641-.933,4.423,4.423,0,0,1-1.587-1.4,3.35,3.35,0,0,1-.546-1.892,3.8,3.8,0,0,1,1.562-3.117,6.432,6.432,0,0,1,4.088-1.225,7.127,7.127,0,0,1,4.367,1.231,3.851,3.851,0,0,1,1.65,3.237h-4.291q0-1.65-1.739-1.65a1.724,1.724,0,0,0-1.13.375,1.16,1.16,0,0,0-.457.933,1.064,1.064,0,0,0,.559.927,5.278,5.278,0,0,0,1.784.584,15.413,15.413,0,0,1,2.152.546q3.1,1.066,3.1,3.821a3.6,3.6,0,0,1-1.669,3.06,7.321,7.321,0,0,1-4.323,1.181,7.471,7.471,0,0,1-3.148-.635,5.265,5.265,0,0,1-2.158-1.727,3.91,3.91,0,0,1-.774-2.3h4a1.653,1.653,0,0,0,.635,1.39,2.611,2.611,0,0,0,1.562.438,2.054,2.054,0,0,0,1.314-.355A1.137,1.137,0,0,0,297.352,21.141ZM302.938,18a8.107,8.107,0,0,1,.8-3.663,5.72,5.72,0,0,1,2.3-2.469,6.92,6.92,0,0,1,3.517-.863,6.316,6.316,0,0,1,4.862,1.911,7.332,7.332,0,0,1,1.777,5.2v.152a7.114,7.114,0,0,1-1.784,5.1,6.333,6.333,0,0,1-4.831,1.885,6.4,6.4,0,0,1-4.71-1.758,6.877,6.877,0,0,1-1.917-4.767Zm4.278.267a5.111,5.111,0,0,0,.6,2.793,1.988,1.988,0,0,0,1.765.889q2.285,0,2.336-3.517V18q0-3.694-2.361-3.694-2.145,0-2.323,3.187Zm16.8-.241a8.391,8.391,0,0,1,1.409-5.142,4.638,4.638,0,0,1,3.936-1.879,3.945,3.945,0,0,1,3.1,1.447V5.5h4.291V25H332.9l-.216-1.473a4.051,4.051,0,0,1-3.352,1.727,4.63,4.63,0,0,1-3.885-1.879A8.657,8.657,0,0,1,324.012,18.03Zm4.278.267q0,3.656,2.133,3.656a2.106,2.106,0,0,0,2.031-1.193v-5.23a2.049,2.049,0,0,0-2.006-1.219q-1.98,0-2.146,3.2Zm17.532,6.957a7.061,7.061,0,0,1-5.116-1.885,6.51,6.51,0,0,1-1.955-4.907v-.355a8.436,8.436,0,0,1,.781-3.72,5.713,5.713,0,0,1,2.279-2.495,6.879,6.879,0,0,1,3.555-.882,5.946,5.946,0,0,1,4.57,1.8,7.059,7.059,0,0,1,1.676,5.008v1.663h-8.506a3.084,3.084,0,0,0,1,1.815,2.984,2.984,0,0,0,2.006.66,3.845,3.845,0,0,0,3.174-1.422l1.955,2.311a5.465,5.465,0,0,1-2.266,1.758A7.658,7.658,0,0,1,345.823,25.254Zm-.482-10.943q-1.879,0-2.234,2.488h4.316v-.33a2.119,2.119,0,0,0-.521-1.593A2.071,2.071,0,0,0,345.34,14.311ZM364.32,25h-4.291V11.264h4.291ZM359.775,7.722a1.91,1.91,0,0,1,.66-1.5,2.807,2.807,0,0,1,3.428,0,1.91,1.91,0,0,1,.66,1.5,1.91,1.91,0,0,1-.66,1.5,2.807,2.807,0,0,1-3.428,0A1.91,1.91,0,0,1,359.775,7.722ZM371,11.264l.14,1.612a4.723,4.723,0,0,1,3.923-1.866,3.477,3.477,0,0,1,3.517,2.069,4.571,4.571,0,0,1,4.037-2.069q4.177,0,4.291,5.053V25h-4.291V16.329a2.619,2.619,0,0,0-.355-1.536,1.513,1.513,0,0,0-1.295-.482,2.027,2.027,0,0,0-1.892,1.13l.013.178V25h-4.291V16.354a2.752,2.752,0,0,0-.343-1.562,1.509,1.509,0,0,0-1.308-.482,2.052,2.052,0,0,0-1.879,1.13V25h-4.278V11.264Zm31.1,6.97a8.284,8.284,0,0,1-1.441,5.11,4.62,4.62,0,0,1-3.891,1.911,3.96,3.96,0,0,1-3.11-1.384v6.411H389.38V11.264h4l.127,1.27a3.96,3.96,0,0,1,3.237-1.523,4.657,4.657,0,0,1,3.948,1.873A8.386,8.386,0,0,1,402.1,18.03Zm-4.278-.267q0-3.656-2.133-3.656a2.013,2.013,0,0,0-2.031,1.092v5.408a2.079,2.079,0,0,0,2.057,1.143q2.044,0,2.107-3.529ZM412.3,15.136l-1.409-.1q-2.019,0-2.59,1.27V25h-4.278V11.264h4.012l.14,1.765a3.313,3.313,0,0,1,3.009-2.019,4.172,4.172,0,0,1,1.193.152Zm7.947,10.118a7.061,7.061,0,0,1-5.116-1.885,6.51,6.51,0,0,1-1.955-4.907v-.355a8.436,8.436,0,0,1,.781-3.72,5.713,5.713,0,0,1,2.279-2.495,6.879,6.879,0,0,1,3.555-.882,5.946,5.946,0,0,1,4.57,1.8,7.059,7.059,0,0,1,1.676,5.008v1.663h-8.506a3.084,3.084,0,0,0,1,1.815,2.984,2.984,0,0,0,2.006.66,3.845,3.845,0,0,0,3.174-1.422l1.955,2.311A5.465,5.465,0,0,1,423.4,24.6,7.658,7.658,0,0,1,420.243,25.254Zm-.482-10.943q-1.879,0-2.234,2.488h4.316v-.33a2.119,2.119,0,0,0-.521-1.593A2.071,2.071,0,0,0,419.76,14.311Zm15.184,6.83a.988.988,0,0,0-.571-.876,8.69,8.69,0,0,0-2.171-.686,9.9,9.9,0,0,1-2.641-.933,4.423,4.423,0,0,1-1.587-1.4,3.35,3.35,0,0,1-.546-1.892,3.8,3.8,0,0,1,1.562-3.117,6.432,6.432,0,0,1,4.088-1.225,7.127,7.127,0,0,1,4.367,1.231,3.851,3.851,0,0,1,1.65,3.237H434.8q0-1.65-1.739-1.65a1.724,1.724,0,0,0-1.13.375,1.16,1.16,0,0,0-.457.933,1.064,1.064,0,0,0,.559.927,5.278,5.278,0,0,0,1.784.584,15.413,15.413,0,0,1,2.152.546q3.1,1.066,3.1,3.821a3.6,3.6,0,0,1-1.669,3.06,7.321,7.321,0,0,1-4.323,1.181,7.471,7.471,0,0,1-3.148-.635,5.265,5.265,0,0,1-2.158-1.727,3.91,3.91,0,0,1-.774-2.3h4a1.653,1.653,0,0,0,.635,1.39,2.611,2.611,0,0,0,1.562.438,2.054,2.054,0,0,0,1.314-.355A1.137,1.137,0,0,0,434.944,21.141ZM445.583,25h-4.291V11.264h4.291ZM441.038,7.722a1.91,1.91,0,0,1,.66-1.5,2.807,2.807,0,0,1,3.428,0,1.91,1.91,0,0,1,.66,1.5,1.91,1.91,0,0,1-.66,1.5,2.807,2.807,0,0,1-3.428,0A1.91,1.91,0,0,1,441.038,7.722ZM447.677,18a8.107,8.107,0,0,1,.8-3.663,5.72,5.72,0,0,1,2.3-2.469,6.92,6.92,0,0,1,3.517-.863,6.316,6.316,0,0,1,4.862,1.911,7.332,7.332,0,0,1,1.777,5.2v.152a7.114,7.114,0,0,1-1.784,5.1,6.333,6.333,0,0,1-4.831,1.885,6.4,6.4,0,0,1-4.71-1.758,6.877,6.877,0,0,1-1.917-4.767Zm4.278.267a5.111,5.111,0,0,0,.6,2.793,1.988,1.988,0,0,0,1.765.889q2.285,0,2.336-3.517V18q0-3.694-2.361-3.694-2.145,0-2.323,3.187ZM454.875,5.5h4.52l-3.529,3.986-3.491-.006Zm11.87,5.764.14,1.612a4.658,4.658,0,0,1,3.923-1.866,3.919,3.919,0,0,1,3.206,1.282,6.1,6.1,0,0,1,1.1,3.859V25h-4.291V16.329a2.318,2.318,0,0,0-.419-1.53,1.938,1.938,0,0,0-1.523-.489,2.04,2.04,0,0,0-1.866.99V25h-4.278V11.264Zm21.049,2.7h2.019a2.1,2.1,0,0,0,2.4-2.349,2.031,2.031,0,0,0-.571-1.492,2.166,2.166,0,0,0-1.612-.578,2.319,2.319,0,0,0-1.479.5,1.511,1.511,0,0,0-.628,1.231h-4.278a4.38,4.38,0,0,1,.813-2.6,5.366,5.366,0,0,1,2.253-1.784,7.7,7.7,0,0,1,3.167-.641,7.57,7.57,0,0,1,4.85,1.409,4.685,4.685,0,0,1,1.765,3.872,3.9,3.9,0,0,1-.73,2.253,5.2,5.2,0,0,1-2.126,1.72,4.97,4.97,0,0,1,2.311,1.619,4.263,4.263,0,0,1,.838,2.685,4.77,4.77,0,0,1-1.9,3.961,7.9,7.9,0,0,1-5,1.485,8.2,8.2,0,0,1-3.371-.692,5.281,5.281,0,0,1-2.355-1.917,4.984,4.984,0,0,1-.8-2.787h4.3a1.926,1.926,0,0,0,.686,1.473,2.42,2.42,0,0,0,1.688.622,2.535,2.535,0,0,0,1.8-.628,2.1,2.1,0,0,0,.673-1.606,2.456,2.456,0,0,0-.7-1.98,2.919,2.919,0,0,0-1.93-.584h-2.082ZM499.208,25V6.516h5.954a8.759,8.759,0,0,1,4.405,1.111,7.808,7.808,0,0,1,3.053,3.136,9.467,9.467,0,0,1,1.111,4.539v.851a9.522,9.522,0,0,1-1.073,4.551,7.842,7.842,0,0,1-3.021,3.148A8.566,8.566,0,0,1,505.289,25Zm4.456-15.044V21.572h1.549a3.466,3.466,0,0,0,2.945-1.365,6.688,6.688,0,0,0,1.028-4.056v-.8a6.633,6.633,0,0,0-1.028-4.037,3.527,3.527,0,0,0-3-1.358Z" transform="translate(433 5012)" fill="#12263f"/>
    <path id="Trazado_194705" data-name="Trazado 194705" d="M0,33.824H15.679V0H0Z" transform="translate(536.821 5181.919) rotate(-90)" fill="#ff9500"/>
    <path id="Trazado_208477" data-name="Trazado 208477" d="M0,0H61.7V42.8H0Z" transform="translate(532.332 5237.952) rotate(-90)" fill="#efefef" opacity="0.95"/>
    <path id="Trazado_194707" data-name="Trazado 194707" d="M0,33.824H15.679V0H0Z" transform="translate(874.441 5181.919) rotate(-90)" fill="#546e7a" opacity="0.95" style="isolation: isolate"/>
    <path id="Trazado_208478" data-name="Trazado 208478" d="M0,0H61.7V42.8H0Z" transform="translate(869.953 5237.952) rotate(-90)" fill="#efefef" opacity="0.95"/>
    <path id="Trazado_194708" data-name="Trazado 194708" d="M0,33.824H15.679V0H0Z" transform="translate(1212.062 5186.256) rotate(-90)" fill="#ff9500" opacity="0.95" style="isolation: isolate"/>
    <path id="Trazado_208479" data-name="Trazado 208479" d="M0,0H61.7V42.8H0Z" transform="translate(1207.574 5242.289) rotate(-90)" fill="#efefef" opacity="0.95"/>
    <path id="Trazado_194704" data-name="Trazado 194704" d="M15.679,0H0V33.824H15.679Z" transform="translate(368.008 5462.729) rotate(-90)" fill="#0ca4ca" opacity="0.95" style="isolation: isolate"/>
    <path id="Trazado_208480" data-name="Trazado 208480" d="M0,0H52.71V42.8H0Z" transform="translate(363.521 5454.131) rotate(-90)" fill="#efefef" opacity="0.95"/>
    <path id="Trazado_194706" data-name="Trazado 194706" d="M15.679,0H0V33.824H15.679Z" transform="translate(705.629 5462.271) rotate(-90)" fill="#255065" opacity="0.95" style="isolation: isolate"/>
    <path id="Trazado_208481" data-name="Trazado 208481" d="M0,0H52.71V42.8H0Z" transform="translate(701.143 5453.674) rotate(-90)" fill="#efefef" opacity="0.95"/>
    <path id="Trazado_194709" data-name="Trazado 194709" d="M15.679,0H0V33.824H15.679Z" transform="translate(1043.25 5462.271) rotate(-90)" fill="#0ca4ca" opacity="0.95" style="isolation: isolate"/>
    <path id="Trazado_208482" data-name="Trazado 208482" d="M0,0H52.71V42.8H0Z" transform="translate(1038.764 5453.674) rotate(-90)" fill="#efefef" opacity="0.95"/>
    <path id="Trazado_194712" data-name="Trazado 194712" d="M0,88.923a88.922,88.922,0,0,0,88.922,88.922V0A88.923,88.923,0,0,0,0,88.923Z" transform="translate(1135.868 5405.284) rotate(-90)" fill="#ff9500"/>
    <path id="Trazado_194713" data-name="Trazado 194713" d="M88.923,88.923A88.924,88.924,0,0,0,0,0V177.846A88.923,88.923,0,0,0,88.923,88.923Z" transform="translate(967.893 5316.361) rotate(-90)" fill="#0ca4ca" opacity="0.95" style="isolation: isolate"/>
    <path id="Trazado_194714" data-name="Trazado 194714" d="M88.923,88.923A88.924,88.924,0,0,0,0,0V177.846A88.923,88.923,0,0,0,88.923,88.923Z" transform="translate(631.946 5316.361) rotate(-90)" fill="#255065" opacity="0.95" style="isolation: isolate"/>
    <path id="Trazado_194715" data-name="Trazado 194715" d="M0,88.922a88.923,88.923,0,0,0,88.922,88.923V0A88.922,88.922,0,0,0,0,88.922Z" transform="translate(799.924 5405.284) rotate(-90)" fill="#546e7a" opacity="0.95" style="isolation: isolate"/>
    <path id="Trazado_194716" data-name="Trazado 194716" d="M0,88.923a88.922,88.922,0,0,0,88.922,88.922V0A88.923,88.923,0,0,0,0,88.923Z" transform="translate(463.977 5405.284) rotate(-90)" fill="#ff9500"/>
    <path id="Trazado_194717" data-name="Trazado 194717" d="M88.923,88.923A88.924,88.924,0,0,0,0,0V177.846A88.923,88.923,0,0,0,88.923,88.923Z" transform="translate(296 5316.361) rotate(-90)" fill="#0ca4ca" opacity="0.95" style="isolation: isolate"/>
    <path id="Trazado_194718" data-name="Trazado 194718" d="M102.09,826.688a65.874,65.874,0,0,1,0-131.749,102.09,102.09,0,1,0,0-204.181v-.014a65.874,65.874,0,0,1,0-131.749,102.1,102.1,0,1,0,0-204.195,65.874,65.874,0,0,1,0-131.749V0C45.71,0,8.61,43.945,8.61,88.919c0,39.823,37.1,102.1,93.481,102.1a65.874,65.874,0,1,1,0,131.749,102.1,102.1,0,0,0,0,204.195,65.874,65.874,0,1,1,0,131.749,102.1,102.1,0,0,0,0,204.195Z" transform="translate(296 5418.455) rotate(-90)" fill="url(#linear-gradient)"/>
    <path id="Trazado_194719" data-name="Trazado 194719" d="M102.09,503.916a65.874,65.874,0,0,1,0-131.749,102.1,102.1,0,1,0,0-204.195,65.874,65.874,0,0,1,0-131.749V0a102.1,102.1,0,0,0,0,204.195,65.874,65.874,0,1,1,0,131.749,102.1,102.1,0,0,0,0,204.195" transform="translate(1326 5214.261) rotate(90)" fill="url(#linear-gradient-2)"/>
    <path id="Trazado_208483" data-name="Trazado 208483" d="M64.4,0A64.4,64.4,0,1,1,0,64.4,64.4,64.4,0,0,1,64.4,0Z" transform="matrix(-0.973, -0.23, 0.23, -0.973, 451.355, 5416.34)" fill="url(#radial-gradient)" style="mix-blend-mode: multiply;isolation: isolate"/>
    <path id="Trazado_208484" data-name="Trazado 208484" d="M65.875,0A65.875,65.875,0,1,1,0,65.875,65.875,65.875,0,0,1,65.875,0Z" transform="translate(319.048 5382.235) rotate(-90)" fill="#fff"/>
    <path id="Trazado_208485" data-name="Trazado 208485" d="M52.433,0A52.433,52.433,0,1,1,0,52.433,52.433,52.433,0,0,1,52.433,0Z" transform="translate(431.303 5388.439) rotate(-166.717)" fill="url(#radial-gradient-2)" style="mix-blend-mode: multiply;isolation: isolate"/>
    <path id="Trazado_208486" data-name="Trazado 208486" d="M47.207,0A47.207,47.207,0,1,1,0,47.207,47.207,47.207,0,0,1,47.207,0Z" transform="translate(336.247 5270.623)" fill="#0ca4ca" opacity="0.95"/>
    <g id="Grupo_131987" data-name="Grupo 131987" transform="translate(360.695 5274.571)">
      <text id="_1" data-name="1" transform="translate(19 64)" fill="#fff" font-size="67" font-family="Roboto-Black, Roboto" font-weight="800"><tspan x="-19.4" y="0">1</tspan></text>
    </g>
    <path id="Trazado_208487" data-name="Trazado 208487" d="M65.875,0A65.875,65.875,0,1,1,0,65.875,65.875,65.875,0,0,1,65.875,0Z" transform="translate(487.025 5382.236) rotate(-90)" fill="#fff"/>
    <path id="Trazado_208488" data-name="Trazado 208488" d="M52.433,0A52.433,52.433,0,1,1,0,52.433,52.433,52.433,0,0,1,52.433,0Z" transform="translate(605.997 5384.844) rotate(-170.676)" fill="url(#radial-gradient-3)" style="mix-blend-mode: multiply;isolation: isolate"/>
    <path id="Trazado_208489" data-name="Trazado 208489" d="M47.207,0A47.207,47.207,0,1,1,0,47.207,47.207,47.207,0,0,1,47.207,0Z" transform="translate(505.693 5363.569) rotate(-90)" fill="#ff9500"/>
    <path id="Trazado_208490" data-name="Trazado 208490" d="M64.4,0A64.4,64.4,0,1,1,0,64.4,64.4,64.4,0,0,1,64.4,0Z" transform="translate(796.367 5412.873) rotate(-170.652)" fill="url(#radial-gradient-4)" style="mix-blend-mode: multiply;isolation: isolate"/>
    <path id="Trazado_208491" data-name="Trazado 208491" d="M65.875,0A65.875,65.875,0,1,1,0,65.875,65.875,65.875,0,0,1,65.875,0Z" transform="translate(654.994 5382.235) rotate(-90)" fill="#fff"/>
    <path id="Trazado_208492" data-name="Trazado 208492" d="M52.433,0A52.433,52.433,0,1,1,0,52.433,52.433,52.433,0,0,1,52.433,0Z" transform="translate(771.733 5385.438) rotate(-170.887)" fill="url(#radial-gradient-5)" style="mix-blend-mode: multiply;isolation: isolate"/>
    <path id="Trazado_208493" data-name="Trazado 208493" d="M47.207,0A47.207,47.207,0,1,1,0,47.207,47.207,47.207,0,0,1,47.207,0Z" transform="translate(673.662 5363.568) rotate(-90)" fill="#255065" opacity="0.95"/>
    <path id="Trazado_208494" data-name="Trazado 208494" d="M64.4,0A64.4,64.4,0,1,1,0,64.4,64.4,64.4,0,0,1,64.4,0Z" transform="translate(1080.741 5429.943) rotate(-135)" fill="url(#radial-gradient-6)" style="mix-blend-mode: multiply;isolation: isolate"/>
    <path id="Trazado_208495" data-name="Trazado 208495" d="M65.875,0A65.875,65.875,0,1,1,0,65.875,65.875,65.875,0,0,1,65.875,0Z" transform="translate(990.94 5382.236) rotate(-90)" fill="#fff"/>
    <path id="Trazado_208496" data-name="Trazado 208496" d="M52.433,0A52.433,52.433,0,1,1,0,52.433,52.433,52.433,0,0,1,52.433,0Z" transform="translate(1106.274 5386.43) rotate(-169.559)" fill="url(#radial-gradient-7)" style="mix-blend-mode: multiply;isolation: isolate"/>
    <g id="Grupo_131997" data-name="Grupo 131997" transform="translate(1009.608 5363.568) rotate(-90)">
      <ellipse id="Elipse_5262" data-name="Elipse 5262" cx="47.207" cy="47.207" rx="47.207" ry="47.207" fill="#0ca4ca" opacity="0.95" style="isolation: isolate"/>
    </g>
    <path id="Trazado_208497" data-name="Trazado 208497" d="M65.875,0A65.875,65.875,0,1,1,0,65.875,65.875,65.875,0,0,1,65.875,0Z" transform="translate(822.971 5382.236) rotate(-90)" fill="#fff"/>
    <path id="Trazado_208498" data-name="Trazado 208498" d="M52.433,0A52.433,52.433,0,1,1,0,52.433,52.433,52.433,0,0,1,52.433,0Z" transform="translate(942.812 5384.21) rotate(-171.507)" fill="url(#radial-gradient-8)" style="mix-blend-mode: multiply;isolation: isolate"/>
    <g id="Grupo_132001" data-name="Grupo 132001" transform="translate(841.639 5363.568) rotate(-90)">
      <ellipse id="Elipse_5265" data-name="Elipse 5265" cx="47.207" cy="47.207" rx="47.207" ry="47.207" transform="translate(0)" fill="#546e7a" opacity="0.95" style="isolation: isolate"/>
    </g>
    <path id="Trazado_208499" data-name="Trazado 208499" d="M65.875,0A65.875,65.875,0,1,1,0,65.875,65.875,65.875,0,0,1,65.875,0Z" transform="translate(1158.917 5382.236) rotate(-90)" fill="#fff"/>
    <path id="Trazado_208500" data-name="Trazado 208500" d="M52.433,0A52.433,52.433,0,1,1,0,52.433,52.433,52.433,0,0,1,52.433,0Z" transform="matrix(-0.987, -0.162, 0.162, -0.987, 1277.889, 5384.844)" fill="url(#radial-gradient-9)" style="mix-blend-mode: multiply;isolation: isolate"/>
    <path id="Trazado_208501" data-name="Trazado 208501" d="M47.207,0A47.207,47.207,0,1,1,0,47.207,47.207,47.207,0,0,1,47.207,0Z" transform="translate(1177.585 5363.569) rotate(-90)" fill="#ff9500"/>
    <path id="Trazado_208502" data-name="Trazado 208502" d="M16.75,0H-16.488V-7.2l15.311-16.1q5.66-6.445,5.66-10.24a7.122,7.122,0,0,0-1.341-4.678,4.789,4.789,0,0,0-3.893-1.6,4.849,4.849,0,0,0-4.089,2.143,8.806,8.806,0,0,0-1.57,5.349H-17.47a15.643,15.643,0,0,1,2.192-8.1,15.371,15.371,0,0,1,6.085-5.807,18.076,18.076,0,0,1,8.7-2.094q7.721,0,11.892,3.566t4.171,10.24a14.869,14.869,0,0,1-1.047,5.48A24.031,24.031,0,0,1,11.27-23.44,82,82,0,0,1,4.155-15.6L-2-8.506H16.75Z" transform="translate(549.934 5336.718)" fill="#fff"/>
    <path id="Trazado_208503" data-name="Trazado 208503" d="M-6.412-28.429h5.2q6.183,0,6.183-6.052A5.233,5.233,0,0,0,3.5-38.325,5.582,5.582,0,0,0-.654-39.814a5.976,5.976,0,0,0-3.811,1.276,3.893,3.893,0,0,0-1.619,3.173H-17.11a11.286,11.286,0,0,1,2.094-6.707,13.827,13.827,0,0,1,5.807-4.6A19.854,19.854,0,0,1-1.047-48.32q7.95,0,12.5,3.631A12.072,12.072,0,0,1,16-34.71,10.062,10.062,0,0,1,14.116-28.9a13.407,13.407,0,0,1-5.48,4.433A12.806,12.806,0,0,1,14.591-20.3,10.985,10.985,0,0,1,16.75-13.38,12.291,12.291,0,0,1,11.843-3.173Q6.936.654-1.047.654A21.124,21.124,0,0,1-9.733-1.129,13.609,13.609,0,0,1-15.8-6.069a12.843,12.843,0,0,1-2.061-7.181h11.09A4.964,4.964,0,0,0-5.005-9.455a6.237,6.237,0,0,0,4.351,1.6A6.533,6.533,0,0,0,3.991-9.471a5.413,5.413,0,0,0,1.734-4.138q0-3.6-1.8-5.1a7.522,7.522,0,0,0-4.973-1.5H-6.412Z" transform="translate(718.163 5336.718)" fill="#fff"/>
    <path id="Trazado_208504" data-name="Trazado 208504" d="M12.628-18.615H17.47v8.506H12.628V0H1.6V-10.109H-16.815l-.654-6.739L1.6-47.535v-.1H12.628Zm-19.6,0H1.6V-33.271L.916-32.159Z" transform="translate(884.294 5341.636)" fill="#fff"/>
    <path id="Trazado_208505" data-name="Trazado 208505" d="M-15.834-23.267l2.912-24.365h27.84v8.571H-3.958L-5.038-29.6a13,13,0,0,1,3.092-1.216A14.105,14.105,0,0,1,1.8-31.341q7.1,0,10.91,4.2t3.811,11.794A16.9,16.9,0,0,1,14.476-7.05,14.053,14.053,0,0,1,8.735-1.341,18.126,18.126,0,0,1,0,.654,19.5,19.5,0,0,1-8.408-1.193a15.083,15.083,0,0,1-6.15-5.067,12.311,12.311,0,0,1-2.192-7.273H-5.692A6.254,6.254,0,0,0-4.024-9.386,5.3,5.3,0,0,0-.065-7.852q5.562,0,5.562-8.227,0-7.607-6.8-7.607A6.79,6.79,0,0,0-7.066-21.2Z" transform="translate(1054.273 5341.636)" fill="#fff"/>
    <path id="Trazado_208506" data-name="Trazado 208506" d="M10.142-48.32v8.669H9.651A16.552,16.552,0,0,0-.507-36.69,12.5,12.5,0,0,0-5.4-28.462a12.892,12.892,0,0,1,9.422-3.664,12.025,12.025,0,0,1,9.847,4.515q3.664,4.515,3.664,11.843a16.674,16.674,0,0,1-2.143,8.342A15.29,15.29,0,0,1,9.406-1.489,17.2,17.2,0,0,1,.883.654,17.78,17.78,0,0,1-8.179-1.652a15.857,15.857,0,0,1-6.216-6.592,21.707,21.707,0,0,1-2.29-9.88v-4.417a27.5,27.5,0,0,1,3.157-13.233,22.887,22.887,0,0,1,9.013-9.209A25.769,25.769,0,0,1,8.473-48.32ZM.2-23.686a6.308,6.308,0,0,0-3.664,1.014A6.439,6.439,0,0,0-5.66-20.185v3.3q0,9.029,6.249,9.029a5.069,5.069,0,0,0,4.2-2.257,9.2,9.2,0,0,0,1.685-5.66A9.03,9.03,0,0,0,4.76-21.477,5.493,5.493,0,0,0,.2-23.686Z" transform="translate(1221.163 5341.636)" fill="#fff"/>
    <path id="Trazado_208507" data-name="Trazado 208507" d="M33.048,14.186a5.193,5.193,0,0,1-.8,2.622,4.833,4.833,0,0,1-2.056,1.763,7,7,0,0,1-3.022.625,5.584,5.584,0,0,1-4.414-1.826,7.54,7.54,0,0,1-1.611-5.156v-.7a8.607,8.607,0,0,1,.728-3.657,5.513,5.513,0,0,1,2.095-2.422,5.844,5.844,0,0,1,3.164-.854,6.129,6.129,0,0,1,4.16,1.362,5.383,5.383,0,0,1,1.787,3.755H29.66a2.547,2.547,0,0,0-.654-1.865,2.691,2.691,0,0,0-1.875-.566,2.048,2.048,0,0,0-1.875.957,6.151,6.151,0,0,0-.625,3.057v1.006a6.806,6.806,0,0,0,.571,3.252,2.091,2.091,0,0,0,1.968.977,2.632,2.632,0,0,0,1.807-.557,2.363,2.363,0,0,0,.664-1.768Zm7.861-2.773-1.084-.078a1.947,1.947,0,0,0-1.992.977V19H34.542V8.434h3.086l.107,1.357A2.548,2.548,0,0,1,40.05,8.238a3.209,3.209,0,0,1,.918.117ZM47.023,19.2a5.432,5.432,0,0,1-3.936-1.45,5.008,5.008,0,0,1-1.5-3.774V13.7a6.489,6.489,0,0,1,.6-2.861,4.395,4.395,0,0,1,1.753-1.919,5.292,5.292,0,0,1,2.734-.679A4.574,4.574,0,0,1,50.187,9.62a5.43,5.43,0,0,1,1.289,3.853v1.279H44.933a2.372,2.372,0,0,0,.771,1.4,2.3,2.3,0,0,0,1.543.508,2.958,2.958,0,0,0,2.441-1.094l1.5,1.777a4.2,4.2,0,0,1-1.743,1.353A5.891,5.891,0,0,1,47.023,19.2Zm-.371-8.418q-1.445,0-1.719,1.914h3.32v-.254a1.63,1.63,0,0,0-.4-1.226A1.593,1.593,0,0,0,46.652,10.777ZM58.751,19a3.716,3.716,0,0,1-.312-.947A3.06,3.06,0,0,1,55.9,19.2a3.749,3.749,0,0,1-2.539-.9,2.875,2.875,0,0,1-1.045-2.271,2.955,2.955,0,0,1,1.27-2.6,6.468,6.468,0,0,1,3.691-.879h1.016v-.559q0-1.462-1.26-1.462a1.03,1.03,0,0,0-1.172,1.158H52.57a2.95,2.95,0,0,1,1.3-2.487A5.479,5.479,0,0,1,57.2,8.238a4.8,4.8,0,0,1,3.193.986,3.429,3.429,0,0,1,1.2,2.705v4.678a4.79,4.79,0,0,0,.449,2.227V19Zm-2.061-2.148a1.836,1.836,0,0,0,1.021-.264,1.653,1.653,0,0,0,.581-.6V14.3h-.957q-1.719,0-1.719,1.543a.942.942,0,0,0,.3.728A1.1,1.1,0,0,0,56.691,16.852Zm11.191-.2a1.464,1.464,0,0,0,1.074-.376,1.379,1.379,0,0,0,.371-1.05h3.086a3.653,3.653,0,0,1-1.245,2.852A4.631,4.631,0,0,1,67.96,19.2a4.689,4.689,0,0,1-3.633-1.445,5.7,5.7,0,0,1-1.328-4v-.137a6.436,6.436,0,0,1,.591-2.827,4.3,4.3,0,0,1,1.7-1.885,5.081,5.081,0,0,1,2.637-.659A4.573,4.573,0,0,1,71.2,9.381a4.053,4.053,0,0,1,1.211,3.1H69.328a1.806,1.806,0,0,0-.4-1.26,1.382,1.382,0,0,0-1.074-.439q-1.279,0-1.494,1.631a11.508,11.508,0,0,0-.068,1.426,4.52,4.52,0,0,0,.381,2.207A1.319,1.319,0,0,0,67.882,16.656ZM77.277,19h-3.3V8.434h3.3Zm-3.5-13.291a1.469,1.469,0,0,1,.508-1.152,2.159,2.159,0,0,1,2.637,0,1.469,1.469,0,0,1,.508,1.152,1.469,1.469,0,0,1-.508,1.152,2.159,2.159,0,0,1-2.637,0A1.469,1.469,0,0,1,73.781,5.709Zm5.107,7.91A6.236,6.236,0,0,1,79.5,10.8a4.4,4.4,0,0,1,1.768-1.9,5.323,5.323,0,0,1,2.705-.664,4.858,4.858,0,0,1,3.74,1.47,5.64,5.64,0,0,1,1.367,4v.117a5.472,5.472,0,0,1-1.372,3.921A4.871,4.871,0,0,1,84,19.2a4.927,4.927,0,0,1-3.623-1.353A5.29,5.29,0,0,1,78.9,14.176Zm3.291.205a3.932,3.932,0,0,0,.459,2.148A1.529,1.529,0,0,0,84,16.656q1.758,0,1.8-2.705v-.332q0-2.842-1.816-2.842-1.65,0-1.787,2.451ZM84.425,4H87.9L85.187,7.066l-2.686,0Zm9.131,4.434.107,1.24a3.583,3.583,0,0,1,3.018-1.436,3.015,3.015,0,0,1,2.466.986,4.7,4.7,0,0,1,.845,2.969V19h-3.3V12.33a1.783,1.783,0,0,0-.322-1.177,1.491,1.491,0,0,0-1.172-.376,1.569,1.569,0,0,0-1.436.762V19H90.47V8.434Zm12.822,5.205a6.455,6.455,0,0,1,1.084-3.955,3.568,3.568,0,0,1,3.027-1.445,3.035,3.035,0,0,1,2.383,1.113V4h3.3V19h-2.959l-.166-1.133A3.116,3.116,0,0,1,110.47,19.2a3.562,3.562,0,0,1-2.988-1.445A6.659,6.659,0,0,1,106.378,13.639Zm3.291.205q0,2.813,1.641,2.813a1.62,1.62,0,0,0,1.563-.918V11.715a1.576,1.576,0,0,0-1.543-.937q-1.523,0-1.65,2.461ZM123.156,19.2a5.432,5.432,0,0,1-3.936-1.45,5.008,5.008,0,0,1-1.5-3.774V13.7a6.489,6.489,0,0,1,.6-2.861,4.395,4.395,0,0,1,1.753-1.919,5.292,5.292,0,0,1,2.734-.679A4.574,4.574,0,0,1,126.32,9.62a5.43,5.43,0,0,1,1.289,3.853v1.279h-6.543a2.372,2.372,0,0,0,.771,1.4,2.3,2.3,0,0,0,1.543.508,2.958,2.958,0,0,0,2.441-1.094l1.5,1.777a4.2,4.2,0,0,1-1.743,1.353A5.891,5.891,0,0,1,123.156,19.2Zm-.371-8.418q-1.445,0-1.719,1.914h3.32v-.254a1.63,1.63,0,0,0-.4-1.226A1.593,1.593,0,0,0,122.785,10.777ZM132.4,19h-3.3V4h3.3Zm11.475-2.344a1.464,1.464,0,0,0,1.074-.376,1.379,1.379,0,0,0,.371-1.05h3.086a3.653,3.653,0,0,1-1.245,2.852,4.631,4.631,0,0,1-3.208,1.113,4.689,4.689,0,0,1-3.633-1.445,5.7,5.7,0,0,1-1.328-4v-.137a6.436,6.436,0,0,1,.591-2.827,4.3,4.3,0,0,1,1.7-1.885,5.081,5.081,0,0,1,2.637-.659A4.573,4.573,0,0,1,147.2,9.381a4.053,4.053,0,0,1,1.211,3.1h-3.086a1.807,1.807,0,0,0-.4-1.26,1.382,1.382,0,0,0-1.074-.439q-1.279,0-1.494,1.631a11.507,11.507,0,0,0-.068,1.426,4.52,4.52,0,0,0,.381,2.207A1.319,1.319,0,0,0,143.878,16.656Zm5.508-3.037A6.236,6.236,0,0,1,150,10.8a4.4,4.4,0,0,1,1.768-1.9,5.323,5.323,0,0,1,2.705-.664,4.858,4.858,0,0,1,3.74,1.47,5.64,5.64,0,0,1,1.367,4v.117a5.472,5.472,0,0,1-1.372,3.921,4.871,4.871,0,0,1-3.716,1.45,4.927,4.927,0,0,1-3.623-1.353,5.29,5.29,0,0,1-1.475-3.667Zm3.291.205a3.932,3.932,0,0,0,.459,2.148,1.529,1.529,0,0,0,1.357.684q1.758,0,1.8-2.705v-.332q0-2.842-1.816-2.842-1.65,0-1.787,2.451Zm11.377-5.391.107,1.24a3.583,3.583,0,0,1,3.018-1.436,3.015,3.015,0,0,1,2.466.986,4.7,4.7,0,0,1,.845,2.969V19h-3.3V12.33a1.783,1.783,0,0,0-.322-1.177,1.491,1.491,0,0,0-1.172-.376,1.569,1.569,0,0,0-1.436.762V19h-3.291V8.434Zm12.09-2.627V8.434h1.738v2.285h-1.738v4.834a1.234,1.234,0,0,0,.215.83,1.152,1.152,0,0,0,.85.234,4.828,4.828,0,0,0,.82-.059v2.354a6.074,6.074,0,0,1-1.855.283,3.448,3.448,0,0,1-2.51-.8,3.282,3.282,0,0,1-.811-2.432V10.719h-1.348V8.434h1.348V5.807ZM184.289,19.2a5.432,5.432,0,0,1-3.936-1.45,5.008,5.008,0,0,1-1.5-3.774V13.7a6.489,6.489,0,0,1,.6-2.861A4.395,4.395,0,0,1,181.2,8.917a5.292,5.292,0,0,1,2.734-.679,4.574,4.574,0,0,1,3.516,1.382,5.43,5.43,0,0,1,1.289,3.853v1.279H182.2a2.372,2.372,0,0,0,.771,1.4,2.3,2.3,0,0,0,1.543.508,2.958,2.958,0,0,0,2.441-1.094l1.5,1.777a4.2,4.2,0,0,1-1.743,1.353A5.891,5.891,0,0,1,184.289,19.2Zm-.371-8.418q-1.445,0-1.719,1.914h3.32v-.254a1.63,1.63,0,0,0-.4-1.226A1.593,1.593,0,0,0,183.917,10.777Zm9.17-2.344.107,1.24a3.583,3.583,0,0,1,3.018-1.436,3.015,3.015,0,0,1,2.466.986,4.7,4.7,0,0,1,.845,2.969V19h-3.3V12.33a1.783,1.783,0,0,0-.322-1.177,1.491,1.491,0,0,0-1.172-.376,1.569,1.569,0,0,0-1.436.762V19H190V8.434ZM204.816,19h-3.3V8.434h3.3Zm-3.5-13.291a1.469,1.469,0,0,1,.508-1.152,2.159,2.159,0,0,1,2.637,0,1.469,1.469,0,0,1,.508,1.152,1.469,1.469,0,0,1-.508,1.152,2.159,2.159,0,0,1-2.637,0A1.469,1.469,0,0,1,201.32,5.709Zm5.107,7.93a6.455,6.455,0,0,1,1.084-3.955,3.568,3.568,0,0,1,3.027-1.445,3.035,3.035,0,0,1,2.383,1.113V4h3.3V19h-2.959l-.166-1.133a3.116,3.116,0,0,1-2.578,1.328,3.562,3.562,0,0,1-2.988-1.445A6.659,6.659,0,0,1,206.427,13.639Zm3.291.205q0,2.813,1.641,2.813a1.62,1.62,0,0,0,1.563-.918V11.715a1.576,1.576,0,0,0-1.543-.937q-1.523,0-1.65,2.461Zm7.959-.225a6.236,6.236,0,0,1,.615-2.817,4.4,4.4,0,0,1,1.768-1.9,5.323,5.323,0,0,1,2.705-.664,4.858,4.858,0,0,1,3.74,1.47,5.64,5.64,0,0,1,1.367,4v.117a5.472,5.472,0,0,1-1.372,3.921,4.871,4.871,0,0,1-3.716,1.45,4.927,4.927,0,0,1-3.623-1.353,5.29,5.29,0,0,1-1.475-3.667Zm3.291.205a3.932,3.932,0,0,0,.459,2.148,1.529,1.529,0,0,0,1.357.684q1.758,0,1.8-2.705v-.332q0-2.842-1.816-2.842-1.65,0-1.787,2.451Z" transform="translate(261 5482.271)" fill="#12263f"/>
    <path id="Trazado_208508" data-name="Trazado 208508" d="M26.273,15.152q.215-1.1-1.191-1.709l-1.6-.664q-3.369-1.514-3.2-4.121a3.638,3.638,0,0,1,.82-2.124,4.872,4.872,0,0,1,2.08-1.45,7.654,7.654,0,0,1,2.9-.5,4.932,4.932,0,0,1,3.394,1.23A4.088,4.088,0,0,1,30.736,9.01h-3.32A1.989,1.989,0,0,0,27.069,7.7a1.5,1.5,0,0,0-1.235-.513,2.588,2.588,0,0,0-1.484.391,1.585,1.585,0,0,0-.762,1.1q-.186.977,1.45,1.6a15.947,15.947,0,0,1,2.378,1.074,3.927,3.927,0,0,1,2.188,3.77,3.86,3.86,0,0,1-.791,2.158,4.573,4.573,0,0,1-1.978,1.436A7.307,7.307,0,0,1,24,19.205a6.849,6.849,0,0,1-2.139-.361,4.706,4.706,0,0,1-1.689-1A4.327,4.327,0,0,1,18.8,14.381l3.35.01a2.293,2.293,0,0,0,.42,1.655,2.017,2.017,0,0,0,1.611.562,2.418,2.418,0,0,0,1.4-.386A1.6,1.6,0,0,0,26.273,15.152ZM33.949,19H30.727l2.6-15h3.223Zm5.43,0H36.156L37.992,8.434h3.223Zm-1.1-13.232a1.49,1.49,0,0,1,.5-1.191A1.806,1.806,0,0,1,40.043,4.1a1.864,1.864,0,0,1,1.255.43A1.464,1.464,0,0,1,41.82,5.65a1.493,1.493,0,0,1-.5,1.2,1.811,1.811,0,0,1-1.27.474A1.887,1.887,0,0,1,38.808,6.9,1.447,1.447,0,0,1,38.275,5.768Zm8.037,10.889a1.382,1.382,0,0,0,1.084-.383,1.907,1.907,0,0,0,.5-1.043l3.008-.01a3.954,3.954,0,0,1-.688,2.08,4.161,4.161,0,0,1-1.7,1.421,5.023,5.023,0,0,1-2.29.474,3.967,3.967,0,0,1-3.252-1.519,5.251,5.251,0,0,1-.928-3.823l.029-.234a7.079,7.079,0,0,1,.9-2.837,5.14,5.14,0,0,1,1.9-1.909A4.926,4.926,0,0,1,47.5,8.238a3.929,3.929,0,0,1,2.915,1.177,4.173,4.173,0,0,1,1.03,3.071l-3.008-.01q.049-1.67-1.2-1.7-1.7-.059-1.953,2.852l-.088.993-.01.37Q45.189,16.627,46.313,16.656ZM54.984,19H51.762L53.6,8.434H56.82Zm-1.1-13.232a1.49,1.49,0,0,1,.5-1.191A1.806,1.806,0,0,1,55.648,4.1a1.864,1.864,0,0,1,1.255.43,1.464,1.464,0,0,1,.522,1.123,1.493,1.493,0,0,1-.5,1.2,1.811,1.811,0,0,1-1.27.474A1.887,1.887,0,0,1,54.413,6.9,1.447,1.447,0,0,1,53.881,5.768Zm7.91,2.656-.225,1.27a3.756,3.756,0,0,1,3.057-1.465,2.523,2.523,0,0,1,2.183,1.089,4.557,4.557,0,0,1,.522,3.032L66.215,19H62.992l1.123-6.678a3.454,3.454,0,0,0,.02-.626q-.068-.929-1.094-.929a2.008,2.008,0,0,0-1.553.753L60.17,19H56.957L58.793,8.434ZM68.607,13.7a8.029,8.029,0,0,1,.874-2.881,5.072,5.072,0,0,1,1.724-1.948,4.15,4.15,0,0,1,2.344-.64,2.885,2.885,0,0,1,2.4,1.143l.342-.947,2.969.01L77.533,18.59a4.964,4.964,0,0,1-1.885,3.389,6,6,0,0,1-3.965,1.182,5.661,5.661,0,0,1-2.041-.42,4.4,4.4,0,0,1-1.689-1.211l1.523-1.895a2.766,2.766,0,0,0,2.207,1.1A2.582,2.582,0,0,0,74.4,18.463l.078-.322A3.3,3.3,0,0,1,72.064,19.2a3.258,3.258,0,0,1-1.787-.513,3.371,3.371,0,0,1-1.211-1.45,5.64,5.64,0,0,1-.5-2.109A9.17,9.17,0,0,1,68.607,13.7Zm3.174,1.045a2.562,2.562,0,0,0,.322,1.4,1.093,1.093,0,0,0,.938.518,2.147,2.147,0,0,0,1.65-.7l.83-4.482a1.424,1.424,0,0,0-1.309-.7,1.87,1.87,0,0,0-1.572.8,4.291,4.291,0,0,0-.8,2.144Q71.781,14.322,71.781,14.742ZM85.6,13.219a14.924,14.924,0,0,1,.635-4.434,10.7,10.7,0,0,1,1.753-3.477,6.225,6.225,0,0,1,2.485-1.992L91.1,4.938a6.367,6.367,0,0,0-2.114,3.14,15.313,15.313,0,0,0-.757,5v.43a15.612,15.612,0,0,0,.747,5.1A6.34,6.34,0,0,0,91.1,21.773l-.625,1.621a6.163,6.163,0,0,1-2.485-2,10.538,10.538,0,0,1-1.753-3.462,15,15,0,0,1-.635-4.277Zm12.246.752H95.99V19H92.563V4.781h5.6A6.246,6.246,0,0,1,102.113,5.9a3.8,3.8,0,0,1,1.426,3.17,4.616,4.616,0,0,1-.6,2.458,4.263,4.263,0,0,1-1.88,1.58l2.969,5.741V19h-3.672ZM95.99,11.334h2.168a1.946,1.946,0,0,0,1.47-.514,1.987,1.987,0,0,0,.493-1.434,2.01,2.01,0,0,0-.5-1.444,1.928,1.928,0,0,0-1.465-.524H95.99ZM110.57,19.2a5.432,5.432,0,0,1-3.936-1.45,5.008,5.008,0,0,1-1.5-3.774V13.7a6.489,6.489,0,0,1,.6-2.861,4.395,4.395,0,0,1,1.753-1.919,5.292,5.292,0,0,1,2.734-.679,4.574,4.574,0,0,1,3.516,1.382,5.43,5.43,0,0,1,1.289,3.853v1.279H108.48a2.372,2.372,0,0,0,.771,1.4,2.3,2.3,0,0,0,1.543.508,2.958,2.958,0,0,0,2.441-1.094l1.5,1.777A4.2,4.2,0,0,1,113,18.692,5.891,5.891,0,0,1,110.57,19.2Zm-.371-8.418q-1.445,0-1.719,1.914h3.32v-.254a1.63,1.63,0,0,0-.4-1.226A1.593,1.593,0,0,0,110.2,10.777ZM126.156,13.8a6.44,6.44,0,0,1-1.074,3.994,3.6,3.6,0,0,1-3.027,1.4,3.122,3.122,0,0,1-2.6-1.279L119.32,19h-2.949V4h3.291V9.283a3.013,3.013,0,0,1,2.373-1.045,3.6,3.6,0,0,1,3.047,1.416,6.473,6.473,0,0,1,1.074,3.984Zm-3.3-.21a4.3,4.3,0,0,0-.405-2.169,1.366,1.366,0,0,0-1.245-.648,1.576,1.576,0,0,0-1.543.848v4.192a1.585,1.585,0,0,0,1.563.838,1.4,1.4,0,0,0,1.475-1.131A8.121,8.121,0,0,0,122.855,13.595ZM133.559,19a3.716,3.716,0,0,1-.312-.947,3.06,3.06,0,0,1-2.539,1.143,3.749,3.749,0,0,1-2.539-.9,2.875,2.875,0,0,1-1.045-2.271,2.955,2.955,0,0,1,1.27-2.6,6.468,6.468,0,0,1,3.691-.879H133.1v-.559q0-1.462-1.26-1.462a1.03,1.03,0,0,0-1.172,1.158h-3.291a2.95,2.95,0,0,1,1.3-2.487,5.479,5.479,0,0,1,3.325-.956,4.8,4.8,0,0,1,3.193.986,3.429,3.429,0,0,1,1.2,2.705v4.678a4.79,4.79,0,0,0,.449,2.227V19ZM131.5,16.852a1.836,1.836,0,0,0,1.021-.264,1.653,1.653,0,0,0,.581-.6V14.3h-.957q-1.719,0-1.719,1.543a.942.942,0,0,0,.3.728A1.1,1.1,0,0,0,131.5,16.852Zm9.746-8.418.107,1.24a3.583,3.583,0,0,1,3.018-1.436,3.015,3.015,0,0,1,2.466.986,4.7,4.7,0,0,1,.845,2.969V19h-3.3V12.33a1.783,1.783,0,0,0-.322-1.177,1.491,1.491,0,0,0-1.172-.376,1.569,1.569,0,0,0-1.436.762V19h-3.291V8.434ZM155.453,19a3.716,3.716,0,0,1-.312-.947A3.06,3.06,0,0,1,152.6,19.2a3.749,3.749,0,0,1-2.539-.9,2.875,2.875,0,0,1-1.045-2.271,2.955,2.955,0,0,1,1.27-2.6,6.468,6.468,0,0,1,3.691-.879h1.016v-.559q0-1.462-1.26-1.462a1.03,1.03,0,0,0-1.172,1.158h-3.291a2.95,2.95,0,0,1,1.3-2.487,5.479,5.479,0,0,1,3.325-.956,4.8,4.8,0,0,1,3.193.986,3.429,3.429,0,0,1,1.2,2.705v4.678a4.79,4.79,0,0,0,.449,2.227V19Zm-2.061-2.148a1.836,1.836,0,0,0,1.021-.264,1.653,1.653,0,0,0,.581-.6V14.3h-.957q-1.719,0-1.719,1.543a.942.942,0,0,0,.3.728A1.1,1.1,0,0,0,153.393,16.852Zm6.309-3.213a6.455,6.455,0,0,1,1.084-3.955,3.568,3.568,0,0,1,3.027-1.445A3.035,3.035,0,0,1,166.2,9.352V4h3.3V19h-2.959l-.166-1.133a3.116,3.116,0,0,1-2.578,1.328A3.562,3.562,0,0,1,160.8,17.75,6.659,6.659,0,0,1,159.7,13.639Zm3.291.205q0,2.813,1.641,2.813a1.62,1.62,0,0,0,1.563-.918V11.715a1.576,1.576,0,0,0-1.543-.937q-1.523,0-1.65,2.461Zm7.959-.225a6.236,6.236,0,0,1,.615-2.817,4.4,4.4,0,0,1,1.768-1.9,5.323,5.323,0,0,1,2.705-.664,4.858,4.858,0,0,1,3.74,1.47,5.64,5.64,0,0,1,1.367,4v.117a5.472,5.472,0,0,1-1.372,3.921,4.871,4.871,0,0,1-3.716,1.45,4.927,4.927,0,0,1-3.623-1.353,5.29,5.29,0,0,1-1.475-3.667Zm3.291.205a3.932,3.932,0,0,0,.459,2.148,1.529,1.529,0,0,0,1.357.684q1.758,0,1.8-2.705v-.332q0-2.842-1.816-2.842-1.65,0-1.787,2.451Zm13.545-.332a13.925,13.925,0,0,1-.674,4.355,11.12,11.12,0,0,1-1.86,3.54,6.193,6.193,0,0,1-2.563,2.007l-.625-1.621a6.43,6.43,0,0,0,2.1-3.125,15.085,15.085,0,0,0,.771-4.854v-.6a15.612,15.612,0,0,0-.747-5.1,6.34,6.34,0,0,0-2.124-3.164l.625-1.621A6.307,6.307,0,0,1,185.233,5.3a10.984,10.984,0,0,1,1.855,3.486,13.807,13.807,0,0,1,.7,4.272Z" transform="translate(619 5482.271)" fill="#12263f"/>
    <path id="Trazado_208509" data-name="Trazado 208509" d="M19.645,12.965H14.254v3.4h6.367V19H10.827V4.781h9.814V7.428H14.254v3h5.391Zm6.5-1.621,1.533-2.91H31.1L28.317,13.58,31.237,19H27.8l-1.66-3.125L24.508,19H21.051l2.93-5.42L21.208,8.434h3.457Zm9.844-5.537V8.434h1.738v2.285H35.993v4.834a1.234,1.234,0,0,0,.215.83,1.152,1.152,0,0,0,.85.234,4.828,4.828,0,0,0,.82-.059v2.354a6.074,6.074,0,0,1-1.855.283,3.448,3.448,0,0,1-2.51-.8,3.282,3.282,0,0,1-.811-2.432V10.719H31.354V8.434H32.7V5.807Zm9.424,5.605-1.084-.078a1.947,1.947,0,0,0-1.992.977V19H39.049V8.434h3.086l.107,1.357a2.548,2.548,0,0,1,2.314-1.553,3.209,3.209,0,0,1,.918.117ZM52.262,19a3.716,3.716,0,0,1-.312-.947A3.06,3.06,0,0,1,49.411,19.2a3.749,3.749,0,0,1-2.539-.9,2.875,2.875,0,0,1-1.045-2.271,2.955,2.955,0,0,1,1.27-2.6,6.468,6.468,0,0,1,3.691-.879H51.8v-.559q0-1.462-1.26-1.462a1.03,1.03,0,0,0-1.172,1.158H46.081a2.95,2.95,0,0,1,1.3-2.487,5.479,5.479,0,0,1,3.325-.956,4.8,4.8,0,0,1,3.193.986,3.429,3.429,0,0,1,1.2,2.705v4.678a4.79,4.79,0,0,0,.449,2.227V19ZM50.2,16.852a1.836,1.836,0,0,0,1.021-.264,1.653,1.653,0,0,0,.581-.6V14.3h-.957q-1.719,0-1.719,1.543a.942.942,0,0,0,.3.728A1.1,1.1,0,0,0,50.2,16.852Zm11.191-.2a1.464,1.464,0,0,0,1.074-.376,1.379,1.379,0,0,0,.371-1.05h3.086a3.653,3.653,0,0,1-1.245,2.852A4.631,4.631,0,0,1,61.471,19.2a4.689,4.689,0,0,1-3.633-1.445,5.7,5.7,0,0,1-1.328-4v-.137a6.436,6.436,0,0,1,.591-2.827,4.3,4.3,0,0,1,1.7-1.885,5.081,5.081,0,0,1,2.637-.659,4.573,4.573,0,0,1,3.271,1.143,4.053,4.053,0,0,1,1.211,3.1H62.838a1.807,1.807,0,0,0-.4-1.26,1.382,1.382,0,0,0-1.074-.439q-1.279,0-1.494,1.631a11.507,11.507,0,0,0-.068,1.426,4.52,4.52,0,0,0,.381,2.207A1.319,1.319,0,0,0,61.393,16.656Zm10.391,0a1.464,1.464,0,0,0,1.074-.376,1.379,1.379,0,0,0,.371-1.05h3.086a3.653,3.653,0,0,1-1.245,2.852A4.631,4.631,0,0,1,71.862,19.2a4.689,4.689,0,0,1-3.633-1.445,5.7,5.7,0,0,1-1.328-4v-.137a6.436,6.436,0,0,1,.591-2.827A4.3,4.3,0,0,1,69.2,8.9a5.081,5.081,0,0,1,2.637-.659A4.573,4.573,0,0,1,75.1,9.381a4.053,4.053,0,0,1,1.211,3.1H73.229a1.806,1.806,0,0,0-.4-1.26,1.382,1.382,0,0,0-1.074-.439q-1.279,0-1.494,1.631a11.508,11.508,0,0,0-.068,1.426,4.52,4.52,0,0,0,.381,2.207A1.319,1.319,0,0,0,71.784,16.656ZM81.178,19h-3.3V8.434h3.3Zm-3.5-13.291a1.469,1.469,0,0,1,.508-1.152,2.159,2.159,0,0,1,2.637,0,1.469,1.469,0,0,1,.508,1.152,1.469,1.469,0,0,1-.508,1.152,2.159,2.159,0,0,1-2.637,0A1.469,1.469,0,0,1,77.682,5.709Zm5.107,7.91A6.236,6.236,0,0,1,83.4,10.8a4.4,4.4,0,0,1,1.768-1.9,5.323,5.323,0,0,1,2.705-.664,4.858,4.858,0,0,1,3.74,1.47,5.64,5.64,0,0,1,1.367,4v.117a5.472,5.472,0,0,1-1.372,3.921A4.871,4.871,0,0,1,87.9,19.2a4.927,4.927,0,0,1-3.623-1.353A5.29,5.29,0,0,1,82.8,14.176Zm3.291.205a3.932,3.932,0,0,0,.459,2.148,1.529,1.529,0,0,0,1.357.684q1.758,0,1.8-2.705v-.332q0-2.842-1.816-2.842-1.65,0-1.787,2.451ZM88.327,4H91.8L89.088,7.066l-2.686,0Zm9.131,4.434.107,1.24a3.583,3.583,0,0,1,3.018-1.436,3.015,3.015,0,0,1,2.466.986,4.7,4.7,0,0,1,.845,2.969V19h-3.3V12.33a1.783,1.783,0,0,0-.322-1.177,1.491,1.491,0,0,0-1.172-.376,1.569,1.569,0,0,0-1.436.762V19H94.372V8.434Zm12.822,5.205a6.455,6.455,0,0,1,1.084-3.955,3.568,3.568,0,0,1,3.027-1.445,3.035,3.035,0,0,1,2.383,1.113V4h3.3V19h-2.959l-.166-1.133a3.116,3.116,0,0,1-2.578,1.328,3.562,3.562,0,0,1-2.988-1.445A6.659,6.659,0,0,1,110.28,13.639Zm3.291.205q0,2.813,1.641,2.813a1.62,1.62,0,0,0,1.563-.918V11.715a1.576,1.576,0,0,0-1.543-.937q-1.523,0-1.65,2.461ZM127.057,19.2a5.432,5.432,0,0,1-3.936-1.45,5.008,5.008,0,0,1-1.5-3.774V13.7a6.489,6.489,0,0,1,.6-2.861,4.395,4.395,0,0,1,1.753-1.919,5.292,5.292,0,0,1,2.734-.679,4.574,4.574,0,0,1,3.516,1.382,5.43,5.43,0,0,1,1.289,3.853v1.279h-6.543a2.372,2.372,0,0,0,.771,1.4,2.3,2.3,0,0,0,1.543.508,2.958,2.958,0,0,0,2.441-1.094l1.5,1.777a4.2,4.2,0,0,1-1.743,1.353A5.891,5.891,0,0,1,127.057,19.2Zm-.371-8.418q-1.445,0-1.719,1.914h3.32v-.254a1.63,1.63,0,0,0-.4-1.226A1.593,1.593,0,0,0,126.686,10.777ZM141.286,19h-3.3V4h3.3Zm7.979,0a3.716,3.716,0,0,1-.312-.947,3.06,3.06,0,0,1-2.539,1.143,3.749,3.749,0,0,1-2.539-.9,2.875,2.875,0,0,1-1.045-2.271,2.955,2.955,0,0,1,1.27-2.6,6.468,6.468,0,0,1,3.691-.879h1.016v-.559q0-1.462-1.26-1.462a1.03,1.03,0,0,0-1.172,1.158h-3.291a2.95,2.95,0,0,1,1.3-2.487,5.479,5.479,0,0,1,3.325-.956,4.8,4.8,0,0,1,3.193.986,3.429,3.429,0,0,1,1.2,2.705v4.678a4.79,4.79,0,0,0,.449,2.227V19ZM147.2,16.852a1.836,1.836,0,0,0,1.021-.264,1.653,1.653,0,0,0,.581-.6V14.3h-.957q-1.719,0-1.719,1.543a.942.942,0,0,0,.3.728A1.1,1.1,0,0,0,147.2,16.852Zm12.256-.82a.76.76,0,0,0-.439-.674,6.685,6.685,0,0,0-1.67-.527,7.615,7.615,0,0,1-2.031-.718,3.4,3.4,0,0,1-1.221-1.079,2.577,2.577,0,0,1-.42-1.455,2.92,2.92,0,0,1,1.2-2.4,4.948,4.948,0,0,1,3.145-.942,5.482,5.482,0,0,1,3.359.947,2.962,2.962,0,0,1,1.27,2.49h-3.3q0-1.27-1.338-1.27a1.326,1.326,0,0,0-.869.288.892.892,0,0,0-.352.718.819.819,0,0,0,.43.713,4.06,4.06,0,0,0,1.372.449,11.857,11.857,0,0,1,1.655.42,3.007,3.007,0,0,1,2.383,2.939,2.767,2.767,0,0,1-1.284,2.354,5.632,5.632,0,0,1-3.325.908,5.747,5.747,0,0,1-2.422-.488,4.05,4.05,0,0,1-1.66-1.328,3.007,3.007,0,0,1-.6-1.768h3.076a1.272,1.272,0,0,0,.488,1.069,2.009,2.009,0,0,0,1.2.337,1.58,1.58,0,0,0,1.011-.273A.875.875,0,0,0,159.459,16.031Zm19.5-2.236a6.372,6.372,0,0,1-1.108,3.931,3.554,3.554,0,0,1-2.993,1.47,3.046,3.046,0,0,1-2.393-1.064v4.932h-3.291V8.434h3.076l.1.977a3.046,3.046,0,0,1,2.49-1.172,3.582,3.582,0,0,1,3.037,1.44,6.45,6.45,0,0,1,1.084,3.96Zm-3.291-.205q0-2.812-1.641-2.812a1.549,1.549,0,0,0-1.562.84v4.16a1.6,1.6,0,0,0,1.582.879q1.572,0,1.621-2.715ZM183.883,19h-3.3V8.434h3.3Zm-3.5-13.291a1.469,1.469,0,0,1,.508-1.152,2.159,2.159,0,0,1,2.637,0,1.469,1.469,0,0,1,.508,1.152,1.469,1.469,0,0,1-.508,1.152,2.159,2.159,0,0,1-2.637,0A1.469,1.469,0,0,1,180.387,5.709ZM191.022,19.2a5.432,5.432,0,0,1-3.936-1.45,5.008,5.008,0,0,1-1.5-3.774V13.7a6.489,6.489,0,0,1,.6-2.861,4.395,4.395,0,0,1,1.753-1.919,5.292,5.292,0,0,1,2.734-.679,4.574,4.574,0,0,1,3.516,1.382,5.43,5.43,0,0,1,1.289,3.853v1.279h-6.543a2.372,2.372,0,0,0,.771,1.4,2.3,2.3,0,0,0,1.543.508,2.958,2.958,0,0,0,2.441-1.094l1.5,1.777a4.2,4.2,0,0,1-1.743,1.353A5.891,5.891,0,0,1,191.022,19.2Zm-.371-8.418q-1.445,0-1.719,1.914h3.32v-.254a1.63,1.63,0,0,0-.4-1.226A1.593,1.593,0,0,0,190.651,10.777Zm10.029,5.684h4.814V19H196.52V17.164l4.688-6.191h-4.482V8.434h8.662v1.777ZM213.043,19a3.716,3.716,0,0,1-.312-.947,3.06,3.06,0,0,1-2.539,1.143,3.749,3.749,0,0,1-2.539-.9,2.875,2.875,0,0,1-1.045-2.271,2.955,2.955,0,0,1,1.27-2.6,6.468,6.468,0,0,1,3.691-.879h1.016v-.559q0-1.462-1.26-1.462a1.03,1.03,0,0,0-1.172,1.158h-3.291a2.95,2.95,0,0,1,1.3-2.487,5.479,5.479,0,0,1,3.325-.956,4.8,4.8,0,0,1,3.193.986,3.429,3.429,0,0,1,1.2,2.705v4.678a4.79,4.79,0,0,0,.449,2.227V19Zm-2.061-2.148A1.836,1.836,0,0,0,212,16.588a1.653,1.653,0,0,0,.581-.6V14.3h-.957q-1.719,0-1.719,1.543a.942.942,0,0,0,.3.728A1.1,1.1,0,0,0,210.983,16.852Zm12.256-.82a.76.76,0,0,0-.439-.674,6.685,6.685,0,0,0-1.67-.527,7.615,7.615,0,0,1-2.031-.718,3.4,3.4,0,0,1-1.221-1.079,2.577,2.577,0,0,1-.42-1.455,2.92,2.92,0,0,1,1.2-2.4,4.948,4.948,0,0,1,3.145-.942,5.482,5.482,0,0,1,3.359.947,2.962,2.962,0,0,1,1.27,2.49h-3.3q0-1.27-1.338-1.27a1.326,1.326,0,0,0-.869.288.892.892,0,0,0-.352.718.819.819,0,0,0,.43.713,4.06,4.06,0,0,0,1.372.449,11.857,11.857,0,0,1,1.655.42,3.007,3.007,0,0,1,2.383,2.939,2.767,2.767,0,0,1-1.284,2.354,5.632,5.632,0,0,1-3.325.908,5.747,5.747,0,0,1-2.422-.488,4.05,4.05,0,0,1-1.66-1.328,3.007,3.007,0,0,1-.6-1.768H220.2a1.272,1.272,0,0,0,.488,1.069,2.009,2.009,0,0,0,1.2.337,1.58,1.58,0,0,0,1.011-.273A.875.875,0,0,0,223.239,16.031ZM236.4,19h-3.3V8.434h3.3Zm-3.5-13.291a1.469,1.469,0,0,1,.508-1.152,2.159,2.159,0,0,1,2.637,0,1.469,1.469,0,0,1,.508,1.152,1.469,1.469,0,0,1-.508,1.152,2.159,2.159,0,0,1-2.637,0A1.469,1.469,0,0,1,232.907,5.709Zm8.633,2.725.107,1.24a3.633,3.633,0,0,1,3.018-1.436A2.675,2.675,0,0,1,247.37,9.83a3.516,3.516,0,0,1,3.105-1.592q3.213,0,3.3,3.887V19h-3.3V12.33a2.014,2.014,0,0,0-.273-1.182,1.164,1.164,0,0,0-1-.371,1.559,1.559,0,0,0-1.455.869l.01.137V19h-3.3V12.35a2.117,2.117,0,0,0-.264-1.2,1.161,1.161,0,0,0-1.006-.371,1.578,1.578,0,0,0-1.445.869V19h-3.291V8.434Zm23.926,5.361a6.372,6.372,0,0,1-1.108,3.931,3.554,3.554,0,0,1-2.993,1.47,3.046,3.046,0,0,1-2.393-1.064v4.932H255.68V8.434h3.076l.1.977a3.046,3.046,0,0,1,2.49-1.172,3.582,3.582,0,0,1,3.037,1.44,6.45,6.45,0,0,1,1.084,3.96Zm-3.291-.205q0-2.812-1.641-2.812a1.549,1.549,0,0,0-1.562.84v4.16a1.6,1.6,0,0,0,1.582.879q1.572,0,1.621-2.715Zm11.133-2.178-1.084-.078a1.947,1.947,0,0,0-1.992.977V19H266.94V8.434h3.086l.107,1.357a2.548,2.548,0,0,1,2.314-1.553,3.209,3.209,0,0,1,.918.117ZM279.42,19.2a5.432,5.432,0,0,1-3.936-1.45,5.008,5.008,0,0,1-1.5-3.774V13.7a6.489,6.489,0,0,1,.6-2.861,4.395,4.395,0,0,1,1.753-1.919,5.292,5.292,0,0,1,2.734-.679,4.574,4.574,0,0,1,3.516,1.382,5.43,5.43,0,0,1,1.289,3.853v1.279h-6.543a2.372,2.372,0,0,0,.771,1.4,2.3,2.3,0,0,0,1.543.508,2.958,2.958,0,0,0,2.441-1.094l1.5,1.777a4.2,4.2,0,0,1-1.743,1.353A5.891,5.891,0,0,1,279.42,19.2Zm-.371-8.418q-1.445,0-1.719,1.914h3.32v-.254a1.63,1.63,0,0,0-.4-1.226A1.593,1.593,0,0,0,279.049,10.777Zm11.68,5.254a.76.76,0,0,0-.439-.674,6.685,6.685,0,0,0-1.67-.527,7.615,7.615,0,0,1-2.031-.718,3.4,3.4,0,0,1-1.221-1.079,2.577,2.577,0,0,1-.42-1.455,2.92,2.92,0,0,1,1.2-2.4,4.948,4.948,0,0,1,3.145-.942,5.482,5.482,0,0,1,3.359.947,2.962,2.962,0,0,1,1.27,2.49h-3.3q0-1.27-1.338-1.27a1.326,1.326,0,0,0-.869.288.892.892,0,0,0-.352.718.819.819,0,0,0,.43.713,4.06,4.06,0,0,0,1.372.449,11.856,11.856,0,0,1,1.655.42,3.007,3.007,0,0,1,2.383,2.939,2.767,2.767,0,0,1-1.284,2.354,5.631,5.631,0,0,1-3.325.908,5.747,5.747,0,0,1-2.422-.488,4.05,4.05,0,0,1-1.66-1.328,3.007,3.007,0,0,1-.6-1.768h3.076a1.272,1.272,0,0,0,.488,1.069,2.009,2.009,0,0,0,1.2.337,1.58,1.58,0,0,0,1.011-.273A.875.875,0,0,0,290.729,16.031ZM301.393,19a3.716,3.716,0,0,1-.312-.947,3.06,3.06,0,0,1-2.539,1.143,3.749,3.749,0,0,1-2.539-.9,2.875,2.875,0,0,1-1.045-2.271,2.955,2.955,0,0,1,1.27-2.6,6.468,6.468,0,0,1,3.691-.879h1.016v-.559q0-1.462-1.26-1.462a1.03,1.03,0,0,0-1.172,1.158h-3.291a2.95,2.95,0,0,1,1.3-2.487,5.479,5.479,0,0,1,3.325-.956,4.8,4.8,0,0,1,3.193.986,3.429,3.429,0,0,1,1.2,2.705v4.678a4.79,4.79,0,0,0,.449,2.227V19Zm-2.061-2.148a1.836,1.836,0,0,0,1.021-.264,1.653,1.653,0,0,0,.581-.6V14.3h-.957q-1.719,0-1.719,1.543a.942.942,0,0,0,.3.728A1.1,1.1,0,0,0,299.333,16.852Zm12.256-.82a.76.76,0,0,0-.439-.674,6.685,6.685,0,0,0-1.67-.527,7.615,7.615,0,0,1-2.031-.718,3.4,3.4,0,0,1-1.221-1.079,2.577,2.577,0,0,1-.42-1.455,2.92,2.92,0,0,1,1.2-2.4,4.948,4.948,0,0,1,3.145-.942,5.482,5.482,0,0,1,3.359.947,2.962,2.962,0,0,1,1.27,2.49h-3.3q0-1.27-1.338-1.27a1.326,1.326,0,0,0-.869.288.892.892,0,0,0-.352.718.819.819,0,0,0,.43.713,4.06,4.06,0,0,0,1.372.449,11.856,11.856,0,0,1,1.655.42,3.007,3.007,0,0,1,2.383,2.939,2.767,2.767,0,0,1-1.284,2.354,5.631,5.631,0,0,1-3.325.908,5.747,5.747,0,0,1-2.422-.488,4.05,4.05,0,0,1-1.66-1.328,3.007,3.007,0,0,1-.6-1.768h3.076a1.272,1.272,0,0,0,.488,1.069,2.009,2.009,0,0,0,1.2.337,1.58,1.58,0,0,0,1.011-.273A.875.875,0,0,0,311.588,16.031Z" transform="translate(897 5482.271)" fill="#12263f"/>
    <path id="Trazado_208510" data-name="Trazado 208510" d="M22.6,14.186a5.193,5.193,0,0,1-.8,2.622,4.833,4.833,0,0,1-2.056,1.763,7,7,0,0,1-3.022.625,5.584,5.584,0,0,1-4.414-1.826,7.54,7.54,0,0,1-1.611-5.156v-.7a8.607,8.607,0,0,1,.728-3.657,5.513,5.513,0,0,1,2.095-2.422,5.844,5.844,0,0,1,3.164-.854,6.129,6.129,0,0,1,4.16,1.362,5.383,5.383,0,0,1,1.787,3.755H19.21a2.547,2.547,0,0,0-.654-1.865,2.691,2.691,0,0,0-1.875-.566,2.048,2.048,0,0,0-1.875.957,6.151,6.151,0,0,0-.625,3.057v1.006a6.806,6.806,0,0,0,.571,3.252,2.091,2.091,0,0,0,1.968.977,2.632,2.632,0,0,0,1.807-.557,2.363,2.363,0,0,0,.664-1.768Zm1.055-.566a6.236,6.236,0,0,1,.615-2.817,4.4,4.4,0,0,1,1.768-1.9,5.323,5.323,0,0,1,2.705-.664,4.858,4.858,0,0,1,3.74,1.47,5.64,5.64,0,0,1,1.367,4v.117a5.472,5.472,0,0,1-1.372,3.921,4.871,4.871,0,0,1-3.716,1.45,4.927,4.927,0,0,1-3.623-1.353,5.29,5.29,0,0,1-1.475-3.667Zm3.291.205a3.932,3.932,0,0,0,.459,2.148,1.529,1.529,0,0,0,1.357.684q1.758,0,1.8-2.705v-.332q0-2.842-1.816-2.842-1.65,0-1.787,2.451ZM38.321,8.434l.107,1.24a3.583,3.583,0,0,1,3.018-1.436,3.015,3.015,0,0,1,2.466.986,4.7,4.7,0,0,1,.845,2.969V19h-3.3V12.33a1.783,1.783,0,0,0-.322-1.177,1.491,1.491,0,0,0-1.172-.376,1.569,1.569,0,0,0-1.436.762V19H35.235V8.434Zm12.471,6.65,1.67-6.65h3.467L52.481,19H49.122L45.675,8.434h3.477ZM61.9,19.2a5.432,5.432,0,0,1-3.936-1.45,5.008,5.008,0,0,1-1.5-3.774V13.7a6.489,6.489,0,0,1,.6-2.861A4.395,4.395,0,0,1,58.81,8.917a5.292,5.292,0,0,1,2.734-.679A4.574,4.574,0,0,1,65.06,9.62a5.43,5.43,0,0,1,1.289,3.853v1.279H59.806a2.372,2.372,0,0,0,.771,1.4,2.3,2.3,0,0,0,1.543.508,2.958,2.958,0,0,0,2.441-1.094l1.5,1.777a4.2,4.2,0,0,1-1.743,1.353A5.891,5.891,0,0,1,61.9,19.2Zm-.371-8.418q-1.445,0-1.719,1.914h3.32v-.254a1.63,1.63,0,0,0-.4-1.226A1.593,1.593,0,0,0,61.524,10.777Zm12.539.635-1.084-.078a1.947,1.947,0,0,0-1.992.977V19H67.7V8.434h3.086l.107,1.357A2.548,2.548,0,0,1,73.2,8.238a3.209,3.209,0,0,1,.918.117Zm5.508-5.605V8.434H81.31v2.285H79.571v4.834a1.234,1.234,0,0,0,.215.83,1.152,1.152,0,0,0,.85.234,4.828,4.828,0,0,0,.82-.059v2.354A6.074,6.074,0,0,1,79.6,19.2a3.448,3.448,0,0,1-2.51-.8,3.282,3.282,0,0,1-.811-2.432V10.719H74.933V8.434H76.28V5.807ZM86.075,19h-3.3V8.434h3.3Zm-3.5-13.291a1.469,1.469,0,0,1,.508-1.152,2.159,2.159,0,0,1,2.637,0,1.469,1.469,0,0,1,.508,1.152,1.469,1.469,0,0,1-.508,1.152,2.159,2.159,0,0,1-2.637,0A1.469,1.469,0,0,1,82.579,5.709Zm11.914,5.7-1.084-.078a1.947,1.947,0,0,0-1.992.977V19H88.126V8.434h3.086l.107,1.357a2.548,2.548,0,0,1,2.314-1.553,3.209,3.209,0,0,1,.918.117ZM106.612,19a3.716,3.716,0,0,1-.312-.947,3.06,3.06,0,0,1-2.539,1.143,3.749,3.749,0,0,1-2.539-.9,2.875,2.875,0,0,1-1.045-2.271,2.955,2.955,0,0,1,1.27-2.6,6.468,6.468,0,0,1,3.691-.879h1.016v-.559q0-1.462-1.26-1.462a1.03,1.03,0,0,0-1.172,1.158h-3.291a2.95,2.95,0,0,1,1.3-2.487,5.479,5.479,0,0,1,3.325-.956,4.8,4.8,0,0,1,3.193.986,3.429,3.429,0,0,1,1.2,2.705v4.678a4.79,4.79,0,0,0,.449,2.227V19Zm-2.061-2.148a1.836,1.836,0,0,0,1.021-.264,1.653,1.653,0,0,0,.581-.6V14.3H105.2q-1.719,0-1.719,1.543a.942.942,0,0,0,.3.728A1.1,1.1,0,0,0,104.552,16.852ZM116.983,19V10.719H115.45V8.434h1.533v-.84a3.651,3.651,0,0,1,1.064-2.8,4.206,4.206,0,0,1,2.988-1A6.544,6.544,0,0,1,122.579,4l.01,2.422a3.007,3.007,0,0,0-.811-.088q-1.494,0-1.494,1.289v.811h2.061v2.285h-2.061V19Zm6.1-5.381A6.236,6.236,0,0,1,123.7,10.8a4.4,4.4,0,0,1,1.768-1.9,5.323,5.323,0,0,1,2.705-.664,4.858,4.858,0,0,1,3.74,1.47,5.64,5.64,0,0,1,1.367,4v.117a5.472,5.472,0,0,1-1.372,3.921,4.871,4.871,0,0,1-3.716,1.45,4.927,4.927,0,0,1-3.623-1.353,5.29,5.29,0,0,1-1.475-3.667Zm3.291.205a3.932,3.932,0,0,0,.459,2.148,1.529,1.529,0,0,0,1.357.684q1.758,0,1.8-2.705v-.332q0-2.842-1.816-2.842-1.65,0-1.787,2.451Zm14.746-2.412-1.084-.078a1.947,1.947,0,0,0-1.992.977V19h-3.291V8.434h3.086l.107,1.357a2.548,2.548,0,0,1,2.314-1.553,3.209,3.209,0,0,1,.918.117Zm4.3-2.979.107,1.24a3.633,3.633,0,0,1,3.018-1.436,2.675,2.675,0,0,1,2.705,1.592,3.516,3.516,0,0,1,3.105-1.592q3.213,0,3.3,3.887V19h-3.3V12.33a2.014,2.014,0,0,0-.273-1.182,1.164,1.164,0,0,0-1-.371,1.559,1.559,0,0,0-1.455.869l.01.137V19h-3.3V12.35a2.117,2.117,0,0,0-.264-1.2,1.161,1.161,0,0,0-1.006-.371,1.578,1.578,0,0,0-1.445.869V19h-3.291V8.434ZM165.489,19a3.716,3.716,0,0,1-.312-.947,3.06,3.06,0,0,1-2.539,1.143,3.749,3.749,0,0,1-2.539-.9,2.875,2.875,0,0,1-1.045-2.271,2.955,2.955,0,0,1,1.27-2.6,6.468,6.468,0,0,1,3.691-.879h1.016v-.559q0-1.462-1.26-1.462a1.03,1.03,0,0,0-1.172,1.158h-3.291a2.95,2.95,0,0,1,1.3-2.487,5.479,5.479,0,0,1,3.325-.956,4.8,4.8,0,0,1,3.193.986,3.429,3.429,0,0,1,1.2,2.705v4.678a4.79,4.79,0,0,0,.449,2.227V19Zm-2.061-2.148a1.836,1.836,0,0,0,1.021-.264,1.653,1.653,0,0,0,.581-.6V14.3h-.957q-1.719,0-1.719,1.543a.942.942,0,0,0,.3.728A1.1,1.1,0,0,0,163.429,16.852ZM173.985,5.807V8.434h1.738v2.285h-1.738v4.834a1.234,1.234,0,0,0,.215.83,1.152,1.152,0,0,0,.85.234,4.828,4.828,0,0,0,.82-.059v2.354a6.074,6.074,0,0,1-1.855.283,3.448,3.448,0,0,1-2.51-.8,3.282,3.282,0,0,1-.811-2.432V10.719h-1.348V8.434h1.348V5.807Zm2.324,7.813a6.236,6.236,0,0,1,.615-2.817,4.4,4.4,0,0,1,1.768-1.9,5.323,5.323,0,0,1,2.705-.664,4.858,4.858,0,0,1,3.74,1.47,5.64,5.64,0,0,1,1.367,4v.117a5.472,5.472,0,0,1-1.372,3.921,4.871,4.871,0,0,1-3.716,1.45,4.927,4.927,0,0,1-3.623-1.353,5.29,5.29,0,0,1-1.475-3.667Zm3.291.205a3.932,3.932,0,0,0,.459,2.148,1.529,1.529,0,0,0,1.357.684q1.758,0,1.8-2.705v-.332q0-2.842-1.816-2.842-1.65,0-1.787,2.451Zm20.82,1.4a1.408,1.408,0,0,0-.532-1.172,6.615,6.615,0,0,0-1.87-.869,17.942,17.942,0,0,1-2.187-.869q-2.764-1.357-2.764-3.73a3.345,3.345,0,0,1,.688-2.085A4.453,4.453,0,0,1,195.7,5.089a7.582,7.582,0,0,1,2.832-.5,6.632,6.632,0,0,1,2.749.547,4.352,4.352,0,0,1,1.89,1.558A4.068,4.068,0,0,1,203.849,9h-3.418a1.719,1.719,0,0,0-.532-1.348,2.075,2.075,0,0,0-1.44-.479,2.339,2.339,0,0,0-1.45.405,1.193,1.193,0,0,0,.054,2.021,7.389,7.389,0,0,0,2.061.918,12.623,12.623,0,0,1,2.422,1.021,4.07,4.07,0,0,1,2.3,3.662,3.472,3.472,0,0,1-1.406,2.93,6.255,6.255,0,0,1-3.857,1.064,7.653,7.653,0,0,1-3.13-.62,4.719,4.719,0,0,1-2.109-1.7,4.428,4.428,0,0,1-.708-2.485h3.438a2.181,2.181,0,0,0,.591,1.685,2.793,2.793,0,0,0,1.919.542,2.206,2.206,0,0,0,1.343-.366A1.209,1.209,0,0,0,200.421,15.221Zm16.348-7.793H212.5V19h-3.428V7.428h-4.189V4.781h11.885Zm4.873,8.936h5.967V19h-9.395V4.781h3.428Z" transform="translate(434 5122.24)" fill="#12263f"/>
    <path id="Trazado_208511" data-name="Trazado 208511" d="M22.7,19H19.281V4.781H22.7ZM28.041,8.434l.107,1.24a3.633,3.633,0,0,1,3.018-1.436A2.675,2.675,0,0,1,33.871,9.83a3.516,3.516,0,0,1,3.105-1.592q3.213,0,3.3,3.887V19h-3.3V12.33a2.014,2.014,0,0,0-.273-1.182,1.164,1.164,0,0,0-1-.371,1.559,1.559,0,0,0-1.455.869l.01.137V19h-3.3V12.35a2.117,2.117,0,0,0-.264-1.2,1.161,1.161,0,0,0-1.006-.371,1.578,1.578,0,0,0-1.445.869V19H24.955V8.434Zm23.926,5.361a6.372,6.372,0,0,1-1.108,3.931,3.554,3.554,0,0,1-2.993,1.47,3.046,3.046,0,0,1-2.393-1.064v4.932H42.182V8.434h3.076l.1.977a3.046,3.046,0,0,1,2.49-1.172,3.582,3.582,0,0,1,3.037,1.44,6.45,6.45,0,0,1,1.084,3.96Zm-3.291-.205q0-2.812-1.641-2.812a1.549,1.549,0,0,0-1.562.84v4.16a1.6,1.6,0,0,0,1.582.879q1.572,0,1.621-2.715Zm11.133-2.178-1.084-.078a1.947,1.947,0,0,0-1.992.977V19H53.441V8.434h3.086l.107,1.357a2.548,2.548,0,0,1,2.314-1.553,3.209,3.209,0,0,1,.918.117ZM65.922,19.2a5.432,5.432,0,0,1-3.936-1.45,5.008,5.008,0,0,1-1.5-3.774V13.7a6.489,6.489,0,0,1,.6-2.861,4.395,4.395,0,0,1,1.753-1.919,5.292,5.292,0,0,1,2.734-.679A4.574,4.574,0,0,1,69.086,9.62a5.43,5.43,0,0,1,1.289,3.853v1.279H63.832a2.372,2.372,0,0,0,.771,1.4,2.3,2.3,0,0,0,1.543.508,2.958,2.958,0,0,0,2.441-1.094l1.5,1.777a4.2,4.2,0,0,1-1.743,1.353A5.891,5.891,0,0,1,65.922,19.2Zm-.371-8.418q-1.445,0-1.719,1.914h3.32v-.254a1.63,1.63,0,0,0-.4-1.226A1.593,1.593,0,0,0,65.551,10.777Zm11.68,5.254a.76.76,0,0,0-.439-.674,6.685,6.685,0,0,0-1.67-.527,7.615,7.615,0,0,1-2.031-.718,3.4,3.4,0,0,1-1.221-1.079,2.577,2.577,0,0,1-.42-1.455,2.92,2.92,0,0,1,1.2-2.4,4.948,4.948,0,0,1,3.145-.942,5.482,5.482,0,0,1,3.359.947,2.962,2.962,0,0,1,1.27,2.49h-3.3q0-1.27-1.338-1.27a1.326,1.326,0,0,0-.869.288.892.892,0,0,0-.352.718.819.819,0,0,0,.43.713,4.06,4.06,0,0,0,1.372.449,11.857,11.857,0,0,1,1.655.42A3.007,3.007,0,0,1,80.4,15.934a2.767,2.767,0,0,1-1.284,2.354,5.631,5.631,0,0,1-3.325.908,5.747,5.747,0,0,1-2.422-.488,4.05,4.05,0,0,1-1.66-1.328,3.007,3.007,0,0,1-.6-1.768h3.076a1.272,1.272,0,0,0,.488,1.069,2.009,2.009,0,0,0,1.2.337,1.58,1.58,0,0,0,1.011-.273A.875.875,0,0,0,77.23,16.031ZM85.414,19h-3.3V8.434h3.3Zm-3.5-13.291a1.469,1.469,0,0,1,.508-1.152,2.159,2.159,0,0,1,2.637,0,1.469,1.469,0,0,1,.508,1.152,1.469,1.469,0,0,1-.508,1.152,2.159,2.159,0,0,1-2.637,0A1.469,1.469,0,0,1,81.918,5.709Zm5.107,7.91a6.236,6.236,0,0,1,.615-2.817,4.4,4.4,0,0,1,1.768-1.9,5.323,5.323,0,0,1,2.705-.664,4.858,4.858,0,0,1,3.74,1.47,5.64,5.64,0,0,1,1.367,4v.117a5.472,5.472,0,0,1-1.372,3.921,4.871,4.871,0,0,1-3.716,1.45,4.927,4.927,0,0,1-3.623-1.353,5.29,5.29,0,0,1-1.475-3.667Zm3.291.205a3.932,3.932,0,0,0,.459,2.148,1.529,1.529,0,0,0,1.357.684q1.758,0,1.8-2.705v-.332q0-2.842-1.816-2.842-1.65,0-1.787,2.451ZM92.563,4h3.477L93.324,7.066l-2.686,0Zm9.131,4.434.107,1.24a3.583,3.583,0,0,1,3.018-1.436,3.015,3.015,0,0,1,2.466.986,4.7,4.7,0,0,1,.845,2.969V19h-3.3V12.33a1.783,1.783,0,0,0-.322-1.177,1.491,1.491,0,0,0-1.172-.376,1.569,1.569,0,0,0-1.436.762V19H98.607V8.434Z" transform="translate(828 5122.24)" fill="#12263f"/>
    <path id="Trazado_208512" data-name="Trazado 208512" d="M20.3,14.176V19H16.873V4.781h5.674a6.608,6.608,0,0,1,2.886.6,4.526,4.526,0,0,1,1.943,1.709,4.667,4.667,0,0,1,.688,2.515,4.114,4.114,0,0,1-1.489,3.325,6.179,6.179,0,0,1-4.087,1.245Zm0-2.646h2.246a2.118,2.118,0,0,0,1.519-.5,1.85,1.85,0,0,0,.522-1.406,2.287,2.287,0,0,0-.537-1.592,1.9,1.9,0,0,0-1.465-.605H20.3Zm8.9,2.09a6.236,6.236,0,0,1,.615-2.817A4.4,4.4,0,0,1,31.58,8.9a5.323,5.323,0,0,1,2.705-.664,4.858,4.858,0,0,1,3.74,1.47,5.64,5.64,0,0,1,1.367,4v.117a5.472,5.472,0,0,1-1.372,3.921A4.871,4.871,0,0,1,34.3,19.2a4.927,4.927,0,0,1-3.623-1.353,5.29,5.29,0,0,1-1.475-3.667Zm3.291.205a3.932,3.932,0,0,0,.459,2.148,1.529,1.529,0,0,0,1.357.684q1.758,0,1.8-2.705v-.332q0-2.842-1.816-2.842-1.65,0-1.787,2.451Zm13.887,2.207a.76.76,0,0,0-.439-.674,6.685,6.685,0,0,0-1.67-.527,7.615,7.615,0,0,1-2.031-.718,3.4,3.4,0,0,1-1.221-1.079,2.577,2.577,0,0,1-.42-1.455,2.92,2.92,0,0,1,1.2-2.4,4.948,4.948,0,0,1,3.145-.942,5.482,5.482,0,0,1,3.359.947,2.962,2.962,0,0,1,1.27,2.49h-3.3q0-1.27-1.338-1.27a1.326,1.326,0,0,0-.869.288.892.892,0,0,0-.352.718.819.819,0,0,0,.43.713,4.06,4.06,0,0,0,1.372.449,11.857,11.857,0,0,1,1.655.42,3.007,3.007,0,0,1,2.383,2.939,2.767,2.767,0,0,1-1.284,2.354,5.632,5.632,0,0,1-3.325.908,5.747,5.747,0,0,1-2.422-.488,4.05,4.05,0,0,1-1.66-1.328,3.007,3.007,0,0,1-.6-1.768h3.076a1.272,1.272,0,0,0,.488,1.069,2.009,2.009,0,0,0,1.2.337,1.58,1.58,0,0,0,1.011-.273A.875.875,0,0,0,46.375,16.031ZM54.92,5.807V8.434h1.738v2.285H54.92v4.834a1.234,1.234,0,0,0,.215.83,1.152,1.152,0,0,0,.85.234,4.828,4.828,0,0,0,.82-.059v2.354a6.074,6.074,0,0,1-1.855.283,3.448,3.448,0,0,1-2.51-.8,3.282,3.282,0,0,1-.811-2.432V10.719H50.281V8.434h1.348V5.807Zm9.463,8.33H58.514V11.6h5.869Zm17.354-.342a6.372,6.372,0,0,1-1.108,3.931,3.554,3.554,0,0,1-2.993,1.47,3.046,3.046,0,0,1-2.393-1.064v4.932H71.951V8.434h3.076l.1.977a3.046,3.046,0,0,1,2.49-1.172,3.582,3.582,0,0,1,3.037,1.44,6.45,6.45,0,0,1,1.084,3.96Zm-3.291-.205q0-2.812-1.641-2.812a1.549,1.549,0,0,0-1.562.84v4.16a1.6,1.6,0,0,0,1.582.879q1.572,0,1.621-2.715Zm11.133-2.178-1.084-.078a1.947,1.947,0,0,0-1.992.977V19H83.211V8.434H86.3L86.4,9.791a2.548,2.548,0,0,1,2.314-1.553,3.209,3.209,0,0,1,.918.117ZM90,13.619a6.236,6.236,0,0,1,.615-2.817,4.4,4.4,0,0,1,1.768-1.9,5.323,5.323,0,0,1,2.705-.664,4.858,4.858,0,0,1,3.74,1.47,5.64,5.64,0,0,1,1.367,4v.117a5.472,5.472,0,0,1-1.372,3.921,4.871,4.871,0,0,1-3.716,1.45,4.927,4.927,0,0,1-3.623-1.353,5.29,5.29,0,0,1-1.475-3.667Zm3.291.205a3.932,3.932,0,0,0,.459,2.148,1.529,1.529,0,0,0,1.357.684q1.758,0,1.8-2.705v-.332q0-2.842-1.816-2.842-1.65,0-1.787,2.451Zm12.822,2.832a1.464,1.464,0,0,0,1.074-.376,1.379,1.379,0,0,0,.371-1.05h3.086a3.653,3.653,0,0,1-1.245,2.852,4.631,4.631,0,0,1-3.208,1.113,4.689,4.689,0,0,1-3.633-1.445,5.7,5.7,0,0,1-1.328-4v-.137a6.436,6.436,0,0,1,.591-2.827,4.3,4.3,0,0,1,1.7-1.885,5.081,5.081,0,0,1,2.637-.659,4.573,4.573,0,0,1,3.271,1.143,4.053,4.053,0,0,1,1.211,3.1h-3.086a1.806,1.806,0,0,0-.4-1.26,1.382,1.382,0,0,0-1.074-.439q-1.279,0-1.494,1.631a11.508,11.508,0,0,0-.068,1.426,4.52,4.52,0,0,0,.381,2.207A1.319,1.319,0,0,0,106.111,16.656ZM117.146,19.2a5.432,5.432,0,0,1-3.936-1.45,5.008,5.008,0,0,1-1.5-3.774V13.7a6.489,6.489,0,0,1,.6-2.861,4.395,4.395,0,0,1,1.753-1.919,5.292,5.292,0,0,1,2.734-.679,4.574,4.574,0,0,1,3.516,1.382,5.43,5.43,0,0,1,1.289,3.853v1.279h-6.543a2.372,2.372,0,0,0,.771,1.4,2.3,2.3,0,0,0,1.543.508,2.958,2.958,0,0,0,2.441-1.094l1.5,1.777a4.2,4.2,0,0,1-1.743,1.353A5.891,5.891,0,0,1,117.146,19.2Zm-.371-8.418q-1.445,0-1.719,1.914h3.32v-.254a1.63,1.63,0,0,0-.4-1.226A1.593,1.593,0,0,0,116.775,10.777Zm11.68,5.254a.76.76,0,0,0-.439-.674,6.685,6.685,0,0,0-1.67-.527,7.615,7.615,0,0,1-2.031-.718,3.4,3.4,0,0,1-1.221-1.079,2.577,2.577,0,0,1-.42-1.455,2.92,2.92,0,0,1,1.2-2.4,4.948,4.948,0,0,1,3.145-.942,5.482,5.482,0,0,1,3.359.947,2.962,2.962,0,0,1,1.27,2.49h-3.3q0-1.27-1.338-1.27a1.326,1.326,0,0,0-.869.288.892.892,0,0,0-.352.718.819.819,0,0,0,.43.713,4.06,4.06,0,0,0,1.372.449,11.857,11.857,0,0,1,1.655.42,3.007,3.007,0,0,1,2.383,2.939,2.767,2.767,0,0,1-1.284,2.354,5.632,5.632,0,0,1-3.325.908,5.747,5.747,0,0,1-2.422-.488,4.05,4.05,0,0,1-1.66-1.328,3.007,3.007,0,0,1-.6-1.768h3.076a1.272,1.272,0,0,0,.488,1.069,2.009,2.009,0,0,0,1.2.337,1.58,1.58,0,0,0,1.011-.273A.875.875,0,0,0,128.455,16.031ZM139.119,19a3.716,3.716,0,0,1-.312-.947,3.06,3.06,0,0,1-2.539,1.143,3.749,3.749,0,0,1-2.539-.9,2.875,2.875,0,0,1-1.045-2.271,2.955,2.955,0,0,1,1.27-2.6,6.468,6.468,0,0,1,3.691-.879h1.016v-.559q0-1.462-1.26-1.462a1.03,1.03,0,0,0-1.172,1.158h-3.291a2.95,2.95,0,0,1,1.3-2.487,5.479,5.479,0,0,1,3.325-.956,4.8,4.8,0,0,1,3.193.986,3.429,3.429,0,0,1,1.2,2.705v4.678a4.79,4.79,0,0,0,.449,2.227V19Zm-2.061-2.148a1.836,1.836,0,0,0,1.021-.264,1.653,1.653,0,0,0,.581-.6V14.3H137.7q-1.719,0-1.719,1.543a.942.942,0,0,0,.3.728A1.1,1.1,0,0,0,137.059,16.852Zm9.834-8.418L147,9.674a3.633,3.633,0,0,1,3.018-1.436,2.675,2.675,0,0,1,2.705,1.592,3.516,3.516,0,0,1,3.105-1.592q3.213,0,3.3,3.887V19h-3.3V12.33a2.014,2.014,0,0,0-.273-1.182,1.164,1.164,0,0,0-1-.371,1.559,1.559,0,0,0-1.455.869l.01.137V19h-3.3V12.35a2.117,2.117,0,0,0-.264-1.2,1.161,1.161,0,0,0-1.006-.371,1.578,1.578,0,0,0-1.445.869V19h-3.291V8.434ZM164.48,19h-3.3V8.434h3.3Zm-3.5-13.291a1.469,1.469,0,0,1,.508-1.152,2.159,2.159,0,0,1,2.637,0,1.469,1.469,0,0,1,.508,1.152,1.469,1.469,0,0,1-.508,1.152,2.159,2.159,0,0,1-2.637,0A1.469,1.469,0,0,1,160.984,5.709ZM171.619,19.2a5.432,5.432,0,0,1-3.936-1.45,5.008,5.008,0,0,1-1.5-3.774V13.7a6.489,6.489,0,0,1,.6-2.861,4.395,4.395,0,0,1,1.753-1.919,5.292,5.292,0,0,1,2.734-.679,4.574,4.574,0,0,1,3.516,1.382,5.43,5.43,0,0,1,1.289,3.853v1.279h-6.543a2.372,2.372,0,0,0,.771,1.4,2.3,2.3,0,0,0,1.543.508,2.958,2.958,0,0,0,2.441-1.094l1.5,1.777a4.2,4.2,0,0,1-1.743,1.353A5.891,5.891,0,0,1,171.619,19.2Zm-.371-8.418q-1.445,0-1.719,1.914h3.32v-.254a1.63,1.63,0,0,0-.4-1.226A1.593,1.593,0,0,0,171.248,10.777Zm9.17-2.344.107,1.24a3.583,3.583,0,0,1,3.018-1.436,3.015,3.015,0,0,1,2.466.986,4.7,4.7,0,0,1,.845,2.969V19h-3.3V12.33a1.783,1.783,0,0,0-.322-1.177,1.491,1.491,0,0,0-1.172-.376,1.569,1.569,0,0,0-1.436.762V19h-3.291V8.434Zm12.09-2.627V8.434h1.738v2.285h-1.738v4.834a1.234,1.234,0,0,0,.215.83,1.152,1.152,0,0,0,.85.234,4.828,4.828,0,0,0,.82-.059v2.354a6.074,6.074,0,0,1-1.855.283,3.448,3.448,0,0,1-2.51-.8,3.282,3.282,0,0,1-.811-2.432V10.719h-1.348V8.434h1.348V5.807Zm2.324,7.813a6.236,6.236,0,0,1,.615-2.817,4.4,4.4,0,0,1,1.768-1.9,5.323,5.323,0,0,1,2.705-.664,4.858,4.858,0,0,1,3.74,1.47,5.64,5.64,0,0,1,1.367,4v.117a5.472,5.472,0,0,1-1.372,3.921,4.871,4.871,0,0,1-3.716,1.45,4.927,4.927,0,0,1-3.623-1.353,5.29,5.29,0,0,1-1.475-3.667Zm3.291.205a3.932,3.932,0,0,0,.459,2.148,1.529,1.529,0,0,0,1.357.684q1.758,0,1.8-2.705v-.332q0-2.842-1.816-2.842-1.65,0-1.787,2.451Z" transform="translate(1118 5122.24)" fill="#12263f"/>
  </g>
</svg>
