<svg xmlns="http://www.w3.org/2000/svg" width="1241" height="821" viewBox="0 0 1241 821">
  <g id="Grupo_145184" data-name="Grupo 145184" transform="translate(-179.333 -360)">
    <text id="Tecnologías_para_la_manufactura_aditiva_y_tipos_de_impresión_3D" data-name="Tecnologías para la manufactura aditiva y tipos de impresión 3D" transform="translate(800.333 383)" fill="#12263f" font-size="24" font-family="Roboto-Black, Roboto" font-weight="800"><tspan x="-347.332" y="0">Tecnologías para la manufactura aditiva y tipos de impresión 3D</tspan></text>
    <path id="Trazado_115091" data-name="Trazado 115091" d="M317.5,198.855c0,2.44-.083,4.86-.229,7.264h80.3c.086-2.412.147-4.831.147-7.264C397.712,89.03,308.681,0,198.856,0V80.215A118.64,118.64,0,0,1,317.5,198.855" transform="translate(601.333 610.145)" fill="#16303d"/>
    <path id="Trazado_115092" data-name="Trazado 115092" d="M397.565,206.119h-80.3A118.641,118.641,0,0,1,198.855,317.495v80.216c107.392,0,194.886-85.134,198.71-191.592" transform="translate(601.333 610.145)" fill="#255065"/>
    <path id="Trazado_115093" data-name="Trazado 115093" d="M198.855,317.495A118.64,118.64,0,0,1,80.443,206.119H.146C3.971,312.577,91.464,397.711,198.855,397.711Z" transform="translate(601.333 610.145)" fill="#b3c2c9"/>
    <path id="Trazado_115094" data-name="Trazado 115094" d="M80.216,198.855a118.64,118.64,0,0,1,118.64-118.64V0C89.031,0,0,89.03,0,198.855c0,2.433.06,4.852.146,7.264h80.3c-.145-2.4-.228-4.824-.228-7.264" transform="translate(601.333 610.145)" fill="#dfe5e8"/>
    <path id="Trazado_115095" data-name="Trazado 115095" d="M198.856,0a40.781,40.781,0,1,1-40.781,40.781A40.781,40.781,0,0,1,198.856,0" transform="translate(601.333 610)" fill="#16303d"/>
    <path id="Trazado_115096" data-name="Trazado 115096" d="M198.856,316.149a40.781,40.781,0,1,1-40.781,40.781,40.781,40.781,0,0,1,40.781-40.781" transform="translate(601.258 609.851)" fill="#b3c2c9"/>
    <path id="Trazado_115097" data-name="Trazado 115097" d="M40.781,165.338A40.781,40.781,0,1,1,0,206.119a40.781,40.781,0,0,1,40.781-40.781" transform="translate(601.333 609.662)" fill="#dfe5e8"/>
    <path id="Trazado_115098" data-name="Trazado 115098" d="M356.784,165.338A40.781,40.781,0,1,1,316,206.119a40.781,40.781,0,0,1,40.781-40.781" transform="translate(601.33 609.662)" fill="#255065"/>
    <text id="_04" data-name="04" transform="translate(800.114 664)" fill="#fff" font-size="37" font-family="Roboto-Black, Roboto" font-weight="800"><tspan x="-21.427" y="0">04</tspan></text>
    <text id="_01" data-name="01" transform="translate(642.333 829)" fill="#1e4051" font-size="37" font-family="Roboto-Black, Roboto" font-weight="800"><tspan x="-21.427" y="0">01</tspan></text>
    <text id="_02" data-name="02" transform="translate(800.333 980)" fill="#1e4051" font-size="37" font-family="Roboto-Black, Roboto" font-weight="800"><tspan x="-21.427" y="0">02</tspan></text>
    <text id="_03" data-name="03" transform="translate(958.333 829)" fill="#fff" font-size="37" font-family="Roboto-Black, Roboto" font-weight="800"><tspan x="-21.427" y="0">03</tspan></text>
    <path id="Trazado_115100" data-name="Trazado 115100" d="M210,0,10,178" transform="translate(895.333 520)" fill="none" stroke="#707070" stroke-width="5" opacity="0.95"/>
    <path id="Trazado_115099" data-name="Trazado 115099" d="M190,137,0,0" transform="translate(495.333 560)" fill="none" stroke="#707070" stroke-width="5" opacity="0.95"/>
    <line id="Línea_177" data-name="Línea 177" x1="210" transform="translate(495.333 921)" fill="none" stroke="#707070" stroke-width="5" opacity="0.95"/>
    <line id="Línea_207" data-name="Línea 207" x2="210" transform="translate(895.333 921)" fill="none" stroke="#707070" stroke-width="5" opacity="0.95"/>
    <line id="Línea_167" data-name="Línea 167" x2="315" transform="translate(180.333 560)" fill="none" stroke="#707070" stroke-width="5" opacity="0.95"/>
    <line id="Línea_203" data-name="Línea 203" x2="315" transform="translate(180.333 921)" fill="none" stroke="#707070" stroke-width="5" opacity="0.95"/>
    <line id="Línea_205" data-name="Línea 205" x1="315" transform="translate(1420.333 921) rotate(180)" fill="none" stroke="#707070" stroke-width="5" opacity="0.95"/>
    <line id="Línea_208" data-name="Línea 208" x1="315" transform="translate(1420.333 520) rotate(180)" fill="none" stroke="#707070" stroke-width="5" opacity="0.95"/>
    <line id="Línea_174" data-name="Línea 174" x2="140" transform="translate(180.333 560)" fill="none" stroke="#ff9500" stroke-width="5" opacity="0.95"/>
    <line id="Línea_204" data-name="Línea 204" x2="140" transform="translate(180.333 921)" fill="none" stroke="#ff9500" stroke-width="5" opacity="0.95"/>
    <line id="Línea_206" data-name="Línea 206" x1="140" transform="translate(1245.333 921) rotate(180)" fill="none" stroke="#ff9500" stroke-width="5" opacity="0.95"/>
    <line id="Línea_209" data-name="Línea 209" x1="140" transform="translate(1245.333 520) rotate(180)" fill="none" stroke="#ff9500" stroke-width="5" opacity="0.95"/>
    <text id="Historia" transform="translate(180.333 523)" fill="#12263f" font-size="20" font-family="Roboto-Black, Roboto" font-weight="800" opacity="0.95"><tspan x="0" y="19">Historia</tspan></text>
    <text id="Ventajas_" data-name="Ventajas " transform="translate(180.333 884)" fill="#12263f" font-size="20" font-family="Roboto-Black, Roboto" font-weight="800" opacity="0.95"><tspan x="0" y="19">Ventajas </tspan></text>
    <text id="El_tipo_de_manufactura_aditiva_existe_desde_los_años_80_aproximadamente_desde_entonces_siempre_ha_tenido_relevancia_en_el_sector_de_la_industria_y_por_consiguiente_en_los_demás_sectores_como_el_textil_joyería_medicina_aeronáutico_y_hasta_el_arquitectón" data-name="El tipo de manufactura aditiva existe desde los años 80 aproximadamente, desde entonces siempre ha tenido relevancia en el sector de la industria y por consiguiente en los demás sectores como el textil, joyería, medicina, aeronáutico y hasta el arquitectón" transform="translate(180.333 585)" fill="#12263f" font-size="16" font-family="Roboto-Regular, Roboto" opacity="0.95"><tspan x="0" y="15">El tipo de manufactura aditiva existe </tspan><tspan x="0" y="39">desde los años 80 aproximadamente, </tspan><tspan x="0" y="63">desde entonces siempre ha tenido </tspan><tspan x="0" y="87">relevancia en el sector de la industria y </tspan><tspan x="0" y="111">por consiguiente en los demás sectores </tspan><tspan x="0" y="135">como el textil, joyería, medicina, </tspan><tspan x="0" y="159">aeronáutico y hasta el arquitectónico.</tspan></text>
    <text id="Gracias_a_este_tipo_de_fabricación_se_ven_con_mayor_velocidad_nuevos_objetos_en_el_mercado_en_especial_en_el_área_de_tipo_Industrial._Es_más_económico._Resulta_más_rápido_para_realizar_prototipos._" data-name="Gracias a este tipo de fabricación, se ven con mayor velocidad nuevos objetos en el mercado en especial en el área de tipo Industrial.

Es más económico.

Resulta más rápido para realizar prototipos.
" transform="translate(200.333 946)" fill="#12263f" font-size="16" font-family="Roboto-Regular, Roboto" opacity="0.95"><tspan x="0" y="15">Gracias a este tipo de fabricación, se </tspan><tspan x="0" y="39">ven con mayor velocidad nuevos </tspan><tspan x="0" y="63">objetos en el mercado en especial en </tspan><tspan x="0" y="87">el área de tipo Industrial.</tspan><tspan x="0" y="111"></tspan><tspan x="0" y="135">Es más económico.</tspan><tspan x="0" y="159"></tspan><tspan x="0" y="183">Resulta más rápido para realizar </tspan><tspan x="0" y="207">prototipos.</tspan><tspan x="0" y="231"></tspan></text>
    <text id="La_configuración_de_la_impresora_3D_es_un_aspecto_básico_e_importante_ya_que_en_la_actualidad_los_fabricantes_de_estas_impresoras_están_haciendo_que_sea_simple_o_automatizada_sin_embargo_aprender_sobre_la_calibración_es_esencial_para_todo_usuario." data-name="La configuración de la impresora 3D, es un aspecto básico e importante ya que en la actualidad los fabricantes de estas impresoras están haciendo que sea simple o automatizada; sin embargo, aprender sobre la calibración es esencial para todo usuario." transform="translate(1125.333 545)" fill="#12263f" font-size="16" font-family="Roboto-Regular, Roboto" opacity="0.95"><tspan x="0" y="15">La configuración de la impresora 3D, es </tspan><tspan x="0" y="39">un aspecto básico e importante ya que </tspan><tspan x="0" y="63">en la actualidad los fabricantes de estas </tspan><tspan x="0" y="87">impresoras están haciendo que sea </tspan><tspan x="0" y="111">simple o automatizada; sin embargo, </tspan><tspan x="0" y="135">aprender sobre la calibración es esencial </tspan><tspan x="0" y="159">para todo usuario.</tspan></text>
    <text id="Plásticos" transform="translate(1145.333 946)" fill="#12263f" font-size="16" font-family="Roboto-Regular, Roboto" opacity="0.95"><tspan x="0" y="15">Plásticos</tspan></text>
    <text id="Polvo" transform="translate(1145.333 1026)" fill="#12263f" font-size="16" font-family="Roboto-Regular, Roboto" opacity="0.95"><tspan x="0" y="15">Polvo</tspan></text>
    <text id="Metales" transform="translate(1145.333 986)" fill="#12263f" font-size="16" font-family="Roboto-Regular, Roboto" opacity="0.95"><tspan x="0" y="15">Metales</tspan></text>
    <circle id="Elipse_5271" data-name="Elipse 5271" cx="5" cy="5" r="5" transform="translate(1125.333 951)" fill="#ff9500"/>
    <circle id="Elipse_5412" data-name="Elipse 5412" cx="5" cy="5" r="5" transform="translate(180.333 950)" fill="#ff9500"/>
    <circle id="Elipse_5272" data-name="Elipse 5272" cx="5" cy="5" r="5" transform="translate(1125.333 1031)" fill="#ff9500"/>
    <circle id="Elipse_5414" data-name="Elipse 5414" cx="5" cy="5" r="5" transform="translate(180.333 1120)" fill="#ff9500"/>
    <circle id="Elipse_5273" data-name="Elipse 5273" cx="5" cy="5" r="5" transform="translate(1125.333 991)" fill="#ff9500"/>
    <circle id="Elipse_5413" data-name="Elipse 5413" cx="5" cy="5" r="5" transform="translate(180.333 1069)" fill="#ff9500"/>
    <text id="Tipos_de_materiales" data-name="Tipos de materiales" transform="translate(1125.333 870)" fill="#12263f" font-size="20" font-family="Roboto-Black, Roboto" font-weight="800" opacity="0.95"><tspan x="0" y="19">Tipos de materiales</tspan></text>
    <text id="Configuración_de_funciones_básicas" data-name="Configuración de funciones básicas" transform="translate(1125.333 442)" fill="#12263f" font-size="20" font-family="Roboto-Black, Roboto" font-weight="800" opacity="0.95"><tspan x="0" y="19">Configuración de funciones </tspan><tspan x="0" y="46">básicas</tspan></text>
  </g>
</svg>
